STARTFONT 2.1
COMMENT
COMMENT Converted from OpenType font "Q:\font stuff\winfont\Ubuntu-R.ttf" by "otf2bdf 3.0".
COMMENT
FONT -FreeType-Ubuntu-Medium-R-Normal--12-120-72-72-P-65-ISO10646-1
SIZE 12 72 72
FONTBOUNDINGBOX 44 19 -2 -6
STARTPROPERTIES 19
FOUNDRY "FreeType"
FAMILY_NAME "Ubuntu"
WEIGHT_NAME "Medium"
SLANT "R"
SETWIDTH_NAME "Normal"
ADD_STYLE_NAME ""
PIXEL_SIZE 12
POINT_SIZE 120
RESOLUTION_X 72
RESOLUTION_Y 72
SPACING "P"
AVERAGE_WIDTH 65
CHARSET_REGISTRY "ISO10646"
CHARSET_ENCODING "1"
FONT_ASCENT 11
FONT_DESCENT 8
COPYRIGHT "Copyright 2011 Canonical Ltd.  Licensed under the Ubuntu Font Licence 1.0"
_OTF_FONTFILE "Q:\font stuff\winfont\Ubuntu-R.ttf"
_OTF_PSNAME "Ubuntu"
ENDPROPERTIES
CHARS 1193
STARTCHAR 0008
ENCODING 8
SWIDTH 0 0
DWIDTH 0 0
BBX 0 0 0 0
BITMAP
ENDCHAR
STARTCHAR 0009
ENCODING 9
SWIDTH 250 0
DWIDTH 3 0
BBX 0 0 0 0
BITMAP
ENDCHAR
STARTCHAR 000D
ENCODING 13
SWIDTH 250 0
DWIDTH 3 0
BBX 0 0 0 0
BITMAP
ENDCHAR
STARTCHAR 001D
ENCODING 29
SWIDTH 0 0
DWIDTH 0 0
BBX 0 0 0 0
BITMAP
ENDCHAR
STARTCHAR 0020
ENCODING 32
SWIDTH 250 0
DWIDTH 3 0
BBX 0 0 0 0
BITMAP
ENDCHAR
STARTCHAR 0021
ENCODING 33
SWIDTH 250 0
DWIDTH 3 0
BBX 1 8 1 0
BITMAP
80
80
80
80
80
00
80
80
ENDCHAR
STARTCHAR 0022
ENCODING 34
SWIDTH 416 0
DWIDTH 5 0
BBX 3 3 1 6
BITMAP
A0
A0
A0
ENDCHAR
STARTCHAR 0023
ENCODING 35
SWIDTH 666 0
DWIDTH 8 0
BBX 6 8 1 0
BITMAP
28
28
FC
28
50
FC
50
50
ENDCHAR
STARTCHAR 0024
ENCODING 36
SWIDTH 583 0
DWIDTH 7 0
BBX 5 12 1 -2
BITMAP
20
20
78
80
80
60
10
08
08
F0
20
20
ENDCHAR
STARTCHAR 0025
ENCODING 37
SWIDTH 833 0
DWIDTH 10 0
BBX 8 8 1 0
BITMAP
62
94
98
68
16
19
29
46
ENDCHAR
STARTCHAR 0026
ENCODING 38
SWIDTH 666 0
DWIDTH 8 0
BBX 6 8 1 0
BITMAP
30
48
48
30
54
8C
8C
74
ENDCHAR
STARTCHAR 0027
ENCODING 39
SWIDTH 250 0
DWIDTH 3 0
BBX 1 3 1 6
BITMAP
80
80
80
ENDCHAR
STARTCHAR 0028
ENCODING 40
SWIDTH 333 0
DWIDTH 4 0
BBX 3 11 1 -2
BITMAP
20
40
40
80
80
80
80
80
40
40
20
ENDCHAR
STARTCHAR 0029
ENCODING 41
SWIDTH 333 0
DWIDTH 4 0
BBX 3 11 0 -2
BITMAP
80
40
40
20
20
20
20
20
40
40
80
ENDCHAR
STARTCHAR 002A
ENCODING 42
SWIDTH 500 0
DWIDTH 6 0
BBX 5 5 0 3
BITMAP
20
A8
70
50
50
ENDCHAR
STARTCHAR 002B
ENCODING 43
SWIDTH 583 0
DWIDTH 7 0
BBX 5 5 1 1
BITMAP
20
20
F8
20
20
ENDCHAR
STARTCHAR 002C
ENCODING 44
SWIDTH 250 0
DWIDTH 3 0
BBX 2 4 0 -2
BITMAP
40
40
40
80
ENDCHAR
STARTCHAR 002D
ENCODING 45
SWIDTH 416 0
DWIDTH 5 0
BBX 3 1 1 3
BITMAP
E0
ENDCHAR
STARTCHAR 002E
ENCODING 46
SWIDTH 250 0
DWIDTH 3 0
BBX 1 2 1 0
BITMAP
80
80
ENDCHAR
STARTCHAR 002F
ENCODING 47
SWIDTH 416 0
DWIDTH 5 0
BBX 5 11 0 -2
BITMAP
08
10
10
10
20
20
20
40
40
40
80
ENDCHAR
STARTCHAR 0030
ENCODING 48
SWIDTH 583 0
DWIDTH 7 0
BBX 5 8 1 0
BITMAP
70
88
88
88
88
88
88
70
ENDCHAR
STARTCHAR 0031
ENCODING 49
SWIDTH 583 0
DWIDTH 7 0
BBX 3 8 1 0
BITMAP
20
60
A0
20
20
20
20
20
ENDCHAR
STARTCHAR 0032
ENCODING 50
SWIDTH 583 0
DWIDTH 7 0
BBX 5 8 1 0
BITMAP
70
88
08
10
20
40
80
F8
ENDCHAR
STARTCHAR 0033
ENCODING 51
SWIDTH 583 0
DWIDTH 7 0
BBX 5 8 1 0
BITMAP
F0
08
08
70
18
08
08
F0
ENDCHAR
STARTCHAR 0034
ENCODING 52
SWIDTH 583 0
DWIDTH 7 0
BBX 5 8 1 0
BITMAP
10
30
50
50
90
F8
10
10
ENDCHAR
STARTCHAR 0035
ENCODING 53
SWIDTH 583 0
DWIDTH 7 0
BBX 5 8 1 0
BITMAP
78
40
40
70
08
08
08
F0
ENDCHAR
STARTCHAR 0036
ENCODING 54
SWIDTH 583 0
DWIDTH 7 0
BBX 5 8 1 0
BITMAP
30
40
80
F0
88
88
88
70
ENDCHAR
STARTCHAR 0037
ENCODING 55
SWIDTH 583 0
DWIDTH 7 0
BBX 5 8 1 0
BITMAP
F8
08
10
20
20
40
40
40
ENDCHAR
STARTCHAR 0038
ENCODING 56
SWIDTH 583 0
DWIDTH 7 0
BBX 5 8 1 0
BITMAP
70
88
88
70
88
88
88
70
ENDCHAR
STARTCHAR 0039
ENCODING 57
SWIDTH 583 0
DWIDTH 7 0
BBX 5 8 1 0
BITMAP
70
88
88
88
78
08
10
60
ENDCHAR
STARTCHAR 003A
ENCODING 58
SWIDTH 250 0
DWIDTH 3 0
BBX 1 7 1 0
BITMAP
80
80
00
00
00
80
80
ENDCHAR
STARTCHAR 003B
ENCODING 59
SWIDTH 250 0
DWIDTH 3 0
BBX 2 9 0 -2
BITMAP
40
40
00
00
00
40
40
40
80
ENDCHAR
STARTCHAR 003C
ENCODING 60
SWIDTH 583 0
DWIDTH 7 0
BBX 5 5 1 1
BITMAP
08
70
80
70
08
ENDCHAR
STARTCHAR 003D
ENCODING 61
SWIDTH 583 0
DWIDTH 7 0
BBX 5 3 1 1
BITMAP
F8
00
F8
ENDCHAR
STARTCHAR 003E
ENCODING 62
SWIDTH 583 0
DWIDTH 7 0
BBX 5 5 1 1
BITMAP
80
70
08
70
80
ENDCHAR
STARTCHAR 003F
ENCODING 63
SWIDTH 416 0
DWIDTH 5 0
BBX 4 8 1 0
BITMAP
E0
10
10
20
40
00
40
40
ENDCHAR
STARTCHAR 0040
ENCODING 64
SWIDTH 916 0
DWIDTH 11 0
BBX 9 9 1 -1
BITMAP
3E00
4100
9C80
A480
A480
A480
9B00
4000
3C00
ENDCHAR
STARTCHAR 0041
ENCODING 65
SWIDTH 583 0
DWIDTH 7 0
BBX 7 8 0 0
BITMAP
10
28
28
28
44
7C
44
82
ENDCHAR
STARTCHAR 0042
ENCODING 66
SWIDTH 666 0
DWIDTH 8 0
BBX 6 8 1 0
BITMAP
F8
84
84
F8
84
84
84
F8
ENDCHAR
STARTCHAR 0043
ENCODING 67
SWIDTH 666 0
DWIDTH 8 0
BBX 6 8 1 0
BITMAP
3C
40
80
80
80
80
40
3C
ENDCHAR
STARTCHAR 0044
ENCODING 68
SWIDTH 750 0
DWIDTH 9 0
BBX 7 8 1 0
BITMAP
F8
84
82
82
82
82
84
F8
ENDCHAR
STARTCHAR 0045
ENCODING 69
SWIDTH 583 0
DWIDTH 7 0
BBX 5 8 1 0
BITMAP
F8
80
80
F0
80
80
80
F8
ENDCHAR
STARTCHAR 0046
ENCODING 70
SWIDTH 500 0
DWIDTH 6 0
BBX 5 8 1 0
BITMAP
F8
80
80
F0
80
80
80
80
ENDCHAR
STARTCHAR 0047
ENCODING 71
SWIDTH 666 0
DWIDTH 8 0
BBX 6 8 1 0
BITMAP
3C
40
80
80
84
84
44
3C
ENDCHAR
STARTCHAR 0048
ENCODING 72
SWIDTH 666 0
DWIDTH 8 0
BBX 6 8 1 0
BITMAP
84
84
84
FC
84
84
84
84
ENDCHAR
STARTCHAR 0049
ENCODING 73
SWIDTH 250 0
DWIDTH 3 0
BBX 1 8 1 0
BITMAP
80
80
80
80
80
80
80
80
ENDCHAR
STARTCHAR 004A
ENCODING 74
SWIDTH 500 0
DWIDTH 6 0
BBX 5 8 0 0
BITMAP
08
08
08
08
08
08
88
70
ENDCHAR
STARTCHAR 004B
ENCODING 75
SWIDTH 666 0
DWIDTH 8 0
BBX 6 8 1 0
BITMAP
84
88
90
A0
C0
B0
88
84
ENDCHAR
STARTCHAR 004C
ENCODING 76
SWIDTH 500 0
DWIDTH 6 0
BBX 5 8 1 0
BITMAP
80
80
80
80
80
80
80
F8
ENDCHAR
STARTCHAR 004D
ENCODING 77
SWIDTH 916 0
DWIDTH 11 0
BBX 9 8 1 0
BITMAP
8080
C180
A280
A280
9480
9480
8880
8080
ENDCHAR
STARTCHAR 004E
ENCODING 78
SWIDTH 750 0
DWIDTH 9 0
BBX 7 8 1 0
BITMAP
82
C2
A2
92
8A
8A
86
82
ENDCHAR
STARTCHAR 004F
ENCODING 79
SWIDTH 750 0
DWIDTH 9 0
BBX 7 8 1 0
BITMAP
38
44
82
82
82
82
44
38
ENDCHAR
STARTCHAR 0050
ENCODING 80
SWIDTH 583 0
DWIDTH 7 0
BBX 6 8 1 0
BITMAP
F8
84
84
84
F8
80
80
80
ENDCHAR
STARTCHAR 0051
ENCODING 81
SWIDTH 750 0
DWIDTH 9 0
BBX 7 10 1 -2
BITMAP
38
44
82
82
82
82
44
38
10
0C
ENDCHAR
STARTCHAR 0052
ENCODING 82
SWIDTH 666 0
DWIDTH 8 0
BBX 7 8 1 0
BITMAP
F8
84
84
84
F8
88
84
82
ENDCHAR
STARTCHAR 0053
ENCODING 83
SWIDTH 500 0
DWIDTH 6 0
BBX 4 8 1 0
BITMAP
70
80
80
60
10
10
10
E0
ENDCHAR
STARTCHAR 0054
ENCODING 84
SWIDTH 583 0
DWIDTH 7 0
BBX 7 8 0 0
BITMAP
FE
10
10
10
10
10
10
10
ENDCHAR
STARTCHAR 0055
ENCODING 85
SWIDTH 666 0
DWIDTH 8 0
BBX 6 8 1 0
BITMAP
84
84
84
84
84
84
84
78
ENDCHAR
STARTCHAR 0056
ENCODING 86
SWIDTH 583 0
DWIDTH 7 0
BBX 7 8 0 0
BITMAP
82
86
44
44
28
28
28
10
ENDCHAR
STARTCHAR 0057
ENCODING 87
SWIDTH 916 0
DWIDTH 11 0
BBX 11 8 0 0
BITMAP
8020
8420
8420
4A40
4A40
5140
5140
2080
ENDCHAR
STARTCHAR 0058
ENCODING 88
SWIDTH 583 0
DWIDTH 7 0
BBX 7 8 0 0
BITMAP
82
44
28
10
10
28
44
82
ENDCHAR
STARTCHAR 0059
ENCODING 89
SWIDTH 583 0
DWIDTH 7 0
BBX 7 8 0 0
BITMAP
82
44
44
28
10
10
10
10
ENDCHAR
STARTCHAR 005A
ENCODING 90
SWIDTH 583 0
DWIDTH 7 0
BBX 5 8 1 0
BITMAP
F8
08
10
20
40
40
80
F8
ENDCHAR
STARTCHAR 005B
ENCODING 91
SWIDTH 333 0
DWIDTH 4 0
BBX 3 11 1 -2
BITMAP
E0
80
80
80
80
80
80
80
80
80
E0
ENDCHAR
STARTCHAR 005C
ENCODING 92
SWIDTH 416 0
DWIDTH 5 0
BBX 5 11 0 -2
BITMAP
80
40
40
40
20
20
20
10
10
10
08
ENDCHAR
STARTCHAR 005D
ENCODING 93
SWIDTH 333 0
DWIDTH 4 0
BBX 3 11 0 -2
BITMAP
E0
20
20
20
20
20
20
20
20
20
E0
ENDCHAR
STARTCHAR 005E
ENCODING 94
SWIDTH 583 0
DWIDTH 7 0
BBX 5 5 1 3
BITMAP
20
50
50
50
88
ENDCHAR
STARTCHAR 005F
ENCODING 95
SWIDTH 500 0
DWIDTH 6 0
BBX 6 1 0 -2
BITMAP
FC
ENDCHAR
STARTCHAR 0060
ENCODING 96
SWIDTH 416 0
DWIDTH 5 0
BBX 2 2 1 7
BITMAP
80
40
ENDCHAR
STARTCHAR 0061
ENCODING 97
SWIDTH 500 0
DWIDTH 6 0
BBX 4 6 1 0
BITMAP
E0
10
70
90
90
70
ENDCHAR
STARTCHAR 0062
ENCODING 98
SWIDTH 583 0
DWIDTH 7 0
BBX 5 9 1 0
BITMAP
80
80
80
F0
88
88
88
88
F0
ENDCHAR
STARTCHAR 0063
ENCODING 99
SWIDTH 583 0
DWIDTH 7 0
BBX 5 6 1 0
BITMAP
78
80
80
80
80
78
ENDCHAR
STARTCHAR 0064
ENCODING 100
SWIDTH 583 0
DWIDTH 7 0
BBX 5 9 1 0
BITMAP
08
08
08
78
88
88
88
88
78
ENDCHAR
STARTCHAR 0065
ENCODING 101
SWIDTH 583 0
DWIDTH 7 0
BBX 5 6 1 0
BITMAP
70
88
F8
80
80
78
ENDCHAR
STARTCHAR 0066
ENCODING 102
SWIDTH 416 0
DWIDTH 5 0
BBX 4 9 1 0
BITMAP
70
80
80
F0
80
80
80
80
80
ENDCHAR
STARTCHAR 0067
ENCODING 103
SWIDTH 583 0
DWIDTH 7 0
BBX 5 8 1 -2
BITMAP
78
88
88
88
88
78
08
F0
ENDCHAR
STARTCHAR 0068
ENCODING 104
SWIDTH 583 0
DWIDTH 7 0
BBX 5 9 1 0
BITMAP
80
80
80
F0
88
88
88
88
88
ENDCHAR
STARTCHAR 0069
ENCODING 105
SWIDTH 250 0
DWIDTH 3 0
BBX 1 9 1 0
BITMAP
80
80
00
80
80
80
80
80
80
ENDCHAR
STARTCHAR 006A
ENCODING 106
SWIDTH 250 0
DWIDTH 3 0
BBX 3 11 -1 -2
BITMAP
20
20
00
20
20
20
20
20
20
20
C0
ENDCHAR
STARTCHAR 006B
ENCODING 107
SWIDTH 500 0
DWIDTH 6 0
BBX 5 9 1 0
BITMAP
80
80
80
90
A0
C0
A0
90
88
ENDCHAR
STARTCHAR 006C
ENCODING 108
SWIDTH 250 0
DWIDTH 3 0
BBX 2 9 1 0
BITMAP
80
80
80
80
80
80
80
80
40
ENDCHAR
STARTCHAR 006D
ENCODING 109
SWIDTH 916 0
DWIDTH 11 0
BBX 9 6 1 0
BITMAP
F700
8880
8880
8880
8880
8880
ENDCHAR
STARTCHAR 006E
ENCODING 110
SWIDTH 583 0
DWIDTH 7 0
BBX 5 6 1 0
BITMAP
F0
88
88
88
88
88
ENDCHAR
STARTCHAR 006F
ENCODING 111
SWIDTH 583 0
DWIDTH 7 0
BBX 5 6 1 0
BITMAP
70
88
88
88
88
70
ENDCHAR
STARTCHAR 0070
ENCODING 112
SWIDTH 583 0
DWIDTH 7 0
BBX 5 8 1 -2
BITMAP
F0
88
88
88
88
F0
80
80
ENDCHAR
STARTCHAR 0071
ENCODING 113
SWIDTH 583 0
DWIDTH 7 0
BBX 5 8 1 -2
BITMAP
78
88
88
88
88
78
08
08
ENDCHAR
STARTCHAR 0072
ENCODING 114
SWIDTH 416 0
DWIDTH 5 0
BBX 4 6 1 0
BITMAP
F0
80
80
80
80
80
ENDCHAR
STARTCHAR 0073
ENCODING 115
SWIDTH 500 0
DWIDTH 6 0
BBX 4 6 1 0
BITMAP
70
80
C0
30
10
E0
ENDCHAR
STARTCHAR 0074
ENCODING 116
SWIDTH 500 0
DWIDTH 6 0
BBX 4 8 1 0
BITMAP
80
80
F0
80
80
80
80
70
ENDCHAR
STARTCHAR 0075
ENCODING 117
SWIDTH 583 0
DWIDTH 7 0
BBX 5 6 1 0
BITMAP
88
88
88
88
88
78
ENDCHAR
STARTCHAR 0076
ENCODING 118
SWIDTH 416 0
DWIDTH 5 0
BBX 5 6 0 0
BITMAP
88
88
50
50
70
20
ENDCHAR
STARTCHAR 0077
ENCODING 119
SWIDTH 750 0
DWIDTH 9 0
BBX 9 6 0 0
BITMAP
8880
8880
5500
5500
5500
2200
ENDCHAR
STARTCHAR 0078
ENCODING 120
SWIDTH 500 0
DWIDTH 6 0
BBX 6 6 0 0
BITMAP
84
48
30
30
48
84
ENDCHAR
STARTCHAR 0079
ENCODING 121
SWIDTH 416 0
DWIDTH 5 0
BBX 5 8 0 -2
BITMAP
88
88
50
50
60
20
20
C0
ENDCHAR
STARTCHAR 007A
ENCODING 122
SWIDTH 500 0
DWIDTH 6 0
BBX 4 6 1 0
BITMAP
F0
10
20
40
80
F0
ENDCHAR
STARTCHAR 007B
ENCODING 123
SWIDTH 333 0
DWIDTH 4 0
BBX 3 11 1 -2
BITMAP
20
40
40
40
40
80
40
40
40
40
20
ENDCHAR
STARTCHAR 007C
ENCODING 124
SWIDTH 250 0
DWIDTH 3 0
BBX 1 11 1 -2
BITMAP
80
80
80
80
80
80
80
80
80
80
80
ENDCHAR
STARTCHAR 007D
ENCODING 125
SWIDTH 333 0
DWIDTH 4 0
BBX 3 11 0 -2
BITMAP
80
40
40
40
40
20
40
40
40
40
80
ENDCHAR
STARTCHAR 007E
ENCODING 126
SWIDTH 583 0
DWIDTH 7 0
BBX 6 2 1 3
BITMAP
64
98
ENDCHAR
STARTCHAR 00A0
ENCODING 160
SWIDTH 250 0
DWIDTH 3 0
BBX 0 0 0 0
BITMAP
ENDCHAR
STARTCHAR 00A1
ENCODING 161
SWIDTH 250 0
DWIDTH 3 0
BBX 1 8 1 -2
BITMAP
80
80
00
80
80
80
80
80
ENDCHAR
STARTCHAR 00A2
ENCODING 162
SWIDTH 583 0
DWIDTH 7 0
BBX 5 10 1 -2
BITMAP
20
20
78
80
80
80
80
78
20
20
ENDCHAR
STARTCHAR 00A3
ENCODING 163
SWIDTH 583 0
DWIDTH 7 0
BBX 5 8 1 0
BITMAP
38
40
40
40
F0
40
40
F8
ENDCHAR
STARTCHAR 00A4
ENCODING 164
SWIDTH 666 0
DWIDTH 8 0
BBX 7 7 0 1
BITMAP
82
7C
44
44
44
7C
82
ENDCHAR
STARTCHAR 00A5
ENCODING 165
SWIDTH 583 0
DWIDTH 7 0
BBX 7 8 0 0
BITMAP
82
44
28
28
7C
10
7C
10
ENDCHAR
STARTCHAR 00A6
ENCODING 166
SWIDTH 250 0
DWIDTH 3 0
BBX 1 11 1 -2
BITMAP
80
80
80
80
80
00
00
80
80
80
80
ENDCHAR
STARTCHAR 00A7
ENCODING 167
SWIDTH 500 0
DWIDTH 6 0
BBX 4 10 1 -1
BITMAP
70
80
80
60
90
90
60
10
10
E0
ENDCHAR
STARTCHAR 00A8
ENCODING 168
SWIDTH 416 0
DWIDTH 5 0
BBX 3 1 1 7
BITMAP
A0
ENDCHAR
STARTCHAR 00A9
ENCODING 169
SWIDTH 833 0
DWIDTH 10 0
BBX 8 8 1 0
BITMAP
3C
42
99
A1
A1
99
42
3C
ENDCHAR
STARTCHAR 00AA
ENCODING 170
SWIDTH 416 0
DWIDTH 5 0
BBX 3 5 1 3
BITMAP
C0
20
60
A0
60
ENDCHAR
STARTCHAR 00AB
ENCODING 171
SWIDTH 500 0
DWIDTH 6 0
BBX 6 5 0 1
BITMAP
24
48
90
48
24
ENDCHAR
STARTCHAR 00AC
ENCODING 172
SWIDTH 583 0
DWIDTH 7 0
BBX 5 4 1 1
BITMAP
F8
08
08
08
ENDCHAR
STARTCHAR 00AD
ENCODING 173
SWIDTH 416 0
DWIDTH 5 0
BBX 3 1 1 3
BITMAP
E0
ENDCHAR
STARTCHAR 00AE
ENCODING 174
SWIDTH 833 0
DWIDTH 10 0
BBX 8 8 1 0
BITMAP
3C
42
B9
A5
B9
A5
42
3C
ENDCHAR
STARTCHAR 00AF
ENCODING 175
SWIDTH 416 0
DWIDTH 5 0
BBX 3 1 1 7
BITMAP
E0
ENDCHAR
STARTCHAR 00B0
ENCODING 176
SWIDTH 333 0
DWIDTH 4 0
BBX 3 4 1 6
BITMAP
40
A0
A0
40
ENDCHAR
STARTCHAR 00B1
ENCODING 177
SWIDTH 583 0
DWIDTH 7 0
BBX 5 7 1 0
BITMAP
20
20
F8
20
20
00
F8
ENDCHAR
STARTCHAR 00B2
ENCODING 178
SWIDTH 333 0
DWIDTH 4 0
BBX 3 5 0 3
BITMAP
C0
20
40
80
E0
ENDCHAR
STARTCHAR 00B3
ENCODING 179
SWIDTH 333 0
DWIDTH 4 0
BBX 3 5 0 3
BITMAP
C0
20
40
20
C0
ENDCHAR
STARTCHAR 00B4
ENCODING 180
SWIDTH 416 0
DWIDTH 5 0
BBX 2 2 2 7
BITMAP
40
80
ENDCHAR
STARTCHAR 00B5
ENCODING 181
SWIDTH 583 0
DWIDTH 7 0
BBX 5 8 1 -2
BITMAP
88
88
88
88
88
F8
80
80
ENDCHAR
STARTCHAR 00B6
ENCODING 182
SWIDTH 666 0
DWIDTH 8 0
BBX 6 10 1 -2
BITMAP
7C
E4
E4
E4
64
24
24
24
24
24
ENDCHAR
STARTCHAR 00B7
ENCODING 183
SWIDTH 250 0
DWIDTH 3 0
BBX 1 2 1 3
BITMAP
80
80
ENDCHAR
STARTCHAR 00B8
ENCODING 184
SWIDTH 416 0
DWIDTH 5 0
BBX 2 2 1 -2
BITMAP
40
C0
ENDCHAR
STARTCHAR 00B9
ENCODING 185
SWIDTH 333 0
DWIDTH 4 0
BBX 2 5 1 3
BITMAP
40
C0
40
40
40
ENDCHAR
STARTCHAR 00BA
ENCODING 186
SWIDTH 416 0
DWIDTH 5 0
BBX 5 4 0 4
BITMAP
70
88
88
70
ENDCHAR
STARTCHAR 00BB
ENCODING 187
SWIDTH 500 0
DWIDTH 6 0
BBX 6 5 -1 1
BITMAP
90
48
24
48
90
ENDCHAR
STARTCHAR 00BC
ENCODING 188
SWIDTH 833 0
DWIDTH 10 0
BBX 9 9 1 -1
BITMAP
4200
C400
4800
4800
5100
1300
2500
4780
0100
ENDCHAR
STARTCHAR 00BD
ENCODING 189
SWIDTH 833 0
DWIDTH 10 0
BBX 8 9 1 -1
BITMAP
42
C4
48
48
56
11
22
44
07
ENDCHAR
STARTCHAR 00BE
ENCODING 190
SWIDTH 833 0
DWIDTH 10 0
BBX 10 9 0 -1
BITMAP
C080
2100
4200
2200
C480
0580
0A80
13C0
0080
ENDCHAR
STARTCHAR 00BF
ENCODING 191
SWIDTH 416 0
DWIDTH 5 0
BBX 4 8 1 -2
BITMAP
20
20
00
20
40
80
80
F0
ENDCHAR
STARTCHAR 00C0
ENCODING 192
SWIDTH 583 0
DWIDTH 7 0
BBX 7 11 0 0
BITMAP
20
10
00
10
28
28
28
44
7C
44
82
ENDCHAR
STARTCHAR 00C1
ENCODING 193
SWIDTH 583 0
DWIDTH 7 0
BBX 7 11 0 0
BITMAP
08
10
00
10
28
28
28
44
7C
44
82
ENDCHAR
STARTCHAR 00C2
ENCODING 194
SWIDTH 583 0
DWIDTH 7 0
BBX 7 11 0 0
BITMAP
10
28
00
10
28
28
28
44
7C
44
82
ENDCHAR
STARTCHAR 00C3
ENCODING 195
SWIDTH 583 0
DWIDTH 7 0
BBX 7 11 0 0
BITMAP
28
50
00
10
28
28
28
44
7C
44
82
ENDCHAR
STARTCHAR 00C4
ENCODING 196
SWIDTH 583 0
DWIDTH 7 0
BBX 7 10 0 0
BITMAP
28
00
10
28
28
28
44
7C
44
82
ENDCHAR
STARTCHAR 00C5
ENCODING 197
SWIDTH 583 0
DWIDTH 7 0
BBX 7 10 0 0
BITMAP
10
28
10
28
28
28
44
7C
44
82
ENDCHAR
STARTCHAR 00C6
ENCODING 198
SWIDTH 916 0
DWIDTH 11 0
BBX 11 8 0 0
BITMAP
03E0
0600
0A00
13C0
2200
3E00
4200
83E0
ENDCHAR
STARTCHAR 00C7
ENCODING 199
SWIDTH 666 0
DWIDTH 8 0
BBX 6 11 1 -3
BITMAP
3C
40
80
80
80
80
40
3C
20
10
20
ENDCHAR
STARTCHAR 00C8
ENCODING 200
SWIDTH 583 0
DWIDTH 7 0
BBX 5 11 1 0
BITMAP
40
20
00
F8
80
80
F0
80
80
80
F8
ENDCHAR
STARTCHAR 00C9
ENCODING 201
SWIDTH 583 0
DWIDTH 7 0
BBX 5 11 1 0
BITMAP
10
20
00
F8
80
80
F0
80
80
80
F8
ENDCHAR
STARTCHAR 00CA
ENCODING 202
SWIDTH 583 0
DWIDTH 7 0
BBX 5 11 1 0
BITMAP
20
50
00
F8
80
80
F0
80
80
80
F8
ENDCHAR
STARTCHAR 00CB
ENCODING 203
SWIDTH 583 0
DWIDTH 7 0
BBX 5 10 1 0
BITMAP
50
00
F8
80
80
F0
80
80
80
F8
ENDCHAR
STARTCHAR 00CC
ENCODING 204
SWIDTH 250 0
DWIDTH 3 0
BBX 2 11 0 0
BITMAP
80
40
00
40
40
40
40
40
40
40
40
ENDCHAR
STARTCHAR 00CD
ENCODING 205
SWIDTH 250 0
DWIDTH 3 0
BBX 2 11 1 0
BITMAP
40
80
00
80
80
80
80
80
80
80
80
ENDCHAR
STARTCHAR 00CE
ENCODING 206
SWIDTH 250 0
DWIDTH 3 0
BBX 3 11 0 0
BITMAP
40
A0
00
40
40
40
40
40
40
40
40
ENDCHAR
STARTCHAR 00CF
ENCODING 207
SWIDTH 250 0
DWIDTH 3 0
BBX 3 10 0 0
BITMAP
A0
00
40
40
40
40
40
40
40
40
ENDCHAR
STARTCHAR 00D0
ENCODING 208
SWIDTH 750 0
DWIDTH 9 0
BBX 8 8 0 0
BITMAP
7C
42
41
F1
41
41
42
7C
ENDCHAR
STARTCHAR 00D1
ENCODING 209
SWIDTH 750 0
DWIDTH 9 0
BBX 7 11 1 0
BITMAP
14
28
00
82
C2
A2
92
8A
8A
86
82
ENDCHAR
STARTCHAR 00D2
ENCODING 210
SWIDTH 750 0
DWIDTH 9 0
BBX 7 11 1 0
BITMAP
20
10
00
38
44
82
82
82
82
44
38
ENDCHAR
STARTCHAR 00D3
ENCODING 211
SWIDTH 750 0
DWIDTH 9 0
BBX 7 11 1 0
BITMAP
08
10
00
38
44
82
82
82
82
44
38
ENDCHAR
STARTCHAR 00D4
ENCODING 212
SWIDTH 750 0
DWIDTH 9 0
BBX 7 11 1 0
BITMAP
10
28
00
38
44
82
82
82
82
44
38
ENDCHAR
STARTCHAR 00D5
ENCODING 213
SWIDTH 750 0
DWIDTH 9 0
BBX 7 11 1 0
BITMAP
14
28
00
38
44
82
82
82
82
44
38
ENDCHAR
STARTCHAR 00D6
ENCODING 214
SWIDTH 750 0
DWIDTH 9 0
BBX 7 10 1 0
BITMAP
28
00
38
44
82
82
82
82
44
38
ENDCHAR
STARTCHAR 00D7
ENCODING 215
SWIDTH 583 0
DWIDTH 7 0
BBX 3 3 2 2
BITMAP
A0
40
A0
ENDCHAR
STARTCHAR 00D8
ENCODING 216
SWIDTH 750 0
DWIDTH 9 0
BBX 7 8 1 0
BITMAP
3A
44
8A
92
92
A2
44
B8
ENDCHAR
STARTCHAR 00D9
ENCODING 217
SWIDTH 666 0
DWIDTH 8 0
BBX 6 11 1 -1
BITMAP
20
10
00
84
84
84
84
84
84
84
78
ENDCHAR
STARTCHAR 00DA
ENCODING 218
SWIDTH 666 0
DWIDTH 8 0
BBX 6 11 1 -1
BITMAP
10
20
00
84
84
84
84
84
84
84
78
ENDCHAR
STARTCHAR 00DB
ENCODING 219
SWIDTH 666 0
DWIDTH 8 0
BBX 6 11 1 -1
BITMAP
20
50
00
84
84
84
84
84
84
84
78
ENDCHAR
STARTCHAR 00DC
ENCODING 220
SWIDTH 666 0
DWIDTH 8 0
BBX 6 10 1 -1
BITMAP
50
00
84
84
84
84
84
84
84
78
ENDCHAR
STARTCHAR 00DD
ENCODING 221
SWIDTH 583 0
DWIDTH 7 0
BBX 7 11 0 0
BITMAP
08
10
00
82
44
44
28
10
10
10
10
ENDCHAR
STARTCHAR 00DE
ENCODING 222
SWIDTH 583 0
DWIDTH 7 0
BBX 5 8 1 0
BITMAP
80
F0
88
88
88
F0
80
80
ENDCHAR
STARTCHAR 00DF
ENCODING 223
SWIDTH 583 0
DWIDTH 7 0
BBX 6 9 1 0
BITMAP
70
88
88
90
A0
98
84
84
B8
ENDCHAR
STARTCHAR 00E0
ENCODING 224
SWIDTH 500 0
DWIDTH 6 0
BBX 4 9 1 0
BITMAP
40
20
00
E0
10
70
90
90
70
ENDCHAR
STARTCHAR 00E1
ENCODING 225
SWIDTH 500 0
DWIDTH 6 0
BBX 4 9 1 0
BITMAP
10
20
00
E0
10
70
90
90
70
ENDCHAR
STARTCHAR 00E2
ENCODING 226
SWIDTH 500 0
DWIDTH 6 0
BBX 4 9 1 0
BITMAP
20
50
00
E0
10
70
90
90
70
ENDCHAR
STARTCHAR 00E3
ENCODING 227
SWIDTH 500 0
DWIDTH 6 0
BBX 4 9 1 0
BITMAP
50
A0
00
E0
10
70
90
90
70
ENDCHAR
STARTCHAR 00E4
ENCODING 228
SWIDTH 500 0
DWIDTH 6 0
BBX 4 8 1 0
BITMAP
50
00
E0
10
70
90
90
70
ENDCHAR
STARTCHAR 00E5
ENCODING 229
SWIDTH 500 0
DWIDTH 6 0
BBX 4 10 1 0
BITMAP
20
50
20
00
E0
10
70
90
90
70
ENDCHAR
STARTCHAR 00E6
ENCODING 230
SWIDTH 833 0
DWIDTH 10 0
BBX 8 6 1 0
BITMAP
6E
11
7F
90
90
6F
ENDCHAR
STARTCHAR 00E7
ENCODING 231
SWIDTH 583 0
DWIDTH 7 0
BBX 5 9 1 -3
BITMAP
78
80
80
80
80
78
20
10
20
ENDCHAR
STARTCHAR 00E8
ENCODING 232
SWIDTH 583 0
DWIDTH 7 0
BBX 5 9 1 0
BITMAP
40
20
00
70
88
F8
80
80
78
ENDCHAR
STARTCHAR 00E9
ENCODING 233
SWIDTH 583 0
DWIDTH 7 0
BBX 5 9 1 0
BITMAP
10
20
00
70
88
F8
80
80
78
ENDCHAR
STARTCHAR 00EA
ENCODING 234
SWIDTH 583 0
DWIDTH 7 0
BBX 5 9 1 0
BITMAP
20
50
00
70
88
F8
80
80
78
ENDCHAR
STARTCHAR 00EB
ENCODING 235
SWIDTH 583 0
DWIDTH 7 0
BBX 5 8 1 0
BITMAP
50
00
70
88
F8
80
80
78
ENDCHAR
STARTCHAR 00EC
ENCODING 236
SWIDTH 250 0
DWIDTH 3 0
BBX 2 9 0 0
BITMAP
80
40
00
40
40
40
40
40
40
ENDCHAR
STARTCHAR 00ED
ENCODING 237
SWIDTH 250 0
DWIDTH 3 0
BBX 2 9 1 0
BITMAP
40
80
00
80
80
80
80
80
80
ENDCHAR
STARTCHAR 00EE
ENCODING 238
SWIDTH 250 0
DWIDTH 3 0
BBX 3 9 0 0
BITMAP
40
A0
00
40
40
40
40
40
40
ENDCHAR
STARTCHAR 00EF
ENCODING 239
SWIDTH 250 0
DWIDTH 3 0
BBX 3 8 0 0
BITMAP
A0
00
40
40
40
40
40
40
ENDCHAR
STARTCHAR 00F0
ENCODING 240
SWIDTH 583 0
DWIDTH 7 0
BBX 6 9 1 0
BITMAP
2C
10
08
78
88
88
88
88
70
ENDCHAR
STARTCHAR 00F1
ENCODING 241
SWIDTH 583 0
DWIDTH 7 0
BBX 5 9 1 0
BITMAP
28
50
00
F0
88
88
88
88
88
ENDCHAR
STARTCHAR 00F2
ENCODING 242
SWIDTH 583 0
DWIDTH 7 0
BBX 5 9 1 0
BITMAP
40
20
00
70
88
88
88
88
70
ENDCHAR
STARTCHAR 00F3
ENCODING 243
SWIDTH 583 0
DWIDTH 7 0
BBX 5 9 1 0
BITMAP
10
20
00
70
88
88
88
88
70
ENDCHAR
STARTCHAR 00F4
ENCODING 244
SWIDTH 583 0
DWIDTH 7 0
BBX 5 9 1 0
BITMAP
20
50
00
70
88
88
88
88
70
ENDCHAR
STARTCHAR 00F5
ENCODING 245
SWIDTH 583 0
DWIDTH 7 0
BBX 5 9 1 0
BITMAP
28
50
00
70
88
88
88
88
70
ENDCHAR
STARTCHAR 00F6
ENCODING 246
SWIDTH 583 0
DWIDTH 7 0
BBX 5 8 1 0
BITMAP
50
00
70
88
88
88
88
70
ENDCHAR
STARTCHAR 00F7
ENCODING 247
SWIDTH 583 0
DWIDTH 7 0
BBX 4 5 2 1
BITMAP
40
00
F0
00
40
ENDCHAR
STARTCHAR 00F8
ENCODING 248
SWIDTH 583 0
DWIDTH 7 0
BBX 5 6 1 0
BITMAP
78
98
A8
A8
C8
F0
ENDCHAR
STARTCHAR 00F9
ENCODING 249
SWIDTH 583 0
DWIDTH 7 0
BBX 5 9 1 0
BITMAP
40
20
00
88
88
88
88
88
78
ENDCHAR
STARTCHAR 00FA
ENCODING 250
SWIDTH 583 0
DWIDTH 7 0
BBX 5 9 1 0
BITMAP
10
20
00
88
88
88
88
88
78
ENDCHAR
STARTCHAR 00FB
ENCODING 251
SWIDTH 583 0
DWIDTH 7 0
BBX 5 9 1 0
BITMAP
20
50
00
88
88
88
88
88
78
ENDCHAR
STARTCHAR 00FC
ENCODING 252
SWIDTH 583 0
DWIDTH 7 0
BBX 5 8 1 0
BITMAP
50
00
88
88
88
88
88
78
ENDCHAR
STARTCHAR 00FD
ENCODING 253
SWIDTH 416 0
DWIDTH 5 0
BBX 5 11 0 -2
BITMAP
10
20
00
88
88
50
50
60
20
20
C0
ENDCHAR
STARTCHAR 00FE
ENCODING 254
SWIDTH 583 0
DWIDTH 7 0
BBX 5 11 1 -2
BITMAP
80
80
80
F0
88
88
88
88
F0
80
80
ENDCHAR
STARTCHAR 00FF
ENCODING 255
SWIDTH 416 0
DWIDTH 5 0
BBX 5 10 0 -2
BITMAP
50
00
88
88
50
50
60
20
20
C0
ENDCHAR
STARTCHAR 0100
ENCODING 256
SWIDTH 583 0
DWIDTH 7 0
BBX 7 11 0 0
BITMAP
38
00
00
10
28
28
28
44
7C
44
82
ENDCHAR
STARTCHAR 0101
ENCODING 257
SWIDTH 500 0
DWIDTH 6 0
BBX 4 8 1 0
BITMAP
70
00
E0
10
70
90
90
70
ENDCHAR
STARTCHAR 0102
ENCODING 258
SWIDTH 583 0
DWIDTH 7 0
BBX 7 11 0 0
BITMAP
48
30
00
10
28
28
28
44
7C
44
82
ENDCHAR
STARTCHAR 0103
ENCODING 259
SWIDTH 500 0
DWIDTH 6 0
BBX 4 9 1 0
BITMAP
90
60
00
E0
10
70
90
90
70
ENDCHAR
STARTCHAR 0104
ENCODING 260
SWIDTH 583 0
DWIDTH 7 0
BBX 7 11 0 -3
BITMAP
10
28
28
28
44
7C
44
82
04
04
02
ENDCHAR
STARTCHAR 0105
ENCODING 261
SWIDTH 500 0
DWIDTH 6 0
BBX 4 8 1 -2
BITMAP
E0
10
70
90
90
F0
20
10
ENDCHAR
STARTCHAR 0106
ENCODING 262
SWIDTH 666 0
DWIDTH 8 0
BBX 6 11 1 0
BITMAP
08
10
00
3C
40
80
80
80
80
40
3C
ENDCHAR
STARTCHAR 0107
ENCODING 263
SWIDTH 583 0
DWIDTH 7 0
BBX 5 9 1 0
BITMAP
10
20
00
78
80
80
80
80
78
ENDCHAR
STARTCHAR 0108
ENCODING 264
SWIDTH 666 0
DWIDTH 8 0
BBX 6 11 1 0
BITMAP
10
28
00
3C
40
80
80
80
80
40
3C
ENDCHAR
STARTCHAR 0109
ENCODING 265
SWIDTH 583 0
DWIDTH 7 0
BBX 5 9 1 0
BITMAP
20
50
00
78
80
80
80
80
78
ENDCHAR
STARTCHAR 010A
ENCODING 266
SWIDTH 666 0
DWIDTH 8 0
BBX 6 10 1 0
BITMAP
10
00
3C
40
80
80
80
80
40
3C
ENDCHAR
STARTCHAR 010B
ENCODING 267
SWIDTH 583 0
DWIDTH 7 0
BBX 5 8 1 0
BITMAP
20
00
78
80
80
80
80
78
ENDCHAR
STARTCHAR 010C
ENCODING 268
SWIDTH 666 0
DWIDTH 8 0
BBX 6 11 1 0
BITMAP
28
10
00
3C
40
80
80
80
80
40
3C
ENDCHAR
STARTCHAR 010D
ENCODING 269
SWIDTH 583 0
DWIDTH 7 0
BBX 5 9 1 0
BITMAP
50
20
00
78
80
80
80
80
78
ENDCHAR
STARTCHAR 010E
ENCODING 270
SWIDTH 750 0
DWIDTH 9 0
BBX 7 11 1 0
BITMAP
28
10
00
F8
84
82
82
82
82
84
F8
ENDCHAR
STARTCHAR 010F
ENCODING 271
SWIDTH 583 0
DWIDTH 7 0
BBX 7 9 1 0
BITMAP
0A
0A
0A
78
88
88
88
88
78
ENDCHAR
STARTCHAR 0110
ENCODING 272
SWIDTH 750 0
DWIDTH 9 0
BBX 8 8 0 0
BITMAP
7C
42
41
F1
41
41
42
7C
ENDCHAR
STARTCHAR 0111
ENCODING 273
SWIDTH 583 0
DWIDTH 7 0
BBX 6 9 1 0
BITMAP
08
3C
08
78
88
88
88
88
78
ENDCHAR
STARTCHAR 0112
ENCODING 274
SWIDTH 583 0
DWIDTH 7 0
BBX 5 11 1 0
BITMAP
70
00
00
F8
80
80
F0
80
80
80
F8
ENDCHAR
STARTCHAR 0113
ENCODING 275
SWIDTH 583 0
DWIDTH 7 0
BBX 5 8 1 0
BITMAP
70
00
70
88
F8
80
80
78
ENDCHAR
STARTCHAR 0114
ENCODING 276
SWIDTH 583 0
DWIDTH 7 0
BBX 5 11 1 0
BITMAP
90
60
00
F8
80
80
F0
80
80
80
F8
ENDCHAR
STARTCHAR 0115
ENCODING 277
SWIDTH 583 0
DWIDTH 7 0
BBX 5 9 1 0
BITMAP
90
60
00
70
88
F8
80
80
78
ENDCHAR
STARTCHAR 0116
ENCODING 278
SWIDTH 583 0
DWIDTH 7 0
BBX 5 10 1 0
BITMAP
20
00
F8
80
80
F0
80
80
80
F8
ENDCHAR
STARTCHAR 0117
ENCODING 279
SWIDTH 583 0
DWIDTH 7 0
BBX 5 8 1 0
BITMAP
20
00
70
88
F8
80
80
78
ENDCHAR
STARTCHAR 0118
ENCODING 280
SWIDTH 583 0
DWIDTH 7 0
BBX 5 11 1 -3
BITMAP
F8
80
80
F0
80
80
80
F8
10
10
08
ENDCHAR
STARTCHAR 0119
ENCODING 281
SWIDTH 583 0
DWIDTH 7 0
BBX 5 8 1 -2
BITMAP
70
88
F8
80
80
78
10
08
ENDCHAR
STARTCHAR 011A
ENCODING 282
SWIDTH 583 0
DWIDTH 7 0
BBX 5 11 1 0
BITMAP
50
20
00
F8
80
80
F0
80
80
80
F8
ENDCHAR
STARTCHAR 011B
ENCODING 283
SWIDTH 583 0
DWIDTH 7 0
BBX 5 10 1 0
BITMAP
50
20
00
00
70
88
F8
80
80
78
ENDCHAR
STARTCHAR 011C
ENCODING 284
SWIDTH 666 0
DWIDTH 8 0
BBX 6 11 1 0
BITMAP
10
28
00
3C
40
80
80
84
84
44
3C
ENDCHAR
STARTCHAR 011D
ENCODING 285
SWIDTH 583 0
DWIDTH 7 0
BBX 5 11 1 -2
BITMAP
20
50
00
78
88
88
88
88
78
08
F0
ENDCHAR
STARTCHAR 011E
ENCODING 286
SWIDTH 666 0
DWIDTH 8 0
BBX 6 11 1 0
BITMAP
24
18
00
3C
40
80
80
84
84
44
3C
ENDCHAR
STARTCHAR 011F
ENCODING 287
SWIDTH 583 0
DWIDTH 7 0
BBX 5 11 1 -2
BITMAP
48
30
00
78
88
88
88
88
78
08
F0
ENDCHAR
STARTCHAR 0120
ENCODING 288
SWIDTH 666 0
DWIDTH 8 0
BBX 6 10 1 0
BITMAP
10
00
3C
40
80
80
84
84
44
3C
ENDCHAR
STARTCHAR 0121
ENCODING 289
SWIDTH 583 0
DWIDTH 7 0
BBX 5 10 1 -2
BITMAP
20
00
78
88
88
88
88
78
08
F0
ENDCHAR
STARTCHAR 0122
ENCODING 290
SWIDTH 666 0
DWIDTH 8 0
BBX 6 11 1 -3
BITMAP
3C
40
80
80
84
84
44
3C
00
10
20
ENDCHAR
STARTCHAR 0123
ENCODING 291
SWIDTH 583 0
DWIDTH 7 0
BBX 5 11 1 -2
BITMAP
10
20
00
78
88
88
88
88
78
08
F0
ENDCHAR
STARTCHAR 0124
ENCODING 292
SWIDTH 666 0
DWIDTH 8 0
BBX 6 11 1 0
BITMAP
20
50
00
84
84
84
FC
84
84
84
84
ENDCHAR
STARTCHAR 0125
ENCODING 293
SWIDTH 583 0
DWIDTH 7 0
BBX 5 12 1 0
BITMAP
40
A0
00
80
80
80
F0
88
88
88
88
88
ENDCHAR
STARTCHAR 0126
ENCODING 294
SWIDTH 750 0
DWIDTH 9 0
BBX 9 8 0 0
BITMAP
4100
FF80
4100
7F00
4100
4100
4100
4100
ENDCHAR
STARTCHAR 0127
ENCODING 295
SWIDTH 583 0
DWIDTH 7 0
BBX 6 9 0 0
BITMAP
40
F0
40
78
44
44
44
44
44
ENDCHAR
STARTCHAR 0128
ENCODING 296
SWIDTH 250 0
DWIDTH 3 0
BBX 4 11 0 0
BITMAP
50
A0
00
40
40
40
40
40
40
40
40
ENDCHAR
STARTCHAR 0129
ENCODING 297
SWIDTH 250 0
DWIDTH 3 0
BBX 4 9 0 0
BITMAP
50
A0
00
40
40
40
40
40
40
ENDCHAR
STARTCHAR 012A
ENCODING 298
SWIDTH 250 0
DWIDTH 3 0
BBX 3 10 0 0
BITMAP
E0
00
40
40
40
40
40
40
40
40
ENDCHAR
STARTCHAR 012B
ENCODING 299
SWIDTH 250 0
DWIDTH 3 0
BBX 3 9 0 0
BITMAP
E0
00
00
40
40
40
40
40
40
ENDCHAR
STARTCHAR 012C
ENCODING 300
SWIDTH 250 0
DWIDTH 3 0
BBX 4 11 -1 0
BITMAP
90
60
00
20
20
20
20
20
20
20
20
ENDCHAR
STARTCHAR 012D
ENCODING 301
SWIDTH 250 0
DWIDTH 3 0
BBX 4 9 -1 0
BITMAP
90
60
00
20
20
20
20
20
20
ENDCHAR
STARTCHAR 012E
ENCODING 302
SWIDTH 250 0
DWIDTH 3 0
BBX 2 10 0 -2
BITMAP
40
40
40
40
40
40
40
40
80
40
ENDCHAR
STARTCHAR 012F
ENCODING 303
SWIDTH 250 0
DWIDTH 3 0
BBX 2 11 0 -2
BITMAP
40
40
00
40
40
40
40
40
40
80
40
ENDCHAR
STARTCHAR 0130
ENCODING 304
SWIDTH 250 0
DWIDTH 3 0
BBX 1 10 1 0
BITMAP
80
00
80
80
80
80
80
80
80
80
ENDCHAR
STARTCHAR 0131
ENCODING 305
SWIDTH 250 0
DWIDTH 3 0
BBX 1 6 1 0
BITMAP
80
80
80
80
80
80
ENDCHAR
STARTCHAR 0132
ENCODING 306
SWIDTH 750 0
DWIDTH 9 0
BBX 7 8 1 0
BITMAP
82
82
82
82
82
82
A2
9C
ENDCHAR
STARTCHAR 0133
ENCODING 307
SWIDTH 500 0
DWIDTH 6 0
BBX 4 11 1 -3
BITMAP
90
90
00
90
90
90
90
90
90
10
60
ENDCHAR
STARTCHAR 0134
ENCODING 308
SWIDTH 500 0
DWIDTH 6 0
BBX 6 11 0 0
BITMAP
08
14
00
08
08
08
08
08
08
88
70
ENDCHAR
STARTCHAR 0135
ENCODING 309
SWIDTH 250 0
DWIDTH 3 0
BBX 4 11 -1 -2
BITMAP
20
50
00
20
20
20
20
20
20
20
C0
ENDCHAR
STARTCHAR 0136
ENCODING 310
SWIDTH 666 0
DWIDTH 8 0
BBX 6 11 1 -3
BITMAP
84
88
90
A0
C0
B0
88
84
00
20
40
ENDCHAR
STARTCHAR 0137
ENCODING 311
SWIDTH 500 0
DWIDTH 6 0
BBX 5 12 1 -3
BITMAP
80
80
80
90
A0
C0
A0
90
88
00
20
40
ENDCHAR
STARTCHAR 0138
ENCODING 312
SWIDTH 500 0
DWIDTH 6 0
BBX 5 6 1 0
BITMAP
90
A0
C0
A0
90
88
ENDCHAR
STARTCHAR 0139
ENCODING 313
SWIDTH 500 0
DWIDTH 6 0
BBX 5 11 1 0
BITMAP
40
80
00
80
80
80
80
80
80
80
F8
ENDCHAR
STARTCHAR 013A
ENCODING 314
SWIDTH 250 0
DWIDTH 3 0
BBX 3 12 1 0
BITMAP
60
40
00
80
80
80
80
80
80
80
80
40
ENDCHAR
STARTCHAR 013B
ENCODING 315
SWIDTH 500 0
DWIDTH 6 0
BBX 5 11 1 -3
BITMAP
80
80
80
80
80
80
80
F8
00
20
40
ENDCHAR
STARTCHAR 013C
ENCODING 316
SWIDTH 250 0
DWIDTH 3 0
BBX 3 12 0 -3
BITMAP
40
40
40
40
40
40
40
40
20
00
40
80
ENDCHAR
STARTCHAR 013D
ENCODING 317
SWIDTH 500 0
DWIDTH 6 0
BBX 5 8 1 0
BITMAP
A0
A0
A0
80
80
80
80
F8
ENDCHAR
STARTCHAR 013E
ENCODING 318
SWIDTH 250 0
DWIDTH 3 0
BBX 4 9 1 0
BITMAP
B0
B0
B0
80
80
80
80
80
40
ENDCHAR
STARTCHAR 013F
ENCODING 319
SWIDTH 500 0
DWIDTH 6 0
BBX 5 8 1 0
BITMAP
80
80
80
80
90
80
80
F8
ENDCHAR
STARTCHAR 0140
ENCODING 320
SWIDTH 333 0
DWIDTH 4 0
BBX 3 9 1 0
BITMAP
80
80
80
80
E0
E0
80
80
40
ENDCHAR
STARTCHAR 0141
ENCODING 321
SWIDTH 500 0
DWIDTH 6 0
BBX 6 8 0 0
BITMAP
40
40
50
60
C0
40
40
7C
ENDCHAR
STARTCHAR 0142
ENCODING 322
SWIDTH 333 0
DWIDTH 4 0
BBX 4 9 0 0
BITMAP
40
40
40
60
C0
40
40
40
30
ENDCHAR
STARTCHAR 0143
ENCODING 323
SWIDTH 750 0
DWIDTH 9 0
BBX 7 11 1 0
BITMAP
08
10
00
82
C2
A2
92
8A
8A
86
82
ENDCHAR
STARTCHAR 0144
ENCODING 324
SWIDTH 583 0
DWIDTH 7 0
BBX 5 9 1 0
BITMAP
10
20
00
F0
88
88
88
88
88
ENDCHAR
STARTCHAR 0145
ENCODING 325
SWIDTH 750 0
DWIDTH 9 0
BBX 7 11 1 -3
BITMAP
82
C2
A2
92
8A
8A
86
82
00
10
20
ENDCHAR
STARTCHAR 0146
ENCODING 326
SWIDTH 583 0
DWIDTH 7 0
BBX 5 9 1 -3
BITMAP
F0
88
88
88
88
88
00
20
40
ENDCHAR
STARTCHAR 0147
ENCODING 327
SWIDTH 750 0
DWIDTH 9 0
BBX 7 11 1 0
BITMAP
28
10
00
82
C2
A2
92
8A
8A
86
82
ENDCHAR
STARTCHAR 0148
ENCODING 328
SWIDTH 583 0
DWIDTH 7 0
BBX 5 9 1 0
BITMAP
50
20
00
F0
88
88
88
88
88
ENDCHAR
STARTCHAR 0149
ENCODING 329
SWIDTH 583 0
DWIDTH 7 0
BBX 7 10 -1 0
BITMAP
40
40
C0
00
3C
22
22
22
22
22
ENDCHAR
STARTCHAR 014A
ENCODING 330
SWIDTH 750 0
DWIDTH 9 0
BBX 7 10 1 -2
BITMAP
82
C2
A2
92
9A
8A
86
82
02
04
ENDCHAR
STARTCHAR 014B
ENCODING 331
SWIDTH 583 0
DWIDTH 7 0
BBX 5 8 1 -2
BITMAP
F0
88
88
88
88
88
08
10
ENDCHAR
STARTCHAR 014C
ENCODING 332
SWIDTH 750 0
DWIDTH 9 0
BBX 7 10 1 0
BITMAP
38
00
38
44
82
82
82
82
44
38
ENDCHAR
STARTCHAR 014D
ENCODING 333
SWIDTH 583 0
DWIDTH 7 0
BBX 5 8 1 0
BITMAP
70
00
70
88
88
88
88
70
ENDCHAR
STARTCHAR 014E
ENCODING 334
SWIDTH 750 0
DWIDTH 9 0
BBX 7 11 1 0
BITMAP
48
30
00
38
44
82
82
82
82
44
38
ENDCHAR
STARTCHAR 014F
ENCODING 335
SWIDTH 583 0
DWIDTH 7 0
BBX 5 9 1 0
BITMAP
90
60
00
70
88
88
88
88
70
ENDCHAR
STARTCHAR 0150
ENCODING 336
SWIDTH 750 0
DWIDTH 9 0
BBX 7 11 1 0
BITMAP
14
28
00
38
44
82
82
82
82
44
38
ENDCHAR
STARTCHAR 0151
ENCODING 337
SWIDTH 583 0
DWIDTH 7 0
BBX 5 9 1 0
BITMAP
28
50
00
70
88
88
88
88
70
ENDCHAR
STARTCHAR 0152
ENCODING 338
SWIDTH 1000 0
DWIDTH 12 0
BBX 11 8 1 0
BITMAP
3FE0
4200
8200
83C0
8200
8200
4200
3FE0
ENDCHAR
STARTCHAR 0153
ENCODING 339
SWIDTH 916 0
DWIDTH 11 0
BBX 9 6 1 0
BITMAP
7700
8880
8F80
8800
8800
7780
ENDCHAR
STARTCHAR 0154
ENCODING 340
SWIDTH 666 0
DWIDTH 8 0
BBX 7 11 1 0
BITMAP
10
20
00
F8
84
84
84
F8
88
84
82
ENDCHAR
STARTCHAR 0155
ENCODING 341
SWIDTH 416 0
DWIDTH 5 0
BBX 4 9 1 0
BITMAP
20
40
00
F0
80
80
80
80
80
ENDCHAR
STARTCHAR 0156
ENCODING 342
SWIDTH 666 0
DWIDTH 8 0
BBX 7 11 1 -3
BITMAP
F8
84
84
84
F8
88
84
82
00
10
20
ENDCHAR
STARTCHAR 0157
ENCODING 343
SWIDTH 416 0
DWIDTH 5 0
BBX 5 9 0 -3
BITMAP
78
40
40
40
40
40
00
40
80
ENDCHAR
STARTCHAR 0158
ENCODING 344
SWIDTH 666 0
DWIDTH 8 0
BBX 7 11 1 0
BITMAP
50
20
00
F8
84
84
84
F8
88
84
82
ENDCHAR
STARTCHAR 0159
ENCODING 345
SWIDTH 416 0
DWIDTH 5 0
BBX 4 9 1 0
BITMAP
50
20
00
F0
80
80
80
80
80
ENDCHAR
STARTCHAR 015A
ENCODING 346
SWIDTH 500 0
DWIDTH 6 0
BBX 4 11 1 0
BITMAP
20
40
00
70
80
80
60
10
10
10
E0
ENDCHAR
STARTCHAR 015B
ENCODING 347
SWIDTH 500 0
DWIDTH 6 0
BBX 4 9 1 0
BITMAP
20
40
00
70
80
C0
30
10
E0
ENDCHAR
STARTCHAR 015C
ENCODING 348
SWIDTH 500 0
DWIDTH 6 0
BBX 4 11 1 0
BITMAP
20
50
00
70
80
80
60
10
10
10
E0
ENDCHAR
STARTCHAR 015D
ENCODING 349
SWIDTH 500 0
DWIDTH 6 0
BBX 4 9 1 0
BITMAP
20
50
00
70
80
C0
30
10
E0
ENDCHAR
STARTCHAR 015E
ENCODING 350
SWIDTH 500 0
DWIDTH 6 0
BBX 4 11 1 -3
BITMAP
70
80
80
60
10
10
10
E0
40
20
40
ENDCHAR
STARTCHAR 015F
ENCODING 351
SWIDTH 416 0
DWIDTH 5 0
BBX 3 9 1 -3
BITMAP
60
80
C0
20
20
C0
80
40
80
ENDCHAR
STARTCHAR 0160
ENCODING 352
SWIDTH 500 0
DWIDTH 6 0
BBX 4 11 1 0
BITMAP
50
20
00
70
80
80
60
10
10
10
E0
ENDCHAR
STARTCHAR 0161
ENCODING 353
SWIDTH 500 0
DWIDTH 6 0
BBX 4 9 1 0
BITMAP
50
20
00
70
80
C0
30
10
E0
ENDCHAR
STARTCHAR 0162
ENCODING 354
SWIDTH 583 0
DWIDTH 7 0
BBX 7 11 0 -3
BITMAP
FE
10
10
10
10
10
10
10
10
10
20
ENDCHAR
STARTCHAR 0163
ENCODING 355
SWIDTH 416 0
DWIDTH 5 0
BBX 4 11 1 -3
BITMAP
80
80
F0
80
80
80
80
70
40
20
40
ENDCHAR
STARTCHAR 0164
ENCODING 356
SWIDTH 583 0
DWIDTH 7 0
BBX 7 11 0 0
BITMAP
28
10
00
FE
10
10
10
10
10
10
10
ENDCHAR
STARTCHAR 0165
ENCODING 357
SWIDTH 500 0
DWIDTH 6 0
BBX 4 9 1 0
BITMAP
20
A0
80
F0
80
80
80
80
70
ENDCHAR
STARTCHAR 0166
ENCODING 358
SWIDTH 583 0
DWIDTH 7 0
BBX 7 8 0 0
BITMAP
FE
10
10
10
7C
10
10
10
ENDCHAR
STARTCHAR 0167
ENCODING 359
SWIDTH 500 0
DWIDTH 6 0
BBX 4 8 1 0
BITMAP
80
80
F0
80
F0
80
80
70
ENDCHAR
STARTCHAR 0168
ENCODING 360
SWIDTH 666 0
DWIDTH 8 0
BBX 6 11 1 -1
BITMAP
28
50
00
84
84
84
84
84
84
84
78
ENDCHAR
STARTCHAR 0169
ENCODING 361
SWIDTH 583 0
DWIDTH 7 0
BBX 5 9 1 0
BITMAP
28
50
00
88
88
88
88
88
78
ENDCHAR
STARTCHAR 016A
ENCODING 362
SWIDTH 666 0
DWIDTH 8 0
BBX 6 11 1 -1
BITMAP
70
00
00
84
84
84
84
84
84
84
78
ENDCHAR
STARTCHAR 016B
ENCODING 363
SWIDTH 583 0
DWIDTH 7 0
BBX 5 9 1 0
BITMAP
70
00
00
88
88
88
88
88
78
ENDCHAR
STARTCHAR 016C
ENCODING 364
SWIDTH 666 0
DWIDTH 8 0
BBX 6 11 1 -1
BITMAP
48
30
00
84
84
84
84
84
84
84
78
ENDCHAR
STARTCHAR 016D
ENCODING 365
SWIDTH 583 0
DWIDTH 7 0
BBX 5 9 1 0
BITMAP
90
60
00
88
88
88
88
88
78
ENDCHAR
STARTCHAR 016E
ENCODING 366
SWIDTH 666 0
DWIDTH 8 0
BBX 6 12 1 -1
BITMAP
20
50
20
00
84
84
84
84
84
84
84
78
ENDCHAR
STARTCHAR 016F
ENCODING 367
SWIDTH 583 0
DWIDTH 7 0
BBX 5 10 1 0
BITMAP
20
50
20
00
88
88
88
88
88
78
ENDCHAR
STARTCHAR 0170
ENCODING 368
SWIDTH 666 0
DWIDTH 8 0
BBX 6 11 1 -1
BITMAP
14
28
00
84
84
84
84
84
84
84
78
ENDCHAR
STARTCHAR 0171
ENCODING 369
SWIDTH 583 0
DWIDTH 7 0
BBX 5 9 1 0
BITMAP
28
50
00
88
88
88
88
88
78
ENDCHAR
STARTCHAR 0172
ENCODING 370
SWIDTH 666 0
DWIDTH 8 0
BBX 6 10 1 -3
BITMAP
84
84
84
84
84
84
8C
70
20
10
ENDCHAR
STARTCHAR 0173
ENCODING 371
SWIDTH 583 0
DWIDTH 7 0
BBX 5 8 1 -2
BITMAP
88
88
88
88
88
78
10
08
ENDCHAR
STARTCHAR 0174
ENCODING 372
SWIDTH 916 0
DWIDTH 11 0
BBX 11 11 0 0
BITMAP
0400
0A00
0000
8020
8420
8420
4A40
4A40
5140
5140
2080
ENDCHAR
STARTCHAR 0175
ENCODING 373
SWIDTH 750 0
DWIDTH 9 0
BBX 9 9 0 0
BITMAP
0800
1400
0000
8880
8880
5500
5500
5500
2200
ENDCHAR
STARTCHAR 0176
ENCODING 374
SWIDTH 583 0
DWIDTH 7 0
BBX 7 11 0 0
BITMAP
10
28
00
82
44
44
28
10
10
10
10
ENDCHAR
STARTCHAR 0177
ENCODING 375
SWIDTH 416 0
DWIDTH 5 0
BBX 5 11 0 -2
BITMAP
20
50
00
88
88
50
50
60
20
20
C0
ENDCHAR
STARTCHAR 0178
ENCODING 376
SWIDTH 583 0
DWIDTH 7 0
BBX 7 10 0 0
BITMAP
28
00
82
44
44
28
10
10
10
10
ENDCHAR
STARTCHAR 0179
ENCODING 377
SWIDTH 583 0
DWIDTH 7 0
BBX 5 11 1 0
BITMAP
10
20
00
F8
08
10
20
40
40
80
F8
ENDCHAR
STARTCHAR 017A
ENCODING 378
SWIDTH 500 0
DWIDTH 6 0
BBX 4 9 1 0
BITMAP
20
40
00
F0
10
20
40
80
F0
ENDCHAR
STARTCHAR 017B
ENCODING 379
SWIDTH 583 0
DWIDTH 7 0
BBX 5 10 1 0
BITMAP
20
00
F8
08
10
20
40
40
80
F8
ENDCHAR
STARTCHAR 017C
ENCODING 380
SWIDTH 500 0
DWIDTH 6 0
BBX 4 8 1 0
BITMAP
40
00
F0
10
20
40
80
F0
ENDCHAR
STARTCHAR 017D
ENCODING 381
SWIDTH 583 0
DWIDTH 7 0
BBX 5 11 1 0
BITMAP
50
20
00
F8
08
10
20
40
40
80
F8
ENDCHAR
STARTCHAR 017E
ENCODING 382
SWIDTH 500 0
DWIDTH 6 0
BBX 4 9 1 0
BITMAP
A0
40
00
F0
10
20
40
80
F0
ENDCHAR
STARTCHAR 017F
ENCODING 383
SWIDTH 250 0
DWIDTH 3 0
BBX 4 9 1 0
BITMAP
70
80
80
80
80
80
80
80
80
ENDCHAR
STARTCHAR 0180
ENCODING 384
SWIDTH 583 0
DWIDTH 7 0
BBX 6 9 0 0
BITMAP
40
F0
40
78
44
44
44
44
78
ENDCHAR
STARTCHAR 0181
ENCODING 385
SWIDTH 750 0
DWIDTH 9 0
BBX 8 8 0 0
BITMAP
7E
A1
A1
3E
21
21
21
3E
ENDCHAR
STARTCHAR 0182
ENCODING 386
SWIDTH 666 0
DWIDTH 8 0
BBX 6 8 1 0
BITMAP
F8
80
80
F8
84
84
84
F8
ENDCHAR
STARTCHAR 0183
ENCODING 387
SWIDTH 583 0
DWIDTH 7 0
BBX 5 9 1 0
BITMAP
F0
80
80
F0
88
88
88
88
F0
ENDCHAR
STARTCHAR 0184
ENCODING 388
SWIDTH 583 0
DWIDTH 7 0
BBX 6 9 0 0
BITMAP
40
C0
40
78
44
44
44
44
78
ENDCHAR
STARTCHAR 0185
ENCODING 389
SWIDTH 583 0
DWIDTH 7 0
BBX 6 8 0 0
BITMAP
40
C0
40
78
44
44
44
78
ENDCHAR
STARTCHAR 0186
ENCODING 390
SWIDTH 583 0
DWIDTH 7 0
BBX 6 8 0 0
BITMAP
F0
08
04
04
04
04
08
F0
ENDCHAR
STARTCHAR 0187
ENCODING 391
SWIDTH 666 0
DWIDTH 8 0
BBX 7 9 1 0
BITMAP
02
3C
40
80
80
80
80
40
3C
ENDCHAR
STARTCHAR 0188
ENCODING 392
SWIDTH 500 0
DWIDTH 6 0
BBX 5 8 1 0
BITMAP
08
10
70
80
80
80
80
70
ENDCHAR
STARTCHAR 0189
ENCODING 393
SWIDTH 750 0
DWIDTH 9 0
BBX 8 8 0 0
BITMAP
7C
42
41
F1
41
41
42
7C
ENDCHAR
STARTCHAR 018A
ENCODING 394
SWIDTH 833 0
DWIDTH 10 0
BBX 9 8 0 0
BITMAP
7E00
A100
A080
2080
2080
2080
2100
3E00
ENDCHAR
STARTCHAR 018B
ENCODING 395
SWIDTH 666 0
DWIDTH 8 0
BBX 6 8 1 0
BITMAP
7C
04
04
7C
84
84
84
7C
ENDCHAR
STARTCHAR 018C
ENCODING 396
SWIDTH 583 0
DWIDTH 7 0
BBX 5 9 1 0
BITMAP
78
08
08
78
88
88
88
88
78
ENDCHAR
STARTCHAR 018D
ENCODING 397
SWIDTH 583 0
DWIDTH 7 0
BBX 5 8 1 -2
BITMAP
70
88
88
88
88
70
10
E0
ENDCHAR
STARTCHAR 018E
ENCODING 398
SWIDTH 583 0
DWIDTH 7 0
BBX 6 8 0 0
BITMAP
7C
04
04
7C
04
04
04
FC
ENDCHAR
STARTCHAR 018F
ENCODING 399
SWIDTH 666 0
DWIDTH 8 0
BBX 6 8 1 0
BITMAP
F0
08
04
04
FC
84
48
78
ENDCHAR
STARTCHAR 0190
ENCODING 400
SWIDTH 583 0
DWIDTH 7 0
BBX 6 8 1 0
BITMAP
7C
80
80
78
80
80
80
7C
ENDCHAR
STARTCHAR 0191
ENCODING 401
SWIDTH 500 0
DWIDTH 6 0
BBX 6 10 0 -2
BITMAP
7C
40
40
7C
40
40
40
40
40
80
ENDCHAR
STARTCHAR 0192
ENCODING 402
SWIDTH 333 0
DWIDTH 4 0
BBX 5 11 -1 -2
BITMAP
18
20
20
38
20
20
20
20
20
20
C0
ENDCHAR
STARTCHAR 0193
ENCODING 403
SWIDTH 666 0
DWIDTH 8 0
BBX 7 9 1 0
BITMAP
02
3C
40
80
80
84
84
44
3C
ENDCHAR
STARTCHAR 0194
ENCODING 404
SWIDTH 666 0
DWIDTH 8 0
BBX 8 10 0 -1
BITMAP
81
42
24
24
18
18
24
24
24
18
ENDCHAR
STARTCHAR 0195
ENCODING 405
SWIDTH 916 0
DWIDTH 11 0
BBX 9 9 1 0
BITMAP
8000
8000
8000
F080
8880
8880
8880
8880
8700
ENDCHAR
STARTCHAR 0196
ENCODING 406
SWIDTH 416 0
DWIDTH 5 0
BBX 4 8 1 0
BITMAP
80
80
80
80
80
80
80
70
ENDCHAR
STARTCHAR 0197
ENCODING 407
SWIDTH 333 0
DWIDTH 4 0
BBX 3 8 0 0
BITMAP
40
40
40
E0
40
40
40
40
ENDCHAR
STARTCHAR 0198
ENCODING 408
SWIDTH 666 0
DWIDTH 8 0
BBX 7 8 1 0
BITMAP
86
98
90
A0
C0
B0
88
84
ENDCHAR
STARTCHAR 0199
ENCODING 409
SWIDTH 500 0
DWIDTH 6 0
BBX 5 9 1 0
BITMAP
E0
80
80
90
A0
C0
A0
90
88
ENDCHAR
STARTCHAR 019A
ENCODING 410
SWIDTH 333 0
DWIDTH 4 0
BBX 4 9 0 0
BITMAP
40
40
40
40
F0
40
40
40
30
ENDCHAR
STARTCHAR 019B
ENCODING 411
SWIDTH 500 0
DWIDTH 6 0
BBX 6 9 0 0
BITMAP
C0
38
60
30
30
48
48
48
84
ENDCHAR
STARTCHAR 019C
ENCODING 412
SWIDTH 916 0
DWIDTH 11 0
BBX 9 8 1 0
BITMAP
8880
8880
8880
8880
8880
8880
8880
7780
ENDCHAR
STARTCHAR 019D
ENCODING 413
SWIDTH 750 0
DWIDTH 9 0
BBX 9 10 -1 -2
BITMAP
2080
3080
2880
2480
2280
2280
2180
2080
2000
C000
ENDCHAR
STARTCHAR 019E
ENCODING 414
SWIDTH 583 0
DWIDTH 7 0
BBX 5 8 1 -2
BITMAP
F0
88
88
88
88
88
08
08
ENDCHAR
STARTCHAR 019F
ENCODING 415
SWIDTH 750 0
DWIDTH 9 0
BBX 7 8 1 0
BITMAP
38
44
82
FE
82
82
44
38
ENDCHAR
STARTCHAR 01A0
ENCODING 416
SWIDTH 750 0
DWIDTH 9 0
BBX 7 9 1 0
BITMAP
02
3A
44
82
82
82
82
44
38
ENDCHAR
STARTCHAR 01A1
ENCODING 417
SWIDTH 583 0
DWIDTH 7 0
BBX 6 7 1 0
BITMAP
04
74
88
88
88
88
70
ENDCHAR
STARTCHAR 01A2
ENCODING 418
SWIDTH 1000 0
DWIDTH 12 0
BBX 10 8 1 0
BITMAP
3B80
4440
8240
8240
8240
8240
4440
3840
ENDCHAR
STARTCHAR 01A3
ENCODING 419
SWIDTH 833 0
DWIDTH 10 0
BBX 8 8 1 -2
BITMAP
76
89
89
89
89
71
01
01
ENDCHAR
STARTCHAR 01A4
ENCODING 420
SWIDTH 666 0
DWIDTH 8 0
BBX 8 8 0 0
BITMAP
7E
A1
A1
23
3E
20
20
20
ENDCHAR
STARTCHAR 01A5
ENCODING 421
SWIDTH 583 0
DWIDTH 7 0
BBX 5 11 1 -2
BITMAP
60
80
80
F0
88
88
88
88
F0
80
80
ENDCHAR
STARTCHAR 01A6
ENCODING 422
SWIDTH 666 0
DWIDTH 8 0
BBX 7 11 1 -1
BITMAP
80
80
F8
84
84
84
F8
88
84
84
02
ENDCHAR
STARTCHAR 01A7
ENCODING 423
SWIDTH 500 0
DWIDTH 6 0
BBX 4 8 1 0
BITMAP
E0
10
10
20
40
80
80
70
ENDCHAR
STARTCHAR 01A8
ENCODING 424
SWIDTH 416 0
DWIDTH 5 0
BBX 4 6 1 0
BITMAP
E0
10
30
C0
80
70
ENDCHAR
STARTCHAR 01A9
ENCODING 425
SWIDTH 583 0
DWIDTH 7 0
BBX 7 8 0 0
BITMAP
FE
40
20
10
20
40
40
FE
ENDCHAR
STARTCHAR 01AA
ENCODING 426
SWIDTH 250 0
DWIDTH 3 0
BBX 5 11 -2 -2
BITMAP
60
90
90
70
10
10
10
10
10
10
08
ENDCHAR
STARTCHAR 01AB
ENCODING 427
SWIDTH 416 0
DWIDTH 5 0
BBX 4 10 1 -2
BITMAP
80
80
F0
80
80
80
80
70
10
20
ENDCHAR
STARTCHAR 01AC
ENCODING 428
SWIDTH 583 0
DWIDTH 7 0
BBX 7 8 0 0
BITMAP
7E
90
90
10
10
10
10
10
ENDCHAR
STARTCHAR 01AD
ENCODING 429
SWIDTH 416 0
DWIDTH 5 0
BBX 4 9 1 0
BITMAP
70
80
80
F0
80
80
80
80
70
ENDCHAR
STARTCHAR 01AE
ENCODING 430
SWIDTH 583 0
DWIDTH 7 0
BBX 7 10 0 -2
BITMAP
FE
10
10
10
10
10
10
10
10
0C
ENDCHAR
STARTCHAR 01AF
ENCODING 431
SWIDTH 750 0
DWIDTH 9 0
BBX 8 10 1 -1
BITMAP
01
01
86
84
84
84
84
84
84
78
ENDCHAR
STARTCHAR 01B0
ENCODING 432
SWIDTH 583 0
DWIDTH 7 0
BBX 7 8 1 0
BITMAP
02
02
8C
88
88
88
88
78
ENDCHAR
STARTCHAR 01B1
ENCODING 433
SWIDTH 750 0
DWIDTH 9 0
BBX 7 8 1 0
BITMAP
EE
44
82
82
82
82
44
38
ENDCHAR
STARTCHAR 01B2
ENCODING 434
SWIDTH 666 0
DWIDTH 8 0
BBX 6 8 1 0
BITMAP
98
8C
84
84
84
84
88
70
ENDCHAR
STARTCHAR 01B3
ENCODING 435
SWIDTH 666 0
DWIDTH 8 0
BBX 8 8 0 0
BITMAP
83
44
44
28
10
10
10
10
ENDCHAR
STARTCHAR 01B4
ENCODING 436
SWIDTH 583 0
DWIDTH 7 0
BBX 6 8 0 -2
BITMAP
8C
88
48
50
50
20
20
C0
ENDCHAR
STARTCHAR 01B5
ENCODING 437
SWIDTH 583 0
DWIDTH 7 0
BBX 5 8 1 0
BITMAP
F8
08
10
F8
20
40
80
F8
ENDCHAR
STARTCHAR 01B6
ENCODING 438
SWIDTH 500 0
DWIDTH 6 0
BBX 4 6 1 0
BITMAP
F0
10
F0
40
80
F0
ENDCHAR
STARTCHAR 01B7
ENCODING 439
SWIDTH 583 0
DWIDTH 7 0
BBX 6 8 0 0
BITMAP
FC
08
10
38
04
04
04
F8
ENDCHAR
STARTCHAR 01B8
ENCODING 440
SWIDTH 583 0
DWIDTH 7 0
BBX 6 8 1 0
BITMAP
FC
40
20
70
80
80
80
7C
ENDCHAR
STARTCHAR 01B9
ENCODING 441
SWIDTH 500 0
DWIDTH 6 0
BBX 5 8 1 -2
BITMAP
F8
40
20
70
80
80
80
78
ENDCHAR
STARTCHAR 01BA
ENCODING 442
SWIDTH 500 0
DWIDTH 6 0
BBX 5 8 0 -2
BITMAP
F8
10
20
30
08
08
70
80
ENDCHAR
STARTCHAR 01BB
ENCODING 443
SWIDTH 583 0
DWIDTH 7 0
BBX 5 8 1 0
BITMAP
70
88
08
10
F8
40
80
F8
ENDCHAR
STARTCHAR 01BC
ENCODING 444
SWIDTH 500 0
DWIDTH 6 0
BBX 5 8 0 0
BITMAP
F8
40
40
70
08
08
08
F0
ENDCHAR
STARTCHAR 01BD
ENCODING 445
SWIDTH 500 0
DWIDTH 6 0
BBX 4 6 1 0
BITMAP
F0
40
60
10
10
E0
ENDCHAR
STARTCHAR 01BE
ENCODING 446
SWIDTH 500 0
DWIDTH 6 0
BBX 5 8 1 0
BITMAP
80
80
F0
80
70
08
08
F0
ENDCHAR
STARTCHAR 01BF
ENCODING 447
SWIDTH 583 0
DWIDTH 7 0
BBX 5 8 1 -2
BITMAP
F0
88
88
88
B0
C0
80
80
ENDCHAR
STARTCHAR 01C0
ENCODING 448
SWIDTH 250 0
DWIDTH 3 0
BBX 1 11 1 -2
BITMAP
80
80
80
80
80
80
80
80
80
80
80
ENDCHAR
STARTCHAR 01C1
ENCODING 449
SWIDTH 500 0
DWIDTH 6 0
BBX 3 11 1 -2
BITMAP
A0
A0
A0
A0
A0
A0
A0
A0
A0
A0
A0
ENDCHAR
STARTCHAR 01C2
ENCODING 450
SWIDTH 583 0
DWIDTH 7 0
BBX 5 11 1 -2
BITMAP
20
20
20
20
F8
20
F8
20
20
20
20
ENDCHAR
STARTCHAR 01C3
ENCODING 451
SWIDTH 250 0
DWIDTH 3 0
BBX 1 8 1 0
BITMAP
80
80
80
80
80
00
80
80
ENDCHAR
STARTCHAR 01C4
ENCODING 452
SWIDTH 1250 0
DWIDTH 15 0
BBX 14 11 1 0
BITMAP
0028
0010
0000
F87C
8404
8208
8210
8220
8220
8440
F87C
ENDCHAR
STARTCHAR 01C5
ENCODING 453
SWIDTH 1166 0
DWIDTH 14 0
BBX 13 9 1 0
BITMAP
0050
F820
8400
8278
8208
8210
8220
8440
F878
ENDCHAR
STARTCHAR 01C6
ENCODING 454
SWIDTH 1083 0
DWIDTH 13 0
BBX 11 9 1 0
BITMAP
08A0
0840
0800
79E0
8820
8840
8880
8900
79E0
ENDCHAR
STARTCHAR 01C7
ENCODING 455
SWIDTH 1000 0
DWIDTH 12 0
BBX 10 8 1 0
BITMAP
8040
8040
8040
8040
8040
8040
8440
FB80
ENDCHAR
STARTCHAR 01C8
ENCODING 456
SWIDTH 750 0
DWIDTH 9 0
BBX 7 11 1 -2
BITMAP
02
82
80
82
82
82
82
82
FA
02
0C
ENDCHAR
STARTCHAR 01C9
ENCODING 457
SWIDTH 500 0
DWIDTH 6 0
BBX 5 11 1 -3
BITMAP
98
98
98
98
98
98
98
98
58
78
70
ENDCHAR
STARTCHAR 01CA
ENCODING 458
SWIDTH 1250 0
DWIDTH 15 0
BBX 13 8 1 0
BITMAP
8208
C208
A208
9208
8A08
8A08
8688
8270
ENDCHAR
STARTCHAR 01CB
ENCODING 459
SWIDTH 1000 0
DWIDTH 12 0
BBX 10 11 1 -3
BITMAP
0040
8240
C200
A240
9240
8A40
8A40
8640
8240
0040
0180
ENDCHAR
STARTCHAR 01CC
ENCODING 460
SWIDTH 833 0
DWIDTH 10 0
BBX 8 11 1 -3
BITMAP
01
01
00
F1
89
89
89
89
89
01
06
ENDCHAR
STARTCHAR 01CD
ENCODING 461
SWIDTH 583 0
DWIDTH 7 0
BBX 7 11 0 0
BITMAP
28
10
00
10
28
28
28
44
7C
44
82
ENDCHAR
STARTCHAR 01CE
ENCODING 462
SWIDTH 500 0
DWIDTH 6 0
BBX 4 9 1 0
BITMAP
50
20
00
E0
10
70
90
90
70
ENDCHAR
STARTCHAR 01CF
ENCODING 463
SWIDTH 250 0
DWIDTH 3 0
BBX 3 11 0 0
BITMAP
A0
40
00
40
40
40
40
40
40
40
40
ENDCHAR
STARTCHAR 01D0
ENCODING 464
SWIDTH 250 0
DWIDTH 3 0
BBX 3 9 0 0
BITMAP
A0
40
00
40
40
40
40
40
40
ENDCHAR
STARTCHAR 01D1
ENCODING 465
SWIDTH 750 0
DWIDTH 9 0
BBX 7 11 1 0
BITMAP
28
10
00
38
44
82
82
82
82
44
38
ENDCHAR
STARTCHAR 01D2
ENCODING 466
SWIDTH 583 0
DWIDTH 7 0
BBX 5 9 1 0
BITMAP
50
20
00
70
88
88
88
88
70
ENDCHAR
STARTCHAR 01D3
ENCODING 467
SWIDTH 666 0
DWIDTH 8 0
BBX 6 11 1 -1
BITMAP
50
20
00
84
84
84
84
84
84
84
78
ENDCHAR
STARTCHAR 01D4
ENCODING 468
SWIDTH 583 0
DWIDTH 7 0
BBX 5 9 1 0
BITMAP
50
20
00
88
88
88
88
88
78
ENDCHAR
STARTCHAR 01D5
ENCODING 469
SWIDTH 666 0
DWIDTH 8 0
BBX 6 12 1 -1
BITMAP
70
00
50
00
84
84
84
84
84
84
84
78
ENDCHAR
STARTCHAR 01D6
ENCODING 470
SWIDTH 583 0
DWIDTH 7 0
BBX 5 10 1 0
BITMAP
70
00
50
00
88
88
88
88
88
78
ENDCHAR
STARTCHAR 01D7
ENCODING 471
SWIDTH 666 0
DWIDTH 8 0
BBX 6 12 1 -1
BITMAP
10
20
88
00
84
84
84
84
84
84
84
78
ENDCHAR
STARTCHAR 01D8
ENCODING 472
SWIDTH 583 0
DWIDTH 7 0
BBX 5 12 1 0
BITMAP
10
20
20
00
50
00
88
88
88
88
88
78
ENDCHAR
STARTCHAR 01D9
ENCODING 473
SWIDTH 666 0
DWIDTH 8 0
BBX 6 14 1 -1
BITMAP
44
38
00
00
44
00
84
84
84
84
84
84
84
78
ENDCHAR
STARTCHAR 01DA
ENCODING 474
SWIDTH 583 0
DWIDTH 7 0
BBX 5 12 1 0
BITMAP
88
70
00
00
88
00
88
88
88
88
88
78
ENDCHAR
STARTCHAR 01DB
ENCODING 475
SWIDTH 666 0
DWIDTH 8 0
BBX 6 12 1 -1
BITMAP
40
20
88
00
84
84
84
84
84
84
84
78
ENDCHAR
STARTCHAR 01DC
ENCODING 476
SWIDTH 583 0
DWIDTH 7 0
BBX 5 12 1 0
BITMAP
40
20
20
00
50
00
88
88
88
88
88
78
ENDCHAR
STARTCHAR 01DD
ENCODING 477
SWIDTH 583 0
DWIDTH 7 0
BBX 5 6 1 0
BITMAP
F0
08
08
F8
88
70
ENDCHAR
STARTCHAR 01DE
ENCODING 478
SWIDTH 583 0
DWIDTH 7 0
BBX 7 12 0 0
BITMAP
38
00
28
00
10
28
28
28
44
7C
44
82
ENDCHAR
STARTCHAR 01DF
ENCODING 479
SWIDTH 500 0
DWIDTH 6 0
BBX 4 10 1 0
BITMAP
70
00
50
00
E0
10
70
90
90
70
ENDCHAR
STARTCHAR 01E0
ENCODING 480
SWIDTH 583 0
DWIDTH 7 0
BBX 7 12 0 0
BITMAP
38
00
10
00
10
28
28
28
44
7C
44
82
ENDCHAR
STARTCHAR 01E1
ENCODING 481
SWIDTH 500 0
DWIDTH 6 0
BBX 4 10 1 0
BITMAP
70
00
20
00
E0
10
70
90
90
70
ENDCHAR
STARTCHAR 01E2
ENCODING 482
SWIDTH 916 0
DWIDTH 11 0
BBX 11 10 0 0
BITMAP
0380
0000
03E0
0600
0A00
13C0
2200
3E00
4200
83E0
ENDCHAR
STARTCHAR 01E3
ENCODING 483
SWIDTH 833 0
DWIDTH 10 0
BBX 8 9 1 0
BITMAP
38
00
00
6E
11
7F
90
90
6F
ENDCHAR
STARTCHAR 01E4
ENCODING 484
SWIDTH 666 0
DWIDTH 8 0
BBX 7 8 1 0
BITMAP
3C
40
80
84
8E
84
44
3C
ENDCHAR
STARTCHAR 01E5
ENCODING 485
SWIDTH 583 0
DWIDTH 7 0
BBX 6 8 1 -2
BITMAP
78
88
9C
88
88
78
08
F0
ENDCHAR
STARTCHAR 01E6
ENCODING 486
SWIDTH 666 0
DWIDTH 8 0
BBX 6 11 1 0
BITMAP
28
10
00
3C
40
80
80
84
84
44
3C
ENDCHAR
STARTCHAR 01E7
ENCODING 487
SWIDTH 583 0
DWIDTH 7 0
BBX 5 11 1 -2
BITMAP
50
20
00
78
88
88
88
88
78
08
F0
ENDCHAR
STARTCHAR 01E8
ENCODING 488
SWIDTH 666 0
DWIDTH 8 0
BBX 6 11 1 0
BITMAP
50
20
00
84
88
90
A0
C0
B0
88
84
ENDCHAR
STARTCHAR 01E9
ENCODING 489
SWIDTH 500 0
DWIDTH 6 0
BBX 5 12 1 0
BITMAP
A0
40
00
80
80
80
90
A0
C0
A0
90
88
ENDCHAR
STARTCHAR 01EA
ENCODING 490
SWIDTH 750 0
DWIDTH 9 0
BBX 7 10 1 -2
BITMAP
38
44
82
82
82
82
44
38
10
08
ENDCHAR
STARTCHAR 01EB
ENCODING 491
SWIDTH 583 0
DWIDTH 7 0
BBX 5 8 1 -2
BITMAP
70
88
88
88
88
70
20
18
ENDCHAR
STARTCHAR 01EC
ENCODING 492
SWIDTH 750 0
DWIDTH 9 0
BBX 7 14 1 -2
BITMAP
38
38
00
00
38
44
82
82
82
82
44
38
10
08
ENDCHAR
STARTCHAR 01ED
ENCODING 493
SWIDTH 583 0
DWIDTH 7 0
BBX 5 11 1 -2
BITMAP
70
00
00
70
88
88
88
88
70
20
18
ENDCHAR
STARTCHAR 01EE
ENCODING 494
SWIDTH 583 0
DWIDTH 7 0
BBX 6 11 0 0
BITMAP
28
10
00
FC
08
10
38
04
04
04
F8
ENDCHAR
STARTCHAR 01EF
ENCODING 495
SWIDTH 500 0
DWIDTH 6 0
BBX 6 11 0 -2
BITMAP
50
20
00
FC
08
10
38
04
04
0C
F8
ENDCHAR
STARTCHAR 01F0
ENCODING 496
SWIDTH 250 0
DWIDTH 3 0
BBX 4 11 -1 -2
BITMAP
50
20
00
20
20
20
20
20
20
20
C0
ENDCHAR
STARTCHAR 01F1
ENCODING 497
SWIDTH 1250 0
DWIDTH 15 0
BBX 14 8 1 0
BITMAP
F87C
8404
8208
8210
8220
8220
8440
F87C
ENDCHAR
STARTCHAR 01F2
ENCODING 498
SWIDTH 1166 0
DWIDTH 14 0
BBX 13 8 1 0
BITMAP
F800
8400
8278
8208
8210
8220
8440
F878
ENDCHAR
STARTCHAR 01F3
ENCODING 499
SWIDTH 1083 0
DWIDTH 13 0
BBX 11 9 1 0
BITMAP
0800
0800
0800
79E0
8820
8840
8880
8900
79E0
ENDCHAR
STARTCHAR 01F4
ENCODING 500
SWIDTH 666 0
DWIDTH 8 0
BBX 6 11 1 0
BITMAP
08
10
00
3C
40
80
80
84
84
44
3C
ENDCHAR
STARTCHAR 01F5
ENCODING 501
SWIDTH 583 0
DWIDTH 7 0
BBX 5 11 1 -2
BITMAP
10
20
00
78
88
88
88
88
78
08
F0
ENDCHAR
STARTCHAR 01F6
ENCODING 502
SWIDTH 1083 0
DWIDTH 13 0
BBX 11 8 1 0
BITMAP
8400
8400
8420
FC20
8420
8420
8420
83C0
ENDCHAR
STARTCHAR 01F7
ENCODING 503
SWIDTH 666 0
DWIDTH 8 0
BBX 6 10 1 -2
BITMAP
F8
84
84
84
84
88
B0
C0
80
80
ENDCHAR
STARTCHAR 01F8
ENCODING 504
SWIDTH 750 0
DWIDTH 9 0
BBX 7 11 1 0
BITMAP
20
10
00
82
C2
A2
92
8A
8A
86
82
ENDCHAR
STARTCHAR 01F9
ENCODING 505
SWIDTH 583 0
DWIDTH 7 0
BBX 5 9 1 0
BITMAP
40
20
00
F0
88
88
88
88
88
ENDCHAR
STARTCHAR 01FA
ENCODING 506
SWIDTH 583 0
DWIDTH 7 0
BBX 7 12 0 0
BITMAP
18
20
10
28
10
28
28
28
44
7C
44
82
ENDCHAR
STARTCHAR 01FB
ENCODING 507
SWIDTH 500 0
DWIDTH 6 0
BBX 4 12 1 0
BITMAP
30
40
20
50
20
00
E0
10
70
90
90
70
ENDCHAR
STARTCHAR 01FC
ENCODING 508
SWIDTH 916 0
DWIDTH 11 0
BBX 11 11 0 0
BITMAP
0100
0200
0000
03E0
0600
0A00
13C0
2200
3E00
4200
83E0
ENDCHAR
STARTCHAR 01FD
ENCODING 509
SWIDTH 833 0
DWIDTH 10 0
BBX 8 9 1 0
BITMAP
08
10
00
6E
11
7F
90
90
6F
ENDCHAR
STARTCHAR 01FE
ENCODING 510
SWIDTH 750 0
DWIDTH 9 0
BBX 7 11 1 0
BITMAP
08
10
00
3A
44
8A
92
92
A2
44
B8
ENDCHAR
STARTCHAR 01FF
ENCODING 511
SWIDTH 583 0
DWIDTH 7 0
BBX 5 9 1 0
BITMAP
10
20
00
78
98
A8
A8
C8
F0
ENDCHAR
STARTCHAR 0200
ENCODING 512
SWIDTH 583 0
DWIDTH 7 0
BBX 7 11 0 0
BITMAP
50
28
00
10
28
28
28
44
7C
44
82
ENDCHAR
STARTCHAR 0201
ENCODING 513
SWIDTH 500 0
DWIDTH 6 0
BBX 4 9 1 0
BITMAP
A0
50
00
E0
10
70
90
90
70
ENDCHAR
STARTCHAR 0202
ENCODING 514
SWIDTH 583 0
DWIDTH 7 0
BBX 7 11 0 0
BITMAP
30
48
00
10
28
28
28
44
7C
44
82
ENDCHAR
STARTCHAR 0203
ENCODING 515
SWIDTH 500 0
DWIDTH 6 0
BBX 4 9 1 0
BITMAP
60
90
00
E0
10
70
90
90
70
ENDCHAR
STARTCHAR 0204
ENCODING 516
SWIDTH 583 0
DWIDTH 7 0
BBX 5 11 1 0
BITMAP
A0
50
00
F8
80
80
F0
80
80
80
F8
ENDCHAR
STARTCHAR 0205
ENCODING 517
SWIDTH 583 0
DWIDTH 7 0
BBX 5 9 1 0
BITMAP
A0
50
00
70
88
F8
80
80
78
ENDCHAR
STARTCHAR 0206
ENCODING 518
SWIDTH 583 0
DWIDTH 7 0
BBX 5 11 1 0
BITMAP
60
90
00
F8
80
80
F0
80
80
80
F8
ENDCHAR
STARTCHAR 0207
ENCODING 519
SWIDTH 583 0
DWIDTH 7 0
BBX 5 9 1 0
BITMAP
60
90
00
70
88
F8
80
80
78
ENDCHAR
STARTCHAR 0208
ENCODING 520
SWIDTH 250 0
DWIDTH 3 0
BBX 4 11 -1 0
BITMAP
A0
50
00
20
20
20
20
20
20
20
20
ENDCHAR
STARTCHAR 0209
ENCODING 521
SWIDTH 250 0
DWIDTH 3 0
BBX 4 9 -1 0
BITMAP
A0
50
00
20
20
20
20
20
20
ENDCHAR
STARTCHAR 020A
ENCODING 522
SWIDTH 250 0
DWIDTH 3 0
BBX 4 11 0 0
BITMAP
60
90
00
40
40
40
40
40
40
40
40
ENDCHAR
STARTCHAR 020B
ENCODING 523
SWIDTH 250 0
DWIDTH 3 0
BBX 4 9 0 0
BITMAP
60
90
00
40
40
40
40
40
40
ENDCHAR
STARTCHAR 020C
ENCODING 524
SWIDTH 750 0
DWIDTH 9 0
BBX 7 11 1 0
BITMAP
50
28
00
38
44
82
82
82
82
44
38
ENDCHAR
STARTCHAR 020D
ENCODING 525
SWIDTH 583 0
DWIDTH 7 0
BBX 5 9 1 0
BITMAP
A0
50
00
70
88
88
88
88
70
ENDCHAR
STARTCHAR 020E
ENCODING 526
SWIDTH 750 0
DWIDTH 9 0
BBX 7 11 1 0
BITMAP
30
48
00
38
44
82
82
82
82
44
38
ENDCHAR
STARTCHAR 020F
ENCODING 527
SWIDTH 583 0
DWIDTH 7 0
BBX 5 9 1 0
BITMAP
60
90
00
70
88
88
88
88
70
ENDCHAR
STARTCHAR 0210
ENCODING 528
SWIDTH 666 0
DWIDTH 8 0
BBX 7 11 1 0
BITMAP
A0
50
00
F8
84
84
84
F8
88
84
82
ENDCHAR
STARTCHAR 0211
ENCODING 529
SWIDTH 416 0
DWIDTH 5 0
BBX 4 9 1 0
BITMAP
A0
50
00
F0
80
80
80
80
80
ENDCHAR
STARTCHAR 0212
ENCODING 530
SWIDTH 666 0
DWIDTH 8 0
BBX 7 11 1 0
BITMAP
30
48
00
F8
84
84
84
F8
88
84
82
ENDCHAR
STARTCHAR 0213
ENCODING 531
SWIDTH 416 0
DWIDTH 5 0
BBX 4 9 1 0
BITMAP
60
90
00
F0
80
80
80
80
80
ENDCHAR
STARTCHAR 0214
ENCODING 532
SWIDTH 666 0
DWIDTH 8 0
BBX 6 11 1 -1
BITMAP
50
28
00
84
84
84
84
84
84
84
78
ENDCHAR
STARTCHAR 0215
ENCODING 533
SWIDTH 583 0
DWIDTH 7 0
BBX 5 9 1 0
BITMAP
A0
50
00
88
88
88
88
88
78
ENDCHAR
STARTCHAR 0216
ENCODING 534
SWIDTH 666 0
DWIDTH 8 0
BBX 6 11 1 -1
BITMAP
30
48
00
84
84
84
84
84
84
84
78
ENDCHAR
STARTCHAR 0217
ENCODING 535
SWIDTH 583 0
DWIDTH 7 0
BBX 5 9 1 0
BITMAP
60
90
00
88
88
88
88
88
78
ENDCHAR
STARTCHAR 0218
ENCODING 536
SWIDTH 500 0
DWIDTH 6 0
BBX 4 11 1 -3
BITMAP
70
80
80
60
10
10
10
E0
00
20
40
ENDCHAR
STARTCHAR 0219
ENCODING 537
SWIDTH 500 0
DWIDTH 6 0
BBX 4 9 1 -3
BITMAP
70
80
C0
30
10
E0
00
20
40
ENDCHAR
STARTCHAR 021A
ENCODING 538
SWIDTH 583 0
DWIDTH 7 0
BBX 7 11 0 -3
BITMAP
FE
10
10
10
10
10
10
10
00
10
20
ENDCHAR
STARTCHAR 021B
ENCODING 539
SWIDTH 500 0
DWIDTH 6 0
BBX 4 11 1 -3
BITMAP
80
80
F0
80
80
80
80
70
00
20
40
ENDCHAR
STARTCHAR 021C
ENCODING 540
SWIDTH 500 0
DWIDTH 6 0
BBX 5 10 0 -2
BITMAP
F0
08
08
08
70
18
08
08
10
E0
ENDCHAR
STARTCHAR 021D
ENCODING 541
SWIDTH 416 0
DWIDTH 5 0
BBX 4 8 0 -2
BITMAP
E0
10
10
60
10
10
10
E0
ENDCHAR
STARTCHAR 021E
ENCODING 542
SWIDTH 666 0
DWIDTH 8 0
BBX 6 11 1 0
BITMAP
50
20
00
84
84
84
FC
84
84
84
84
ENDCHAR
STARTCHAR 021F
ENCODING 543
SWIDTH 583 0
DWIDTH 7 0
BBX 5 12 1 0
BITMAP
A0
40
00
80
80
80
F0
88
88
88
88
88
ENDCHAR
STARTCHAR 0220
ENCODING 544
SWIDTH 666 0
DWIDTH 8 0
BBX 6 10 1 -2
BITMAP
F0
88
84
84
84
84
84
84
04
04
ENDCHAR
STARTCHAR 0221
ENCODING 545
SWIDTH 750 0
DWIDTH 9 0
BBX 8 11 1 -2
BITMAP
08
08
08
78
88
88
88
88
7E
09
16
ENDCHAR
STARTCHAR 0222
ENCODING 546
SWIDTH 666 0
DWIDTH 8 0
BBX 6 8 1 0
BITMAP
48
48
48
70
8C
84
84
78
ENDCHAR
STARTCHAR 0223
ENCODING 547
SWIDTH 583 0
DWIDTH 7 0
BBX 5 9 1 0
BITMAP
88
88
88
70
88
88
88
88
70
ENDCHAR
STARTCHAR 0224
ENCODING 548
SWIDTH 583 0
DWIDTH 7 0
BBX 5 10 1 -2
BITMAP
F8
08
10
20
40
40
80
F8
08
30
ENDCHAR
STARTCHAR 0225
ENCODING 549
SWIDTH 500 0
DWIDTH 6 0
BBX 4 8 1 -2
BITMAP
F0
10
20
40
80
F0
10
60
ENDCHAR
STARTCHAR 0226
ENCODING 550
SWIDTH 583 0
DWIDTH 7 0
BBX 7 10 0 0
BITMAP
10
00
10
28
28
28
44
7C
44
82
ENDCHAR
STARTCHAR 0227
ENCODING 551
SWIDTH 500 0
DWIDTH 6 0
BBX 4 8 1 0
BITMAP
20
00
E0
10
70
90
90
70
ENDCHAR
STARTCHAR 0228
ENCODING 552
SWIDTH 583 0
DWIDTH 7 0
BBX 5 10 1 -2
BITMAP
F8
80
80
F0
80
80
80
F8
20
40
ENDCHAR
STARTCHAR 0229
ENCODING 553
SWIDTH 583 0
DWIDTH 7 0
BBX 5 8 1 -2
BITMAP
70
88
F8
80
80
78
10
20
ENDCHAR
STARTCHAR 022A
ENCODING 554
SWIDTH 750 0
DWIDTH 9 0
BBX 7 12 1 0
BITMAP
38
00
28
00
38
44
82
82
82
82
44
38
ENDCHAR
STARTCHAR 022B
ENCODING 555
SWIDTH 583 0
DWIDTH 7 0
BBX 5 10 1 0
BITMAP
70
00
50
00
70
88
88
88
88
70
ENDCHAR
STARTCHAR 022C
ENCODING 556
SWIDTH 750 0
DWIDTH 9 0
BBX 7 13 1 0
BITMAP
3C
00
14
28
00
38
44
82
82
82
82
44
38
ENDCHAR
STARTCHAR 022D
ENCODING 557
SWIDTH 583 0
DWIDTH 7 0
BBX 5 11 1 0
BITMAP
78
00
28
50
00
70
88
88
88
88
70
ENDCHAR
STARTCHAR 022E
ENCODING 558
SWIDTH 750 0
DWIDTH 9 0
BBX 7 10 1 0
BITMAP
10
00
38
44
82
82
82
82
44
38
ENDCHAR
STARTCHAR 022F
ENCODING 559
SWIDTH 583 0
DWIDTH 7 0
BBX 5 8 1 0
BITMAP
20
00
70
88
88
88
88
70
ENDCHAR
STARTCHAR 0230
ENCODING 560
SWIDTH 750 0
DWIDTH 9 0
BBX 7 12 1 0
BITMAP
38
00
10
00
38
44
82
82
82
82
44
38
ENDCHAR
STARTCHAR 0231
ENCODING 561
SWIDTH 583 0
DWIDTH 7 0
BBX 5 10 1 0
BITMAP
70
00
20
00
70
88
88
88
88
70
ENDCHAR
STARTCHAR 0232
ENCODING 562
SWIDTH 583 0
DWIDTH 7 0
BBX 7 11 0 0
BITMAP
38
00
00
82
44
44
28
10
10
10
10
ENDCHAR
STARTCHAR 0233
ENCODING 563
SWIDTH 416 0
DWIDTH 5 0
BBX 5 11 0 -2
BITMAP
70
00
00
88
88
50
50
60
20
20
C0
ENDCHAR
STARTCHAR 0234
ENCODING 564
SWIDTH 416 0
DWIDTH 5 0
BBX 5 11 0 -2
BITMAP
40
40
40
40
40
40
40
70
48
48
B0
ENDCHAR
STARTCHAR 0235
ENCODING 565
SWIDTH 750 0
DWIDTH 9 0
BBX 8 8 1 -3
BITMAP
F0
88
88
88
8E
89
09
16
ENDCHAR
STARTCHAR 0236
ENCODING 566
SWIDTH 416 0
DWIDTH 5 0
BBX 5 11 0 -2
BITMAP
40
40
40
70
40
40
40
70
48
48
B0
ENDCHAR
STARTCHAR 0237
ENCODING 567
SWIDTH 250 0
DWIDTH 3 0
BBX 3 8 -1 -2
BITMAP
20
20
20
20
20
20
20
C0
ENDCHAR
STARTCHAR 0238
ENCODING 568
SWIDTH 916 0
DWIDTH 11 0
BBX 9 9 1 0
BITMAP
0800
0800
0800
7F00
8880
8880
8880
8880
7F00
ENDCHAR
STARTCHAR 0239
ENCODING 569
SWIDTH 916 0
DWIDTH 11 0
BBX 9 8 1 -2
BITMAP
7F00
8880
8880
8880
8880
7F00
0800
0800
ENDCHAR
STARTCHAR 023A
ENCODING 570
SWIDTH 583 0
DWIDTH 7 0
BBX 7 10 0 -1
BITMAP
04
14
28
28
28
54
7C
54
A2
20
ENDCHAR
STARTCHAR 023B
ENCODING 571
SWIDTH 583 0
DWIDTH 7 0
BBX 6 10 1 -1
BITMAP
04
3C
48
90
90
90
A0
60
3C
40
ENDCHAR
STARTCHAR 023C
ENCODING 572
SWIDTH 500 0
DWIDTH 6 0
BBX 5 8 1 -1
BITMAP
08
78
90
90
A0
A0
78
40
ENDCHAR
STARTCHAR 023D
ENCODING 573
SWIDTH 500 0
DWIDTH 6 0
BBX 6 8 0 0
BITMAP
40
40
40
F0
40
40
40
7C
ENDCHAR
STARTCHAR 023E
ENCODING 574
SWIDTH 583 0
DWIDTH 7 0
BBX 7 10 0 -1
BITMAP
02
FC
14
18
10
10
30
50
50
80
ENDCHAR
STARTCHAR 023F
ENCODING 575
SWIDTH 416 0
DWIDTH 5 0
BBX 3 8 1 -2
BITMAP
60
80
80
60
20
C0
40
20
ENDCHAR
STARTCHAR 0240
ENCODING 576
SWIDTH 500 0
DWIDTH 6 0
BBX 4 8 1 -2
BITMAP
F0
10
20
40
80
C0
20
10
ENDCHAR
STARTCHAR 0241
ENCODING 577
SWIDTH 500 0
DWIDTH 6 0
BBX 6 8 0 0
BITMAP
78
84
04
08
10
20
20
20
ENDCHAR
STARTCHAR 0242
ENCODING 578
SWIDTH 416 0
DWIDTH 5 0
BBX 5 6 0 0
BITMAP
F0
08
10
20
40
40
ENDCHAR
STARTCHAR 0243
ENCODING 579
SWIDTH 666 0
DWIDTH 8 0
BBX 7 8 0 0
BITMAP
7C
42
42
7C
42
E2
42
7C
ENDCHAR
STARTCHAR 0244
ENCODING 580
SWIDTH 666 0
DWIDTH 8 0
BBX 8 8 0 -1
BITMAP
42
42
42
FF
42
42
42
3C
ENDCHAR
STARTCHAR 0245
ENCODING 581
SWIDTH 583 0
DWIDTH 7 0
BBX 7 8 0 0
BITMAP
10
28
28
28
44
44
44
82
ENDCHAR
STARTCHAR 0246
ENCODING 582
SWIDTH 583 0
DWIDTH 7 0
BBX 5 10 1 -1
BITMAP
08
F8
90
90
F0
A0
A0
C0
F8
80
ENDCHAR
STARTCHAR 0247
ENCODING 583
SWIDTH 583 0
DWIDTH 7 0
BBX 5 8 1 -2
BITMAP
10
70
A8
F8
A0
A0
78
40
ENDCHAR
STARTCHAR 0248
ENCODING 584
SWIDTH 500 0
DWIDTH 6 0
BBX 6 8 0 0
BITMAP
08
08
08
3C
08
08
88
70
ENDCHAR
STARTCHAR 0249
ENCODING 585
SWIDTH 250 0
DWIDTH 3 0
BBX 4 11 -1 -2
BITMAP
20
20
00
20
20
70
20
20
20
20
C0
ENDCHAR
STARTCHAR 024A
ENCODING 586
SWIDTH 750 0
DWIDTH 9 0
BBX 9 10 1 -2
BITMAP
3800
4400
8200
8200
8200
8200
4600
3A00
0200
0180
ENDCHAR
STARTCHAR 024B
ENCODING 587
SWIDTH 583 0
DWIDTH 7 0
BBX 7 8 1 -2
BITMAP
78
88
88
88
88
78
08
06
ENDCHAR
STARTCHAR 024C
ENCODING 588
SWIDTH 666 0
DWIDTH 8 0
BBX 8 8 0 0
BITMAP
7C
42
42
42
FC
44
42
41
ENDCHAR
STARTCHAR 024D
ENCODING 589
SWIDTH 416 0
DWIDTH 5 0
BBX 5 6 0 0
BITMAP
78
40
40
F0
40
40
ENDCHAR
STARTCHAR 024E
ENCODING 590
SWIDTH 583 0
DWIDTH 7 0
BBX 7 8 0 0
BITMAP
82
44
FE
28
10
10
10
10
ENDCHAR
STARTCHAR 024F
ENCODING 591
SWIDTH 416 0
DWIDTH 5 0
BBX 5 8 0 -2
BITMAP
88
88
F8
50
50
20
20
C0
ENDCHAR
STARTCHAR 0292
ENCODING 658
SWIDTH 500 0
DWIDTH 6 0
BBX 6 8 0 -2
BITMAP
FC
08
10
38
04
04
0C
F8
ENDCHAR
STARTCHAR 02BC
ENCODING 700
SWIDTH 416 0
DWIDTH 5 0
BBX 2 3 1 6
BITMAP
40
40
C0
ENDCHAR
STARTCHAR 02C6
ENCODING 710
SWIDTH 416 0
DWIDTH 5 0
BBX 3 2 1 7
BITMAP
40
A0
ENDCHAR
STARTCHAR 02C7
ENCODING 711
SWIDTH 416 0
DWIDTH 5 0
BBX 3 2 1 7
BITMAP
A0
40
ENDCHAR
STARTCHAR 02C9
ENCODING 713
SWIDTH 416 0
DWIDTH 5 0
BBX 3 1 1 7
BITMAP
E0
ENDCHAR
STARTCHAR 02D8
ENCODING 728
SWIDTH 416 0
DWIDTH 5 0
BBX 4 2 1 7
BITMAP
90
60
ENDCHAR
STARTCHAR 02D9
ENCODING 729
SWIDTH 416 0
DWIDTH 5 0
BBX 1 1 2 7
BITMAP
80
ENDCHAR
STARTCHAR 02DA
ENCODING 730
SWIDTH 416 0
DWIDTH 5 0
BBX 3 3 1 7
BITMAP
40
A0
40
ENDCHAR
STARTCHAR 02DB
ENCODING 731
SWIDTH 416 0
DWIDTH 5 0
BBX 2 2 1 -2
BITMAP
80
C0
ENDCHAR
STARTCHAR 02DC
ENCODING 732
SWIDTH 416 0
DWIDTH 5 0
BBX 4 2 0 7
BITMAP
50
A0
ENDCHAR
STARTCHAR 02DD
ENCODING 733
SWIDTH 416 0
DWIDTH 5 0
BBX 4 2 0 7
BITMAP
50
A0
ENDCHAR
STARTCHAR 0311
ENCODING 785
SWIDTH 416 0
DWIDTH 5 0
BBX 4 2 1 7
BITMAP
60
90
ENDCHAR
STARTCHAR 0384
ENCODING 900
SWIDTH 416 0
DWIDTH 5 0
BBX 3 2 1 7
BITMAP
60
C0
ENDCHAR
STARTCHAR 0385
ENCODING 901
SWIDTH 416 0
DWIDTH 5 0
BBX 6 3 0 6
BITMAP
10
A4
20
ENDCHAR
STARTCHAR 0386
ENCODING 902
SWIDTH 583 0
DWIDTH 7 0
BBX 7 8 0 0
BITMAP
90
A8
28
28
44
7C
44
82
ENDCHAR
STARTCHAR 0388
ENCODING 904
SWIDTH 666 0
DWIDTH 8 0
BBX 7 8 0 0
BITMAP
BE
A0
20
3C
20
20
20
3E
ENDCHAR
STARTCHAR 0389
ENCODING 905
SWIDTH 750 0
DWIDTH 9 0
BBX 8 8 0 0
BITMAP
A1
A1
21
3F
21
21
21
21
ENDCHAR
STARTCHAR 038A
ENCODING 906
SWIDTH 333 0
DWIDTH 4 0
BBX 3 8 0 0
BITMAP
A0
A0
20
20
20
20
20
20
ENDCHAR
STARTCHAR 038C
ENCODING 908
SWIDTH 833 0
DWIDTH 10 0
BBX 9 8 -1 0
BITMAP
8E00
9100
2080
2080
2080
2080
1100
0E00
ENDCHAR
STARTCHAR 038E
ENCODING 910
SWIDTH 750 0
DWIDTH 9 0
BBX 9 8 0 0
BITMAP
A080
9100
1100
0A00
0400
0400
0400
0400
ENDCHAR
STARTCHAR 038F
ENCODING 911
SWIDTH 833 0
DWIDTH 10 0
BBX 9 8 -1 0
BITMAP
8E00
9100
2080
2080
2080
2080
1100
3B80
ENDCHAR
STARTCHAR 0390
ENCODING 912
SWIDTH 333 0
DWIDTH 4 0
BBX 6 11 -1 0
BITMAP
10
10
A4
A4
00
20
20
20
20
20
10
ENDCHAR
STARTCHAR 0391
ENCODING 913
SWIDTH 583 0
DWIDTH 7 0
BBX 7 8 0 0
BITMAP
10
28
28
28
44
7C
44
82
ENDCHAR
STARTCHAR 0392
ENCODING 914
SWIDTH 666 0
DWIDTH 8 0
BBX 6 8 1 0
BITMAP
F8
84
84
F8
84
84
84
F8
ENDCHAR
STARTCHAR 0393
ENCODING 915
SWIDTH 500 0
DWIDTH 6 0
BBX 5 8 1 0
BITMAP
F8
80
80
80
80
80
80
80
ENDCHAR
STARTCHAR 0394
ENCODING 916
SWIDTH 666 0
DWIDTH 8 0
BBX 7 8 0 0
BITMAP
10
30
28
28
44
44
44
FE
ENDCHAR
STARTCHAR 0395
ENCODING 917
SWIDTH 583 0
DWIDTH 7 0
BBX 5 8 1 0
BITMAP
F8
80
80
F0
80
80
80
F8
ENDCHAR
STARTCHAR 0396
ENCODING 918
SWIDTH 583 0
DWIDTH 7 0
BBX 5 8 1 0
BITMAP
F8
08
10
20
40
40
80
F8
ENDCHAR
STARTCHAR 0397
ENCODING 919
SWIDTH 666 0
DWIDTH 8 0
BBX 6 8 1 0
BITMAP
84
84
84
FC
84
84
84
84
ENDCHAR
STARTCHAR 0398
ENCODING 920
SWIDTH 750 0
DWIDTH 9 0
BBX 7 8 1 0
BITMAP
38
44
82
BA
82
82
44
38
ENDCHAR
STARTCHAR 0399
ENCODING 921
SWIDTH 250 0
DWIDTH 3 0
BBX 1 8 1 0
BITMAP
80
80
80
80
80
80
80
80
ENDCHAR
STARTCHAR 039A
ENCODING 922
SWIDTH 666 0
DWIDTH 8 0
BBX 6 8 1 0
BITMAP
84
88
90
A0
C0
B0
88
84
ENDCHAR
STARTCHAR 039B
ENCODING 923
SWIDTH 583 0
DWIDTH 7 0
BBX 7 8 0 0
BITMAP
10
28
28
28
44
44
44
82
ENDCHAR
STARTCHAR 039C
ENCODING 924
SWIDTH 916 0
DWIDTH 11 0
BBX 9 8 1 0
BITMAP
8080
C180
A280
A280
9480
9480
8880
8080
ENDCHAR
STARTCHAR 039D
ENCODING 925
SWIDTH 750 0
DWIDTH 9 0
BBX 7 8 1 0
BITMAP
82
C2
A2
92
8A
8A
86
82
ENDCHAR
STARTCHAR 039E
ENCODING 926
SWIDTH 583 0
DWIDTH 7 0
BBX 7 8 0 0
BITMAP
FE
00
00
7C
00
00
00
FE
ENDCHAR
STARTCHAR 039F
ENCODING 927
SWIDTH 750 0
DWIDTH 9 0
BBX 7 8 1 0
BITMAP
38
44
82
82
82
82
44
38
ENDCHAR
STARTCHAR 03A0
ENCODING 928
SWIDTH 666 0
DWIDTH 8 0
BBX 6 8 1 0
BITMAP
FC
84
84
84
84
84
84
84
ENDCHAR
STARTCHAR 03A1
ENCODING 929
SWIDTH 583 0
DWIDTH 7 0
BBX 6 8 1 0
BITMAP
F8
84
84
84
F8
80
80
80
ENDCHAR
STARTCHAR 03A3
ENCODING 931
SWIDTH 583 0
DWIDTH 7 0
BBX 7 8 0 0
BITMAP
FE
40
20
10
20
40
40
FE
ENDCHAR
STARTCHAR 03A4
ENCODING 932
SWIDTH 583 0
DWIDTH 7 0
BBX 7 8 0 0
BITMAP
FE
10
10
10
10
10
10
10
ENDCHAR
STARTCHAR 03A5
ENCODING 933
SWIDTH 583 0
DWIDTH 7 0
BBX 7 8 0 0
BITMAP
82
44
44
28
10
10
10
10
ENDCHAR
STARTCHAR 03A6
ENCODING 934
SWIDTH 916 0
DWIDTH 11 0
BBX 9 9 1 0
BITMAP
0800
3E00
4900
8880
8880
8880
4900
3E00
0800
ENDCHAR
STARTCHAR 03A7
ENCODING 935
SWIDTH 583 0
DWIDTH 7 0
BBX 7 8 0 0
BITMAP
82
44
28
10
10
28
44
82
ENDCHAR
STARTCHAR 03A8
ENCODING 936
SWIDTH 750 0
DWIDTH 9 0
BBX 7 8 1 0
BITMAP
92
92
92
92
92
7C
10
10
ENDCHAR
STARTCHAR 03A9
ENCODING 937
SWIDTH 750 0
DWIDTH 9 0
BBX 7 8 1 0
BITMAP
38
44
82
82
82
82
44
EE
ENDCHAR
STARTCHAR 03AA
ENCODING 938
SWIDTH 250 0
DWIDTH 3 0
BBX 3 10 0 0
BITMAP
A0
00
40
40
40
40
40
40
40
40
ENDCHAR
STARTCHAR 03AB
ENCODING 939
SWIDTH 583 0
DWIDTH 7 0
BBX 7 10 0 0
BITMAP
28
00
82
44
44
28
10
10
10
10
ENDCHAR
STARTCHAR 03AC
ENCODING 940
SWIDTH 583 0
DWIDTH 7 0
BBX 6 9 1 0
BITMAP
30
60
00
78
88
88
88
88
74
ENDCHAR
STARTCHAR 03AD
ENCODING 941
SWIDTH 500 0
DWIDTH 6 0
BBX 5 9 1 0
BITMAP
30
60
00
78
80
60
80
80
78
ENDCHAR
STARTCHAR 03AE
ENCODING 942
SWIDTH 583 0
DWIDTH 7 0
BBX 5 11 1 -2
BITMAP
30
60
00
F0
88
88
88
88
88
08
08
ENDCHAR
STARTCHAR 03AF
ENCODING 943
SWIDTH 333 0
DWIDTH 4 0
BBX 3 9 0 0
BITMAP
60
C0
00
40
40
40
40
40
20
ENDCHAR
STARTCHAR 03B0
ENCODING 944
SWIDTH 583 0
DWIDTH 7 0
BBX 6 11 0 0
BITMAP
10
10
A4
A4
00
44
44
44
44
44
38
ENDCHAR
STARTCHAR 03B1
ENCODING 945
SWIDTH 583 0
DWIDTH 7 0
BBX 6 6 1 0
BITMAP
78
88
88
88
88
74
ENDCHAR
STARTCHAR 03B2
ENCODING 946
SWIDTH 583 0
DWIDTH 7 0
BBX 5 11 1 -2
BITMAP
60
90
90
A0
90
88
88
88
F0
80
80
ENDCHAR
STARTCHAR 03B3
ENCODING 947
SWIDTH 500 0
DWIDTH 6 0
BBX 6 8 0 -2
BITMAP
84
48
48
48
50
20
20
20
ENDCHAR
STARTCHAR 03B4
ENCODING 948
SWIDTH 583 0
DWIDTH 7 0
BBX 5 9 1 0
BITMAP
30
40
40
70
88
88
88
88
70
ENDCHAR
STARTCHAR 03B5
ENCODING 949
SWIDTH 500 0
DWIDTH 6 0
BBX 5 6 1 0
BITMAP
78
80
60
80
80
78
ENDCHAR
STARTCHAR 03B6
ENCODING 950
SWIDTH 416 0
DWIDTH 5 0
BBX 4 11 1 -2
BITMAP
F0
10
20
40
80
80
80
80
60
10
10
ENDCHAR
STARTCHAR 03B7
ENCODING 951
SWIDTH 583 0
DWIDTH 7 0
BBX 5 8 1 -2
BITMAP
F0
88
88
88
88
88
08
08
ENDCHAR
STARTCHAR 03B8
ENCODING 952
SWIDTH 583 0
DWIDTH 7 0
BBX 5 9 1 0
BITMAP
70
88
88
88
F8
88
88
88
70
ENDCHAR
STARTCHAR 03B9
ENCODING 953
SWIDTH 333 0
DWIDTH 4 0
BBX 2 6 1 0
BITMAP
80
80
80
80
80
40
ENDCHAR
STARTCHAR 03BA
ENCODING 954
SWIDTH 500 0
DWIDTH 6 0
BBX 5 6 1 0
BITMAP
90
A0
C0
A0
90
88
ENDCHAR
STARTCHAR 03BB
ENCODING 955
SWIDTH 500 0
DWIDTH 6 0
BBX 6 9 0 0
BITMAP
C0
20
20
10
30
28
48
44
84
ENDCHAR
STARTCHAR 03BC
ENCODING 956
SWIDTH 583 0
DWIDTH 7 0
BBX 5 8 1 -2
BITMAP
88
88
88
88
88
F8
80
80
ENDCHAR
STARTCHAR 03BD
ENCODING 957
SWIDTH 416 0
DWIDTH 5 0
BBX 5 6 0 0
BITMAP
88
88
50
50
70
20
ENDCHAR
STARTCHAR 03BE
ENCODING 958
SWIDTH 500 0
DWIDTH 6 0
BBX 5 11 1 -2
BITMAP
78
80
80
80
70
80
80
80
70
08
08
ENDCHAR
STARTCHAR 03BF
ENCODING 959
SWIDTH 583 0
DWIDTH 7 0
BBX 5 6 1 0
BITMAP
70
88
88
88
88
70
ENDCHAR
STARTCHAR 03C0
ENCODING 960
SWIDTH 583 0
DWIDTH 7 0
BBX 5 6 1 0
BITMAP
F8
88
88
88
88
88
ENDCHAR
STARTCHAR 03C1
ENCODING 961
SWIDTH 583 0
DWIDTH 7 0
BBX 5 8 1 -2
BITMAP
70
88
88
88
88
F0
80
80
ENDCHAR
STARTCHAR 03C2
ENCODING 962
SWIDTH 416 0
DWIDTH 5 0
BBX 4 8 1 -2
BITMAP
70
80
80
80
80
60
10
10
ENDCHAR
STARTCHAR 03C3
ENCODING 963
SWIDTH 583 0
DWIDTH 7 0
BBX 6 6 1 0
BITMAP
7C
90
88
88
88
70
ENDCHAR
STARTCHAR 03C4
ENCODING 964
SWIDTH 416 0
DWIDTH 5 0
BBX 5 6 0 0
BITMAP
F8
20
20
20
20
18
ENDCHAR
STARTCHAR 03C5
ENCODING 965
SWIDTH 583 0
DWIDTH 7 0
BBX 5 6 1 0
BITMAP
88
88
88
88
88
70
ENDCHAR
STARTCHAR 03C6
ENCODING 966
SWIDTH 750 0
DWIDTH 9 0
BBX 7 8 1 -2
BITMAP
7C
D2
92
92
92
7C
10
10
ENDCHAR
STARTCHAR 03C7
ENCODING 967
SWIDTH 500 0
DWIDTH 6 0
BBX 6 6 0 0
BITMAP
84
48
30
30
48
84
ENDCHAR
STARTCHAR 03C8
ENCODING 968
SWIDTH 750 0
DWIDTH 9 0
BBX 7 8 1 -2
BITMAP
92
92
92
92
92
7C
10
10
ENDCHAR
STARTCHAR 03C9
ENCODING 969
SWIDTH 916 0
DWIDTH 11 0
BBX 9 6 1 0
BITMAP
4100
8880
8880
8880
8880
7700
ENDCHAR
STARTCHAR 03CA
ENCODING 970
SWIDTH 333 0
DWIDTH 4 0
BBX 3 8 0 0
BITMAP
A0
00
40
40
40
40
40
20
ENDCHAR
STARTCHAR 03CB
ENCODING 971
SWIDTH 583 0
DWIDTH 7 0
BBX 5 8 1 0
BITMAP
50
00
88
88
88
88
88
70
ENDCHAR
STARTCHAR 03CC
ENCODING 972
SWIDTH 583 0
DWIDTH 7 0
BBX 5 9 1 0
BITMAP
30
60
00
70
88
88
88
88
70
ENDCHAR
STARTCHAR 03CD
ENCODING 973
SWIDTH 583 0
DWIDTH 7 0
BBX 5 9 1 0
BITMAP
30
60
00
88
88
88
88
88
70
ENDCHAR
STARTCHAR 03CE
ENCODING 974
SWIDTH 916 0
DWIDTH 11 0
BBX 9 9 1 0
BITMAP
0C00
1800
0000
4100
8880
8880
8880
8880
7700
ENDCHAR
STARTCHAR 0400
ENCODING 1024
SWIDTH 583 0
DWIDTH 7 0
BBX 5 11 1 0
BITMAP
40
20
00
F8
80
80
F0
80
80
80
F8
ENDCHAR
STARTCHAR 0401
ENCODING 1025
SWIDTH 583 0
DWIDTH 7 0
BBX 5 10 1 0
BITMAP
50
00
F8
80
80
F0
80
80
80
F8
ENDCHAR
STARTCHAR 0402
ENCODING 1026
SWIDTH 750 0
DWIDTH 9 0
BBX 8 8 0 0
BITMAP
FC
10
10
1E
11
11
11
16
ENDCHAR
STARTCHAR 0403
ENCODING 1027
SWIDTH 500 0
DWIDTH 6 0
BBX 5 11 1 0
BITMAP
10
20
00
F8
80
80
80
80
80
80
80
ENDCHAR
STARTCHAR 0404
ENCODING 1028
SWIDTH 583 0
DWIDTH 7 0
BBX 6 8 1 0
BITMAP
3C
40
80
F8
80
80
40
3C
ENDCHAR
STARTCHAR 0405
ENCODING 1029
SWIDTH 500 0
DWIDTH 6 0
BBX 4 8 1 0
BITMAP
70
80
80
60
10
10
10
E0
ENDCHAR
STARTCHAR 0406
ENCODING 1030
SWIDTH 250 0
DWIDTH 3 0
BBX 1 8 1 0
BITMAP
80
80
80
80
80
80
80
80
ENDCHAR
STARTCHAR 0407
ENCODING 1031
SWIDTH 250 0
DWIDTH 3 0
BBX 3 10 0 0
BITMAP
A0
00
40
40
40
40
40
40
40
40
ENDCHAR
STARTCHAR 0408
ENCODING 1032
SWIDTH 500 0
DWIDTH 6 0
BBX 5 8 0 0
BITMAP
08
08
08
08
08
08
88
70
ENDCHAR
STARTCHAR 0409
ENCODING 1033
SWIDTH 1083 0
DWIDTH 13 0
BBX 12 8 0 -1
BITMAP
1F00
1100
1100
11E0
1110
2110
2110
C1E0
ENDCHAR
STARTCHAR 040A
ENCODING 1034
SWIDTH 1000 0
DWIDTH 12 0
BBX 10 8 1 0
BITMAP
8400
8400
8400
FF80
8440
8440
8440
8780
ENDCHAR
STARTCHAR 040B
ENCODING 1035
SWIDTH 750 0
DWIDTH 9 0
BBX 8 8 0 0
BITMAP
FE
10
10
1E
11
11
11
11
ENDCHAR
STARTCHAR 040C
ENCODING 1036
SWIDTH 666 0
DWIDTH 8 0
BBX 6 11 1 0
BITMAP
10
20
00
84
88
90
A0
C0
B0
88
84
ENDCHAR
STARTCHAR 040D
ENCODING 1037
SWIDTH 750 0
DWIDTH 9 0
BBX 7 11 1 0
BITMAP
20
10
00
82
86
8A
8A
92
A2
C2
82
ENDCHAR
STARTCHAR 040E
ENCODING 1038
SWIDTH 583 0
DWIDTH 7 0
BBX 7 11 0 0
BITMAP
24
18
00
82
44
44
28
28
10
30
E0
ENDCHAR
STARTCHAR 040F
ENCODING 1039
SWIDTH 666 0
DWIDTH 8 0
BBX 6 10 1 -2
BITMAP
84
84
84
84
84
84
84
FC
20
20
ENDCHAR
STARTCHAR 0410
ENCODING 1040
SWIDTH 583 0
DWIDTH 7 0
BBX 7 8 0 0
BITMAP
10
28
28
28
44
7C
44
82
ENDCHAR
STARTCHAR 0411
ENCODING 1041
SWIDTH 666 0
DWIDTH 8 0
BBX 6 8 1 0
BITMAP
F8
80
80
F8
84
84
84
F8
ENDCHAR
STARTCHAR 0412
ENCODING 1042
SWIDTH 666 0
DWIDTH 8 0
BBX 6 8 1 0
BITMAP
F8
84
84
F8
84
84
84
F8
ENDCHAR
STARTCHAR 0413
ENCODING 1043
SWIDTH 500 0
DWIDTH 6 0
BBX 5 8 1 0
BITMAP
F8
80
80
80
80
80
80
80
ENDCHAR
STARTCHAR 0414
ENCODING 1044
SWIDTH 750 0
DWIDTH 9 0
BBX 9 10 0 -2
BITMAP
1E00
1200
1200
1200
1200
2200
2200
FF80
8080
8080
ENDCHAR
STARTCHAR 0415
ENCODING 1045
SWIDTH 583 0
DWIDTH 7 0
BBX 5 8 1 0
BITMAP
F8
80
80
F0
80
80
80
F8
ENDCHAR
STARTCHAR 0416
ENCODING 1046
SWIDTH 916 0
DWIDTH 11 0
BBX 11 8 0 0
BITMAP
4440
2480
1500
0E00
1500
2480
4440
8420
ENDCHAR
STARTCHAR 0417
ENCODING 1047
SWIDTH 583 0
DWIDTH 7 0
BBX 6 8 0 0
BITMAP
F8
04
04
38
04
04
04
F8
ENDCHAR
STARTCHAR 0418
ENCODING 1048
SWIDTH 750 0
DWIDTH 9 0
BBX 7 8 1 0
BITMAP
82
86
8A
8A
92
A2
C2
82
ENDCHAR
STARTCHAR 0419
ENCODING 1049
SWIDTH 750 0
DWIDTH 9 0
BBX 7 11 1 0
BITMAP
48
30
00
82
86
8A
8A
92
A2
C2
82
ENDCHAR
STARTCHAR 041A
ENCODING 1050
SWIDTH 666 0
DWIDTH 8 0
BBX 6 8 1 0
BITMAP
84
88
90
A0
C0
B0
88
84
ENDCHAR
STARTCHAR 041B
ENCODING 1051
SWIDTH 666 0
DWIDTH 8 0
BBX 7 8 0 0
BITMAP
1E
12
12
12
12
22
22
C2
ENDCHAR
STARTCHAR 041C
ENCODING 1052
SWIDTH 916 0
DWIDTH 11 0
BBX 9 8 1 0
BITMAP
8080
C180
A280
A280
9480
9480
8880
8080
ENDCHAR
STARTCHAR 041D
ENCODING 1053
SWIDTH 666 0
DWIDTH 8 0
BBX 6 8 1 0
BITMAP
84
84
84
FC
84
84
84
84
ENDCHAR
STARTCHAR 041E
ENCODING 1054
SWIDTH 750 0
DWIDTH 9 0
BBX 7 8 1 0
BITMAP
38
44
82
82
82
82
44
38
ENDCHAR
STARTCHAR 041F
ENCODING 1055
SWIDTH 666 0
DWIDTH 8 0
BBX 6 8 1 0
BITMAP
FC
84
84
84
84
84
84
84
ENDCHAR
STARTCHAR 0420
ENCODING 1056
SWIDTH 583 0
DWIDTH 7 0
BBX 6 8 1 0
BITMAP
F8
84
84
84
F8
80
80
80
ENDCHAR
STARTCHAR 0421
ENCODING 1057
SWIDTH 666 0
DWIDTH 8 0
BBX 6 8 1 0
BITMAP
3C
40
80
80
80
80
40
3C
ENDCHAR
STARTCHAR 0422
ENCODING 1058
SWIDTH 583 0
DWIDTH 7 0
BBX 7 8 0 0
BITMAP
FE
10
10
10
10
10
10
10
ENDCHAR
STARTCHAR 0423
ENCODING 1059
SWIDTH 583 0
DWIDTH 7 0
BBX 7 8 0 0
BITMAP
82
44
44
28
28
10
30
E0
ENDCHAR
STARTCHAR 0424
ENCODING 1060
SWIDTH 916 0
DWIDTH 11 0
BBX 9 9 1 0
BITMAP
0800
3E00
4900
8880
8880
8880
4900
3E00
0800
ENDCHAR
STARTCHAR 0425
ENCODING 1061
SWIDTH 583 0
DWIDTH 7 0
BBX 7 8 0 0
BITMAP
82
44
28
10
10
28
44
82
ENDCHAR
STARTCHAR 0426
ENCODING 1062
SWIDTH 750 0
DWIDTH 9 0
BBX 7 10 1 -2
BITMAP
84
84
84
84
84
84
84
FE
02
02
ENDCHAR
STARTCHAR 0427
ENCODING 1063
SWIDTH 666 0
DWIDTH 8 0
BBX 6 8 1 0
BITMAP
84
84
84
84
7C
04
04
04
ENDCHAR
STARTCHAR 0428
ENCODING 1064
SWIDTH 916 0
DWIDTH 11 0
BBX 9 8 1 0
BITMAP
8880
8880
8880
8880
8880
8880
8880
FF80
ENDCHAR
STARTCHAR 0429
ENCODING 1065
SWIDTH 916 0
DWIDTH 11 0
BBX 10 10 1 -2
BITMAP
8880
8880
8880
8880
8880
8880
8880
FFC0
0040
0040
ENDCHAR
STARTCHAR 042A
ENCODING 1066
SWIDTH 750 0
DWIDTH 9 0
BBX 8 8 0 0
BITMAP
E0
20
20
3E
21
21
21
3E
ENDCHAR
STARTCHAR 042B
ENCODING 1067
SWIDTH 833 0
DWIDTH 10 0
BBX 8 8 1 0
BITMAP
81
81
81
F1
89
89
89
F1
ENDCHAR
STARTCHAR 042C
ENCODING 1068
SWIDTH 583 0
DWIDTH 7 0
BBX 5 8 1 0
BITMAP
80
80
80
F0
88
88
88
F0
ENDCHAR
STARTCHAR 042D
ENCODING 1069
SWIDTH 583 0
DWIDTH 7 0
BBX 6 8 0 0
BITMAP
F0
08
04
7C
04
04
08
F0
ENDCHAR
STARTCHAR 042E
ENCODING 1070
SWIDTH 1000 0
DWIDTH 12 0
BBX 10 8 1 0
BITMAP
8700
8880
9040
F040
9040
9040
8880
8700
ENDCHAR
STARTCHAR 042F
ENCODING 1071
SWIDTH 666 0
DWIDTH 8 0
BBX 7 8 0 0
BITMAP
3E
42
42
42
3E
22
42
82
ENDCHAR
STARTCHAR 0430
ENCODING 1072
SWIDTH 500 0
DWIDTH 6 0
BBX 4 6 1 0
BITMAP
E0
10
70
90
90
70
ENDCHAR
STARTCHAR 0431
ENCODING 1073
SWIDTH 583 0
DWIDTH 7 0
BBX 5 9 1 0
BITMAP
38
40
80
F0
88
88
88
88
70
ENDCHAR
STARTCHAR 0432
ENCODING 1074
SWIDTH 583 0
DWIDTH 7 0
BBX 5 6 1 0
BITMAP
F0
88
F0
88
88
F0
ENDCHAR
STARTCHAR 0433
ENCODING 1075
SWIDTH 416 0
DWIDTH 5 0
BBX 4 6 1 0
BITMAP
F0
80
80
80
80
80
ENDCHAR
STARTCHAR 0434
ENCODING 1076
SWIDTH 583 0
DWIDTH 7 0
BBX 7 8 0 -2
BITMAP
3C
24
24
24
44
FE
82
82
ENDCHAR
STARTCHAR 0435
ENCODING 1077
SWIDTH 583 0
DWIDTH 7 0
BBX 5 6 1 0
BITMAP
70
88
F8
80
80
78
ENDCHAR
STARTCHAR 0436
ENCODING 1078
SWIDTH 750 0
DWIDTH 9 0
BBX 9 6 0 0
BITMAP
4900
2A00
1C00
2A00
4900
8880
ENDCHAR
STARTCHAR 0437
ENCODING 1079
SWIDTH 500 0
DWIDTH 6 0
BBX 4 6 1 0
BITMAP
E0
10
60
10
10
E0
ENDCHAR
STARTCHAR 0438
ENCODING 1080
SWIDTH 583 0
DWIDTH 7 0
BBX 5 6 1 0
BITMAP
88
98
A8
A8
C8
88
ENDCHAR
STARTCHAR 0439
ENCODING 1081
SWIDTH 583 0
DWIDTH 7 0
BBX 5 9 1 0
BITMAP
48
30
00
88
98
A8
A8
C8
88
ENDCHAR
STARTCHAR 043A
ENCODING 1082
SWIDTH 500 0
DWIDTH 6 0
BBX 5 6 1 0
BITMAP
90
A0
C0
A0
90
88
ENDCHAR
STARTCHAR 043B
ENCODING 1083
SWIDTH 583 0
DWIDTH 7 0
BBX 6 6 0 0
BITMAP
3C
24
24
24
44
84
ENDCHAR
STARTCHAR 043C
ENCODING 1084
SWIDTH 750 0
DWIDTH 9 0
BBX 7 6 1 0
BITMAP
C6
CA
AA
AA
92
82
ENDCHAR
STARTCHAR 043D
ENCODING 1085
SWIDTH 583 0
DWIDTH 7 0
BBX 5 6 1 0
BITMAP
88
88
F8
88
88
88
ENDCHAR
STARTCHAR 043E
ENCODING 1086
SWIDTH 583 0
DWIDTH 7 0
BBX 5 6 1 0
BITMAP
70
88
88
88
88
70
ENDCHAR
STARTCHAR 043F
ENCODING 1087
SWIDTH 583 0
DWIDTH 7 0
BBX 5 6 1 0
BITMAP
F8
88
88
88
88
88
ENDCHAR
STARTCHAR 0440
ENCODING 1088
SWIDTH 583 0
DWIDTH 7 0
BBX 5 8 1 -2
BITMAP
F0
88
88
88
88
F0
80
80
ENDCHAR
STARTCHAR 0441
ENCODING 1089
SWIDTH 583 0
DWIDTH 7 0
BBX 5 6 1 0
BITMAP
78
80
80
80
80
78
ENDCHAR
STARTCHAR 0442
ENCODING 1090
SWIDTH 416 0
DWIDTH 5 0
BBX 5 6 0 0
BITMAP
F8
20
20
20
20
20
ENDCHAR
STARTCHAR 0443
ENCODING 1091
SWIDTH 416 0
DWIDTH 5 0
BBX 5 8 0 -2
BITMAP
88
88
50
50
60
20
20
C0
ENDCHAR
STARTCHAR 0444
ENCODING 1092
SWIDTH 750 0
DWIDTH 9 0
BBX 7 11 1 -2
BITMAP
10
10
10
7C
92
92
92
92
7C
10
10
ENDCHAR
STARTCHAR 0445
ENCODING 1093
SWIDTH 500 0
DWIDTH 6 0
BBX 6 6 0 0
BITMAP
84
48
30
30
48
84
ENDCHAR
STARTCHAR 0446
ENCODING 1094
SWIDTH 583 0
DWIDTH 7 0
BBX 6 8 1 -2
BITMAP
88
88
88
88
88
FC
04
04
ENDCHAR
STARTCHAR 0447
ENCODING 1095
SWIDTH 500 0
DWIDTH 6 0
BBX 4 6 1 0
BITMAP
90
90
90
F0
10
10
ENDCHAR
STARTCHAR 0448
ENCODING 1096
SWIDTH 750 0
DWIDTH 9 0
BBX 7 6 1 0
BITMAP
92
92
92
92
92
FE
ENDCHAR
STARTCHAR 0449
ENCODING 1097
SWIDTH 750 0
DWIDTH 9 0
BBX 8 8 1 -2
BITMAP
92
92
92
92
92
FF
01
01
ENDCHAR
STARTCHAR 044A
ENCODING 1098
SWIDTH 583 0
DWIDTH 7 0
BBX 6 6 0 0
BITMAP
E0
20
38
24
24
38
ENDCHAR
STARTCHAR 044B
ENCODING 1099
SWIDTH 750 0
DWIDTH 9 0
BBX 7 6 1 0
BITMAP
82
82
F2
8A
8A
F2
ENDCHAR
STARTCHAR 044C
ENCODING 1100
SWIDTH 500 0
DWIDTH 6 0
BBX 4 6 1 0
BITMAP
80
80
E0
90
90
E0
ENDCHAR
STARTCHAR 044D
ENCODING 1101
SWIDTH 500 0
DWIDTH 6 0
BBX 5 6 0 0
BITMAP
F0
08
78
08
08
F0
ENDCHAR
STARTCHAR 044E
ENCODING 1102
SWIDTH 833 0
DWIDTH 10 0
BBX 8 6 1 0
BITMAP
8E
91
F1
91
91
8E
ENDCHAR
STARTCHAR 044F
ENCODING 1103
SWIDTH 583 0
DWIDTH 7 0
BBX 5 6 1 0
BITMAP
78
88
88
78
48
88
ENDCHAR
STARTCHAR 0450
ENCODING 1104
SWIDTH 583 0
DWIDTH 7 0
BBX 5 9 1 0
BITMAP
40
20
00
70
88
F8
80
80
78
ENDCHAR
STARTCHAR 0451
ENCODING 1105
SWIDTH 583 0
DWIDTH 7 0
BBX 5 8 1 0
BITMAP
50
00
70
88
F8
80
80
78
ENDCHAR
STARTCHAR 0452
ENCODING 1106
SWIDTH 583 0
DWIDTH 7 0
BBX 6 11 0 -2
BITMAP
40
F0
40
78
44
44
44
44
44
04
08
ENDCHAR
STARTCHAR 0453
ENCODING 1107
SWIDTH 416 0
DWIDTH 5 0
BBX 4 9 1 0
BITMAP
10
20
00
F0
80
80
80
80
80
ENDCHAR
STARTCHAR 0454
ENCODING 1108
SWIDTH 500 0
DWIDTH 6 0
BBX 5 6 1 0
BITMAP
78
80
F0
80
80
78
ENDCHAR
STARTCHAR 0455
ENCODING 1109
SWIDTH 500 0
DWIDTH 6 0
BBX 4 6 1 0
BITMAP
70
80
C0
30
10
E0
ENDCHAR
STARTCHAR 0456
ENCODING 1110
SWIDTH 250 0
DWIDTH 3 0
BBX 1 9 1 0
BITMAP
80
80
00
80
80
80
80
80
80
ENDCHAR
STARTCHAR 0457
ENCODING 1111
SWIDTH 250 0
DWIDTH 3 0
BBX 3 8 0 0
BITMAP
A0
00
40
40
40
40
40
40
ENDCHAR
STARTCHAR 0458
ENCODING 1112
SWIDTH 250 0
DWIDTH 3 0
BBX 3 11 -1 -2
BITMAP
20
20
00
20
20
20
20
20
20
20
C0
ENDCHAR
STARTCHAR 0459
ENCODING 1113
SWIDTH 833 0
DWIDTH 10 0
BBX 9 6 0 0
BITMAP
3C00
2400
2700
2480
4480
8700
ENDCHAR
STARTCHAR 045A
ENCODING 1114
SWIDTH 833 0
DWIDTH 10 0
BBX 8 6 1 0
BITMAP
88
88
FE
89
89
8E
ENDCHAR
STARTCHAR 045B
ENCODING 1115
SWIDTH 583 0
DWIDTH 7 0
BBX 6 9 0 0
BITMAP
40
F0
40
78
44
44
44
44
44
ENDCHAR
STARTCHAR 045C
ENCODING 1116
SWIDTH 500 0
DWIDTH 6 0
BBX 5 9 1 0
BITMAP
10
20
00
90
A0
C0
A0
90
88
ENDCHAR
STARTCHAR 045D
ENCODING 1117
SWIDTH 583 0
DWIDTH 7 0
BBX 5 9 1 0
BITMAP
40
20
00
88
98
A8
A8
C8
88
ENDCHAR
STARTCHAR 045E
ENCODING 1118
SWIDTH 416 0
DWIDTH 5 0
BBX 6 11 0 -2
BITMAP
24
18
00
88
88
50
50
60
20
20
C0
ENDCHAR
STARTCHAR 045F
ENCODING 1119
SWIDTH 583 0
DWIDTH 7 0
BBX 5 8 1 -2
BITMAP
88
88
88
88
88
F8
20
20
ENDCHAR
STARTCHAR 0462
ENCODING 1122
SWIDTH 750 0
DWIDTH 9 0
BBX 8 9 0 0
BITMAP
20
FC
20
20
3E
21
21
21
3E
ENDCHAR
STARTCHAR 0463
ENCODING 1123
SWIDTH 583 0
DWIDTH 7 0
BBX 6 9 0 0
BITMAP
40
40
40
F0
40
78
44
44
78
ENDCHAR
STARTCHAR 0472
ENCODING 1138
SWIDTH 750 0
DWIDTH 9 0
BBX 7 8 1 0
BITMAP
38
44
82
F2
8E
82
44
38
ENDCHAR
STARTCHAR 0473
ENCODING 1139
SWIDTH 583 0
DWIDTH 7 0
BBX 5 6 1 0
BITMAP
70
88
E8
98
88
70
ENDCHAR
STARTCHAR 0474
ENCODING 1140
SWIDTH 750 0
DWIDTH 9 0
BBX 9 8 0 0
BITMAP
8180
8200
4200
4400
2400
2800
2800
1000
ENDCHAR
STARTCHAR 0475
ENCODING 1141
SWIDTH 500 0
DWIDTH 6 0
BBX 6 6 0 0
BITMAP
8C
88
50
50
50
20
ENDCHAR
STARTCHAR 048A
ENCODING 1162
SWIDTH 750 0
DWIDTH 9 0
BBX 8 13 1 -2
BITMAP
24
18
00
82
86
8A
8A
92
A2
C2
83
01
02
ENDCHAR
STARTCHAR 048B
ENCODING 1163
SWIDTH 583 0
DWIDTH 7 0
BBX 6 11 1 -2
BITMAP
48
30
00
88
98
A8
A8
C8
8C
04
08
ENDCHAR
STARTCHAR 048C
ENCODING 1164
SWIDTH 666 0
DWIDTH 8 0
BBX 7 9 0 0
BITMAP
40
F0
40
7C
42
42
42
42
7C
ENDCHAR
STARTCHAR 048D
ENCODING 1165
SWIDTH 500 0
DWIDTH 6 0
BBX 5 6 0 0
BITMAP
40
F0
40
70
48
70
ENDCHAR
STARTCHAR 048E
ENCODING 1166
SWIDTH 583 0
DWIDTH 7 0
BBX 6 8 1 0
BITMAP
F8
84
84
A4
F8
90
80
80
ENDCHAR
STARTCHAR 048F
ENCODING 1167
SWIDTH 583 0
DWIDTH 7 0
BBX 5 8 1 -2
BITMAP
F0
88
88
A8
98
F0
88
80
ENDCHAR
STARTCHAR 0490
ENCODING 1168
SWIDTH 500 0
DWIDTH 6 0
BBX 5 10 1 0
BITMAP
08
08
F8
80
80
80
80
80
80
80
ENDCHAR
STARTCHAR 0491
ENCODING 1169
SWIDTH 416 0
DWIDTH 5 0
BBX 4 8 1 0
BITMAP
10
10
F0
80
80
80
80
80
ENDCHAR
STARTCHAR 0492
ENCODING 1170
SWIDTH 500 0
DWIDTH 6 0
BBX 6 8 0 0
BITMAP
7C
40
40
F0
40
40
40
40
ENDCHAR
STARTCHAR 0493
ENCODING 1171
SWIDTH 416 0
DWIDTH 5 0
BBX 5 6 0 0
BITMAP
78
40
40
F0
40
40
ENDCHAR
STARTCHAR 0494
ENCODING 1172
SWIDTH 583 0
DWIDTH 7 0
BBX 5 10 1 -2
BITMAP
F0
80
80
F0
88
88
88
88
08
70
ENDCHAR
STARTCHAR 0495
ENCODING 1173
SWIDTH 583 0
DWIDTH 7 0
BBX 5 8 1 -2
BITMAP
F0
80
F0
88
88
88
08
30
ENDCHAR
STARTCHAR 0496
ENCODING 1174
SWIDTH 916 0
DWIDTH 11 0
BBX 11 10 0 -2
BITMAP
4440
2480
1500
0E00
1500
2480
4440
8420
0020
0020
ENDCHAR
STARTCHAR 0497
ENCODING 1175
SWIDTH 750 0
DWIDTH 9 0
BBX 9 8 0 -2
BITMAP
4900
2A00
1C00
2A00
4900
8880
0080
0080
ENDCHAR
STARTCHAR 0498
ENCODING 1176
SWIDTH 583 0
DWIDTH 7 0
BBX 6 11 0 -3
BITMAP
F8
04
04
38
04
04
04
F8
20
10
30
ENDCHAR
STARTCHAR 0499
ENCODING 1177
SWIDTH 500 0
DWIDTH 6 0
BBX 4 9 1 -3
BITMAP
E0
10
60
10
10
E0
40
20
40
ENDCHAR
STARTCHAR 049A
ENCODING 1178
SWIDTH 666 0
DWIDTH 8 0
BBX 7 10 1 -2
BITMAP
88
90
A0
C0
A0
90
8C
82
02
02
ENDCHAR
STARTCHAR 049B
ENCODING 1179
SWIDTH 583 0
DWIDTH 7 0
BBX 6 8 1 -2
BITMAP
90
A0
C0
A0
90
8C
04
04
ENDCHAR
STARTCHAR 049C
ENCODING 1180
SWIDTH 666 0
DWIDTH 8 0
BBX 7 8 1 0
BITMAP
82
A4
A8
F0
A8
A8
84
82
ENDCHAR
STARTCHAR 049D
ENCODING 1181
SWIDTH 666 0
DWIDTH 8 0
BBX 6 6 1 0
BITMAP
84
B8
E0
B0
88
84
ENDCHAR
STARTCHAR 049E
ENCODING 1182
SWIDTH 666 0
DWIDTH 8 0
BBX 7 8 0 0
BITMAP
42
E4
48
50
60
58
4C
42
ENDCHAR
STARTCHAR 049F
ENCODING 1183
SWIDTH 583 0
DWIDTH 7 0
BBX 6 6 0 0
BITMAP
44
E8
50
60
58
44
ENDCHAR
STARTCHAR 04A0
ENCODING 1184
SWIDTH 750 0
DWIDTH 9 0
BBX 8 8 0 0
BITMAP
E1
22
24
28
30
2C
26
21
ENDCHAR
STARTCHAR 04A1
ENCODING 1185
SWIDTH 583 0
DWIDTH 7 0
BBX 7 6 0 0
BITMAP
E4
28
30
28
24
22
ENDCHAR
STARTCHAR 04A2
ENCODING 1186
SWIDTH 750 0
DWIDTH 9 0
BBX 8 10 1 -2
BITMAP
82
82
82
FE
82
82
82
83
01
01
ENDCHAR
STARTCHAR 04A3
ENCODING 1187
SWIDTH 583 0
DWIDTH 7 0
BBX 6 8 1 -2
BITMAP
88
88
F8
88
88
8C
04
04
ENDCHAR
STARTCHAR 04A4
ENCODING 1188
SWIDTH 833 0
DWIDTH 10 0
BBX 9 8 1 0
BITMAP
8380
8200
8200
FE00
8200
8200
8200
8200
ENDCHAR
STARTCHAR 04A5
ENCODING 1189
SWIDTH 666 0
DWIDTH 8 0
BBX 7 6 1 0
BITMAP
8E
88
F8
88
88
88
ENDCHAR
STARTCHAR 04A6
ENCODING 1190
SWIDTH 1000 0
DWIDTH 12 0
BBX 10 10 1 -2
BITMAP
FC00
8400
8400
8780
8440
8440
8440
8440
0040
0380
ENDCHAR
STARTCHAR 04A7
ENCODING 1191
SWIDTH 833 0
DWIDTH 10 0
BBX 8 8 1 -2
BITMAP
F0
90
9E
91
91
91
01
06
ENDCHAR
STARTCHAR 04A8
ENCODING 1192
SWIDTH 750 0
DWIDTH 9 0
BBX 7 10 1 -2
BITMAP
38
40
8C
92
92
92
52
3C
08
06
ENDCHAR
STARTCHAR 04A9
ENCODING 1193
SWIDTH 583 0
DWIDTH 7 0
BBX 5 8 1 -2
BITMAP
60
80
90
A8
A8
70
10
08
ENDCHAR
STARTCHAR 04AA
ENCODING 1194
SWIDTH 666 0
DWIDTH 8 0
BBX 6 11 1 -3
BITMAP
3C
40
80
80
80
80
40
3C
20
10
20
ENDCHAR
STARTCHAR 04AB
ENCODING 1195
SWIDTH 583 0
DWIDTH 7 0
BBX 5 9 1 -3
BITMAP
78
80
80
80
80
78
20
10
20
ENDCHAR
STARTCHAR 04AC
ENCODING 1196
SWIDTH 583 0
DWIDTH 7 0
BBX 7 10 0 -2
BITMAP
FE
10
10
10
10
10
10
18
08
08
ENDCHAR
STARTCHAR 04AD
ENCODING 1197
SWIDTH 416 0
DWIDTH 5 0
BBX 5 8 0 -2
BITMAP
F8
20
20
20
20
30
10
10
ENDCHAR
STARTCHAR 04AE
ENCODING 1198
SWIDTH 583 0
DWIDTH 7 0
BBX 7 8 0 0
BITMAP
82
44
44
28
10
10
10
10
ENDCHAR
STARTCHAR 04AF
ENCODING 1199
SWIDTH 416 0
DWIDTH 5 0
BBX 5 8 0 -2
BITMAP
88
88
50
50
50
20
20
20
ENDCHAR
STARTCHAR 04B0
ENCODING 1200
SWIDTH 583 0
DWIDTH 7 0
BBX 7 8 0 0
BITMAP
82
44
44
28
10
7C
10
10
ENDCHAR
STARTCHAR 04B1
ENCODING 1201
SWIDTH 416 0
DWIDTH 5 0
BBX 5 8 0 -2
BITMAP
88
88
88
50
50
F8
20
20
ENDCHAR
STARTCHAR 04B2
ENCODING 1202
SWIDTH 583 0
DWIDTH 7 0
BBX 8 10 0 -2
BITMAP
82
44
28
10
10
28
44
83
01
01
ENDCHAR
STARTCHAR 04B3
ENCODING 1203
SWIDTH 500 0
DWIDTH 6 0
BBX 6 8 0 -2
BITMAP
84
48
30
30
48
84
04
04
ENDCHAR
STARTCHAR 04B4
ENCODING 1204
SWIDTH 833 0
DWIDTH 10 0
BBX 10 10 0 -2
BITMAP
FC80
1080
1080
1080
1080
1080
1080
1FC0
0040
0040
ENDCHAR
STARTCHAR 04B5
ENCODING 1205
SWIDTH 666 0
DWIDTH 8 0
BBX 8 8 0 -2
BITMAP
FA
22
22
22
22
3F
01
01
ENDCHAR
STARTCHAR 04B6
ENCODING 1206
SWIDTH 666 0
DWIDTH 8 0
BBX 7 10 1 -3
BITMAP
84
84
84
84
7C
04
04
06
02
02
ENDCHAR
STARTCHAR 04B7
ENCODING 1207
SWIDTH 500 0
DWIDTH 6 0
BBX 5 8 1 -2
BITMAP
90
90
90
F0
10
18
08
08
ENDCHAR
STARTCHAR 04B8
ENCODING 1208
SWIDTH 666 0
DWIDTH 8 0
BBX 6 8 1 0
BITMAP
84
84
A4
A4
7C
24
24
04
ENDCHAR
STARTCHAR 04B9
ENCODING 1209
SWIDTH 583 0
DWIDTH 7 0
BBX 5 6 1 0
BITMAP
88
88
A8
78
28
08
ENDCHAR
STARTCHAR 04BA
ENCODING 1210
SWIDTH 666 0
DWIDTH 8 0
BBX 6 8 1 0
BITMAP
80
80
80
F8
84
84
84
84
ENDCHAR
STARTCHAR 04BB
ENCODING 1211
SWIDTH 583 0
DWIDTH 7 0
BBX 5 9 1 0
BITMAP
80
80
80
F0
88
88
88
88
88
ENDCHAR
STARTCHAR 04BC
ENCODING 1212
SWIDTH 833 0
DWIDTH 10 0
BBX 9 8 0 0
BITMAP
0E00
1100
A080
7F80
2000
2000
1000
0F00
ENDCHAR
STARTCHAR 04BD
ENCODING 1213
SWIDTH 666 0
DWIDTH 8 0
BBX 7 6 0 0
BITMAP
1C
A2
7E
20
20
1E
ENDCHAR
STARTCHAR 04BE
ENCODING 1214
SWIDTH 833 0
DWIDTH 10 0
BBX 9 10 0 -2
BITMAP
0E00
1100
A080
7F80
2000
2000
1000
0F00
0400
0400
ENDCHAR
STARTCHAR 04BF
ENCODING 1215
SWIDTH 666 0
DWIDTH 8 0
BBX 7 8 0 -2
BITMAP
1C
A2
7E
20
20
1E
08
08
ENDCHAR
STARTCHAR 04C0
ENCODING 1216
SWIDTH 250 0
DWIDTH 3 0
BBX 1 8 1 0
BITMAP
80
80
80
80
80
80
80
80
ENDCHAR
STARTCHAR 04C1
ENCODING 1217
SWIDTH 916 0
DWIDTH 11 0
BBX 11 11 0 0
BITMAP
0900
0600
0000
4440
2480
1500
0E00
1500
2480
4440
8420
ENDCHAR
STARTCHAR 04C2
ENCODING 1218
SWIDTH 750 0
DWIDTH 9 0
BBX 9 9 0 0
BITMAP
1200
0C00
0000
4900
2A00
1C00
2A00
4900
8880
ENDCHAR
STARTCHAR 04C3
ENCODING 1219
SWIDTH 666 0
DWIDTH 8 0
BBX 6 10 1 -2
BITMAP
84
88
90
A0
F0
88
84
84
08
30
ENDCHAR
STARTCHAR 04C4
ENCODING 1220
SWIDTH 583 0
DWIDTH 7 0
BBX 5 8 1 -2
BITMAP
90
A0
F0
88
88
88
08
30
ENDCHAR
STARTCHAR 04C5
ENCODING 1221
SWIDTH 750 0
DWIDTH 9 0
BBX 9 10 0 -2
BITMAP
1F00
1100
1100
1100
1100
2100
2100
C180
0080
0100
ENDCHAR
STARTCHAR 04C6
ENCODING 1222
SWIDTH 583 0
DWIDTH 7 0
BBX 7 8 0 -2
BITMAP
3C
24
24
24
44
86
02
04
ENDCHAR
STARTCHAR 04C7
ENCODING 1223
SWIDTH 666 0
DWIDTH 8 0
BBX 6 10 1 -2
BITMAP
84
84
84
FC
84
84
84
84
04
18
ENDCHAR
STARTCHAR 04C8
ENCODING 1224
SWIDTH 583 0
DWIDTH 7 0
BBX 5 8 1 -2
BITMAP
88
88
F8
88
88
88
08
10
ENDCHAR
STARTCHAR 04C9
ENCODING 1225
SWIDTH 750 0
DWIDTH 9 0
BBX 8 10 1 -2
BITMAP
82
82
82
FE
82
82
82
83
01
02
ENDCHAR
STARTCHAR 04CA
ENCODING 1226
SWIDTH 583 0
DWIDTH 7 0
BBX 6 8 1 -2
BITMAP
88
88
F8
88
88
8C
04
08
ENDCHAR
STARTCHAR 04CB
ENCODING 1227
SWIDTH 666 0
DWIDTH 8 0
BBX 6 10 1 -2
BITMAP
84
84
84
84
7C
04
04
0C
08
08
ENDCHAR
STARTCHAR 04CC
ENCODING 1228
SWIDTH 500 0
DWIDTH 6 0
BBX 4 8 1 -2
BITMAP
90
90
90
F0
10
30
20
20
ENDCHAR
STARTCHAR 04CD
ENCODING 1229
SWIDTH 916 0
DWIDTH 11 0
BBX 10 10 1 -2
BITMAP
8080
C180
A280
A280
9480
9480
8880
80C0
0040
0080
ENDCHAR
STARTCHAR 04CE
ENCODING 1230
SWIDTH 750 0
DWIDTH 9 0
BBX 8 8 1 -2
BITMAP
C6
CA
AA
AA
92
83
01
02
ENDCHAR
STARTCHAR 04CF
ENCODING 1231
SWIDTH 250 0
DWIDTH 3 0
BBX 1 8 1 0
BITMAP
80
80
80
80
80
80
80
80
ENDCHAR
STARTCHAR 04D0
ENCODING 1232
SWIDTH 583 0
DWIDTH 7 0
BBX 7 11 0 0
BITMAP
12
0C
00
10
28
28
28
44
7C
44
82
ENDCHAR
STARTCHAR 04D1
ENCODING 1233
SWIDTH 500 0
DWIDTH 6 0
BBX 5 9 1 0
BITMAP
48
30
00
E0
10
70
90
90
70
ENDCHAR
STARTCHAR 04D2
ENCODING 1234
SWIDTH 583 0
DWIDTH 7 0
BBX 7 10 0 0
BITMAP
14
00
10
28
28
28
44
7C
44
82
ENDCHAR
STARTCHAR 04D3
ENCODING 1235
SWIDTH 500 0
DWIDTH 6 0
BBX 4 8 1 0
BITMAP
50
00
E0
10
70
90
90
70
ENDCHAR
STARTCHAR 04D4
ENCODING 1236
SWIDTH 916 0
DWIDTH 11 0
BBX 11 8 0 0
BITMAP
03E0
0600
0A00
13C0
2200
3E00
4200
83E0
ENDCHAR
STARTCHAR 04D5
ENCODING 1237
SWIDTH 833 0
DWIDTH 10 0
BBX 8 6 1 0
BITMAP
6E
11
7F
90
90
6F
ENDCHAR
STARTCHAR 04D6
ENCODING 1238
SWIDTH 583 0
DWIDTH 7 0
BBX 5 11 1 0
BITMAP
48
30
00
F8
80
80
F0
80
80
80
F8
ENDCHAR
STARTCHAR 04D7
ENCODING 1239
SWIDTH 583 0
DWIDTH 7 0
BBX 5 9 1 0
BITMAP
48
30
00
70
88
F8
80
80
78
ENDCHAR
STARTCHAR 04D8
ENCODING 1240
SWIDTH 666 0
DWIDTH 8 0
BBX 6 8 1 0
BITMAP
F0
08
04
04
FC
84
48
38
ENDCHAR
STARTCHAR 04D9
ENCODING 1241
SWIDTH 583 0
DWIDTH 7 0
BBX 5 6 1 0
BITMAP
F0
08
08
F8
88
70
ENDCHAR
STARTCHAR 04DA
ENCODING 1242
SWIDTH 666 0
DWIDTH 8 0
BBX 6 10 1 0
BITMAP
28
00
F0
08
04
04
FC
84
48
38
ENDCHAR
STARTCHAR 04DB
ENCODING 1243
SWIDTH 583 0
DWIDTH 7 0
BBX 5 8 1 0
BITMAP
50
00
F0
08
08
F8
88
70
ENDCHAR
STARTCHAR 04DC
ENCODING 1244
SWIDTH 916 0
DWIDTH 11 0
BBX 11 10 0 0
BITMAP
0A00
0000
4440
2480
1500
0E00
1500
2480
4440
8420
ENDCHAR
STARTCHAR 04DD
ENCODING 1245
SWIDTH 750 0
DWIDTH 9 0
BBX 9 8 0 0
BITMAP
1400
0000
4900
2A00
1C00
2A00
4900
8880
ENDCHAR
STARTCHAR 04DE
ENCODING 1246
SWIDTH 583 0
DWIDTH 7 0
BBX 6 10 0 0
BITMAP
28
00
F8
04
04
38
04
04
04
F8
ENDCHAR
STARTCHAR 04DF
ENCODING 1247
SWIDTH 500 0
DWIDTH 6 0
BBX 4 8 1 0
BITMAP
50
00
E0
10
60
10
10
E0
ENDCHAR
STARTCHAR 04E0
ENCODING 1248
SWIDTH 583 0
DWIDTH 7 0
BBX 6 8 0 0
BITMAP
FC
08
10
38
04
04
04
F8
ENDCHAR
STARTCHAR 04E1
ENCODING 1249
SWIDTH 500 0
DWIDTH 6 0
BBX 6 8 0 -2
BITMAP
FC
08
10
38
04
04
0C
F8
ENDCHAR
STARTCHAR 04E2
ENCODING 1250
SWIDTH 750 0
DWIDTH 9 0
BBX 7 11 1 0
BITMAP
38
00
00
82
86
8A
8A
92
A2
C2
82
ENDCHAR
STARTCHAR 04E3
ENCODING 1251
SWIDTH 583 0
DWIDTH 7 0
BBX 5 9 1 0
BITMAP
70
00
00
88
98
A8
A8
C8
88
ENDCHAR
STARTCHAR 04E4
ENCODING 1252
SWIDTH 750 0
DWIDTH 9 0
BBX 7 10 1 0
BITMAP
28
00
82
86
8A
8A
92
A2
C2
82
ENDCHAR
STARTCHAR 04E5
ENCODING 1253
SWIDTH 583 0
DWIDTH 7 0
BBX 5 8 1 0
BITMAP
50
00
88
98
A8
A8
C8
88
ENDCHAR
STARTCHAR 04E6
ENCODING 1254
SWIDTH 750 0
DWIDTH 9 0
BBX 7 10 1 0
BITMAP
28
00
38
44
82
82
82
82
44
38
ENDCHAR
STARTCHAR 04E7
ENCODING 1255
SWIDTH 583 0
DWIDTH 7 0
BBX 5 8 1 0
BITMAP
50
00
70
88
88
88
88
70
ENDCHAR
STARTCHAR 04E8
ENCODING 1256
SWIDTH 750 0
DWIDTH 9 0
BBX 7 8 1 0
BITMAP
38
44
82
FE
82
82
44
38
ENDCHAR
STARTCHAR 04E9
ENCODING 1257
SWIDTH 583 0
DWIDTH 7 0
BBX 5 6 1 0
BITMAP
70
88
F8
88
88
70
ENDCHAR
STARTCHAR 04EA
ENCODING 1258
SWIDTH 750 0
DWIDTH 9 0
BBX 7 10 1 0
BITMAP
28
00
38
44
82
FE
82
82
44
38
ENDCHAR
STARTCHAR 04EB
ENCODING 1259
SWIDTH 583 0
DWIDTH 7 0
BBX 5 8 1 0
BITMAP
50
00
70
88
F8
88
88
70
ENDCHAR
STARTCHAR 04EC
ENCODING 1260
SWIDTH 583 0
DWIDTH 7 0
BBX 6 10 0 0
BITMAP
28
00
F0
08
04
7C
04
04
08
F0
ENDCHAR
STARTCHAR 04ED
ENCODING 1261
SWIDTH 500 0
DWIDTH 6 0
BBX 5 8 0 0
BITMAP
50
00
F0
08
78
08
08
F0
ENDCHAR
STARTCHAR 04EE
ENCODING 1262
SWIDTH 583 0
DWIDTH 7 0
BBX 7 11 0 0
BITMAP
38
00
00
82
44
44
28
28
10
30
E0
ENDCHAR
STARTCHAR 04EF
ENCODING 1263
SWIDTH 416 0
DWIDTH 5 0
BBX 5 11 0 -2
BITMAP
38
00
00
88
88
50
50
60
20
20
C0
ENDCHAR
STARTCHAR 04F0
ENCODING 1264
SWIDTH 583 0
DWIDTH 7 0
BBX 7 10 0 0
BITMAP
28
00
82
44
44
28
28
10
30
E0
ENDCHAR
STARTCHAR 04F1
ENCODING 1265
SWIDTH 416 0
DWIDTH 5 0
BBX 5 10 0 -2
BITMAP
28
00
88
88
50
50
60
20
20
C0
ENDCHAR
STARTCHAR 04F2
ENCODING 1266
SWIDTH 583 0
DWIDTH 7 0
BBX 7 11 0 0
BITMAP
14
28
00
82
44
44
28
28
10
30
E0
ENDCHAR
STARTCHAR 04F3
ENCODING 1267
SWIDTH 416 0
DWIDTH 5 0
BBX 5 11 0 -2
BITMAP
28
50
00
88
88
50
50
60
20
20
C0
ENDCHAR
STARTCHAR 04F4
ENCODING 1268
SWIDTH 666 0
DWIDTH 8 0
BBX 6 10 1 0
BITMAP
50
00
84
84
84
84
7C
04
04
04
ENDCHAR
STARTCHAR 04F5
ENCODING 1269
SWIDTH 500 0
DWIDTH 6 0
BBX 4 8 1 0
BITMAP
50
00
90
90
90
F0
10
10
ENDCHAR
STARTCHAR 04F6
ENCODING 1270
SWIDTH 500 0
DWIDTH 6 0
BBX 5 10 1 -2
BITMAP
F8
80
80
80
80
80
80
C0
40
40
ENDCHAR
STARTCHAR 04F7
ENCODING 1271
SWIDTH 416 0
DWIDTH 5 0
BBX 4 8 1 -2
BITMAP
F0
80
80
80
80
C0
40
40
ENDCHAR
STARTCHAR 04F8
ENCODING 1272
SWIDTH 833 0
DWIDTH 10 0
BBX 8 10 1 0
BITMAP
14
00
81
81
81
F1
89
89
89
F1
ENDCHAR
STARTCHAR 04F9
ENCODING 1273
SWIDTH 750 0
DWIDTH 9 0
BBX 7 8 1 0
BITMAP
28
00
82
82
F2
8A
8A
F2
ENDCHAR
STARTCHAR 1E80
ENCODING 7808
SWIDTH 916 0
DWIDTH 11 0
BBX 11 11 0 0
BITMAP
0800
0400
0000
8020
8420
8420
4A40
4A40
5140
5140
2080
ENDCHAR
STARTCHAR 1E81
ENCODING 7809
SWIDTH 750 0
DWIDTH 9 0
BBX 9 9 0 0
BITMAP
1000
0800
0000
8880
8880
5500
5500
5500
2200
ENDCHAR
STARTCHAR 1E82
ENCODING 7810
SWIDTH 916 0
DWIDTH 11 0
BBX 11 11 0 0
BITMAP
0200
0400
0000
8020
8420
8420
4A40
4A40
5140
5140
2080
ENDCHAR
STARTCHAR 1E83
ENCODING 7811
SWIDTH 750 0
DWIDTH 9 0
BBX 9 9 0 0
BITMAP
0400
0800
0000
8880
8880
5500
5500
5500
2200
ENDCHAR
STARTCHAR 1E84
ENCODING 7812
SWIDTH 916 0
DWIDTH 11 0
BBX 11 10 0 0
BITMAP
0A00
0000
8020
8420
8420
4A40
4A40
5140
5140
2080
ENDCHAR
STARTCHAR 1E85
ENCODING 7813
SWIDTH 750 0
DWIDTH 9 0
BBX 9 8 0 0
BITMAP
1400
0000
8880
8880
5500
5500
5500
2200
ENDCHAR
STARTCHAR 1EF2
ENCODING 7922
SWIDTH 583 0
DWIDTH 7 0
BBX 7 11 0 0
BITMAP
20
10
00
82
44
44
28
10
10
10
10
ENDCHAR
STARTCHAR 1EF3
ENCODING 7923
SWIDTH 416 0
DWIDTH 5 0
BBX 5 12 0 -2
BITMAP
20
10
00
00
88
88
50
50
60
20
20
C0
ENDCHAR
STARTCHAR 1F00
ENCODING 7936
SWIDTH 583 0
DWIDTH 7 0
BBX 6 9 1 0
BITMAP
10
20
00
78
88
88
88
88
74
ENDCHAR
STARTCHAR 1F01
ENCODING 7937
SWIDTH 583 0
DWIDTH 7 0
BBX 6 9 1 0
BITMAP
20
10
00
78
88
88
88
88
74
ENDCHAR
STARTCHAR 1F02
ENCODING 7938
SWIDTH 583 0
DWIDTH 7 0
BBX 6 9 1 0
BITMAP
50
88
00
78
88
88
88
88
74
ENDCHAR
STARTCHAR 1F03
ENCODING 7939
SWIDTH 583 0
DWIDTH 7 0
BBX 6 9 1 0
BITMAP
50
28
00
78
88
88
88
88
74
ENDCHAR
STARTCHAR 1F04
ENCODING 7940
SWIDTH 583 0
DWIDTH 7 0
BBX 6 9 1 0
BITMAP
24
48
00
78
88
88
88
88
74
ENDCHAR
STARTCHAR 1F05
ENCODING 7941
SWIDTH 583 0
DWIDTH 7 0
BBX 6 9 1 0
BITMAP
88
50
00
78
88
88
88
88
74
ENDCHAR
STARTCHAR 1F06
ENCODING 7942
SWIDTH 583 0
DWIDTH 7 0
BBX 6 12 1 0
BITMAP
30
48
00
10
20
00
78
88
88
88
88
74
ENDCHAR
STARTCHAR 1F07
ENCODING 7943
SWIDTH 583 0
DWIDTH 7 0
BBX 6 12 1 0
BITMAP
30
48
00
20
10
00
78
88
88
88
88
74
ENDCHAR
STARTCHAR 1F08
ENCODING 7944
SWIDTH 583 0
DWIDTH 7 0
BBX 8 8 -1 0
BITMAP
48
94
14
14
22
3E
22
41
ENDCHAR
STARTCHAR 1F09
ENCODING 7945
SWIDTH 583 0
DWIDTH 7 0
BBX 8 8 -1 0
BITMAP
88
54
14
14
22
3E
22
41
ENDCHAR
STARTCHAR 1F0A
ENCODING 7946
SWIDTH 666 0
DWIDTH 8 0
BBX 10 8 -2 0
BITMAP
5200
8D00
0500
0500
0880
0F80
0880
1040
ENDCHAR
STARTCHAR 1F0B
ENCODING 7947
SWIDTH 666 0
DWIDTH 8 0
BBX 10 8 -2 0
BITMAP
A200
5500
0500
0500
0880
0F80
0880
1040
ENDCHAR
STARTCHAR 1F0C
ENCODING 7948
SWIDTH 750 0
DWIDTH 9 0
BBX 9 8 -1 0
BITMAP
4C00
9A00
0A00
0A00
1100
1F00
1100
2080
ENDCHAR
STARTCHAR 1F0D
ENCODING 7949
SWIDTH 750 0
DWIDTH 9 0
BBX 8 8 0 0
BITMAP
88
54
14
14
22
3E
22
41
ENDCHAR
STARTCHAR 1F0E
ENCODING 7950
SWIDTH 583 0
DWIDTH 7 0
BBX 8 11 -1 0
BITMAP
60
90
00
28
54
14
14
22
3E
22
41
ENDCHAR
STARTCHAR 1F0F
ENCODING 7951
SWIDTH 666 0
DWIDTH 8 0
BBX 7 11 0 0
BITMAP
60
90
00
50
28
28
28
44
7C
44
82
ENDCHAR
STARTCHAR 1F10
ENCODING 7952
SWIDTH 500 0
DWIDTH 6 0
BBX 5 9 1 0
BITMAP
10
20
00
78
80
60
80
80
78
ENDCHAR
STARTCHAR 1F11
ENCODING 7953
SWIDTH 500 0
DWIDTH 6 0
BBX 5 9 1 0
BITMAP
40
20
00
78
80
60
80
80
78
ENDCHAR
STARTCHAR 1F12
ENCODING 7954
SWIDTH 500 0
DWIDTH 6 0
BBX 5 9 1 0
BITMAP
50
88
00
78
80
60
80
80
78
ENDCHAR
STARTCHAR 1F13
ENCODING 7955
SWIDTH 500 0
DWIDTH 6 0
BBX 5 9 1 0
BITMAP
A0
50
00
78
80
60
80
80
78
ENDCHAR
STARTCHAR 1F14
ENCODING 7956
SWIDTH 500 0
DWIDTH 6 0
BBX 5 9 1 0
BITMAP
48
90
00
78
80
60
80
80
78
ENDCHAR
STARTCHAR 1F15
ENCODING 7957
SWIDTH 500 0
DWIDTH 6 0
BBX 5 9 1 0
BITMAP
88
50
00
78
80
60
80
80
78
ENDCHAR
STARTCHAR 1F18
ENCODING 7960
SWIDTH 666 0
DWIDTH 8 0
BBX 8 8 -1 0
BITMAP
5F
90
10
1E
10
10
10
1F
ENDCHAR
STARTCHAR 1F19
ENCODING 7961
SWIDTH 666 0
DWIDTH 8 0
BBX 7 8 0 0
BITMAP
BE
60
20
3C
20
20
20
3E
ENDCHAR
STARTCHAR 1F1A
ENCODING 7962
SWIDTH 833 0
DWIDTH 10 0
BBX 10 8 -1 0
BITMAP
57C0
8C00
0400
0780
0400
0400
0400
07C0
ENDCHAR
STARTCHAR 1F1B
ENCODING 7963
SWIDTH 833 0
DWIDTH 10 0
BBX 9 8 0 0
BITMAP
AF80
5800
0800
0F00
0800
0800
0800
0F80
ENDCHAR
STARTCHAR 1F1C
ENCODING 7964
SWIDTH 833 0
DWIDTH 10 0
BBX 10 8 -1 0
BITMAP
4FC0
9400
0400
0780
0400
0400
0400
07C0
ENDCHAR
STARTCHAR 1F1D
ENCODING 7965
SWIDTH 833 0
DWIDTH 10 0
BBX 9 8 0 0
BITMAP
8F80
5800
0800
0F00
0800
0800
0800
0F80
ENDCHAR
STARTCHAR 1F20
ENCODING 7968
SWIDTH 583 0
DWIDTH 7 0
BBX 5 11 1 -2
BITMAP
10
20
00
F0
88
88
88
88
88
08
08
ENDCHAR
STARTCHAR 1F21
ENCODING 7969
SWIDTH 583 0
DWIDTH 7 0
BBX 5 11 1 -2
BITMAP
40
20
00
F0
88
88
88
88
88
08
08
ENDCHAR
STARTCHAR 1F22
ENCODING 7970
SWIDTH 583 0
DWIDTH 7 0
BBX 5 11 1 -2
BITMAP
50
88
00
F0
88
88
88
88
88
08
08
ENDCHAR
STARTCHAR 1F23
ENCODING 7971
SWIDTH 583 0
DWIDTH 7 0
BBX 5 11 1 -2
BITMAP
A0
50
00
F0
88
88
88
88
88
08
08
ENDCHAR
STARTCHAR 1F24
ENCODING 7972
SWIDTH 583 0
DWIDTH 7 0
BBX 5 11 1 -2
BITMAP
48
90
00
F0
88
88
88
88
88
08
08
ENDCHAR
STARTCHAR 1F25
ENCODING 7973
SWIDTH 583 0
DWIDTH 7 0
BBX 5 11 1 -2
BITMAP
88
50
00
F0
88
88
88
88
88
08
08
ENDCHAR
STARTCHAR 1F26
ENCODING 7974
SWIDTH 583 0
DWIDTH 7 0
BBX 5 14 1 -2
BITMAP
30
48
00
10
20
00
F0
88
88
88
88
88
08
08
ENDCHAR
STARTCHAR 1F27
ENCODING 7975
SWIDTH 583 0
DWIDTH 7 0
BBX 5 14 1 -2
BITMAP
60
90
00
40
20
00
F0
88
88
88
88
88
08
08
ENDCHAR
STARTCHAR 1F28
ENCODING 7976
SWIDTH 750 0
DWIDTH 9 0
BBX 9 8 -1 0
BITMAP
5080
9080
1080
1F80
1080
1080
1080
1080
ENDCHAR
STARTCHAR 1F29
ENCODING 7977
SWIDTH 750 0
DWIDTH 9 0
BBX 8 8 0 0
BITMAP
A1
61
21
3F
21
21
21
21
ENDCHAR
STARTCHAR 1F2A
ENCODING 7978
SWIDTH 1000 0
DWIDTH 12 0
BBX 11 8 -1 0
BITMAP
5420
8C20
0420
07E0
0420
0420
0420
0420
ENDCHAR
STARTCHAR 1F2B
ENCODING 7979
SWIDTH 916 0
DWIDTH 11 0
BBX 10 8 0 0
BITMAP
A840
5840
0840
0FC0
0840
0840
0840
0840
ENDCHAR
STARTCHAR 1F2C
ENCODING 7980
SWIDTH 916 0
DWIDTH 11 0
BBX 11 8 -1 0
BITMAP
4C20
9420
0420
07E0
0420
0420
0420
0420
ENDCHAR
STARTCHAR 1F2D
ENCODING 7981
SWIDTH 1000 0
DWIDTH 12 0
BBX 10 8 0 0
BITMAP
8840
5840
0840
0FC0
0840
0840
0840
0840
ENDCHAR
STARTCHAR 1F2E
ENCODING 7982
SWIDTH 916 0
DWIDTH 11 0
BBX 10 11 -1 0
BITMAP
6000
9000
0000
2840
4840
0840
0FC0
0840
0840
0840
0840
ENDCHAR
STARTCHAR 1F2F
ENCODING 7983
SWIDTH 916 0
DWIDTH 11 0
BBX 9 11 0 0
BITMAP
6000
9000
0000
5080
3080
1080
1F80
1080
1080
1080
1080
ENDCHAR
STARTCHAR 1F30
ENCODING 7984
SWIDTH 333 0
DWIDTH 4 0
BBX 2 9 1 0
BITMAP
40
80
00
80
80
80
80
80
40
ENDCHAR
STARTCHAR 1F31
ENCODING 7985
SWIDTH 333 0
DWIDTH 4 0
BBX 3 9 0 0
BITMAP
80
40
00
40
40
40
40
40
20
ENDCHAR
STARTCHAR 1F32
ENCODING 7986
SWIDTH 333 0
DWIDTH 4 0
BBX 5 9 -1 0
BITMAP
50
88
00
20
20
20
20
20
10
ENDCHAR
STARTCHAR 1F33
ENCODING 7987
SWIDTH 333 0
DWIDTH 4 0
BBX 4 9 -1 0
BITMAP
A0
50
00
20
20
20
20
20
10
ENDCHAR
STARTCHAR 1F34
ENCODING 7988
SWIDTH 333 0
DWIDTH 4 0
BBX 5 9 -1 0
BITMAP
48
90
00
20
20
20
20
20
10
ENDCHAR
STARTCHAR 1F35
ENCODING 7989
SWIDTH 333 0
DWIDTH 4 0
BBX 5 9 -1 0
BITMAP
88
50
00
20
20
20
20
20
10
ENDCHAR
STARTCHAR 1F36
ENCODING 7990
SWIDTH 333 0
DWIDTH 4 0
BBX 4 12 0 0
BITMAP
60
90
00
20
40
00
40
40
40
40
40
20
ENDCHAR
STARTCHAR 1F37
ENCODING 7991
SWIDTH 333 0
DWIDTH 4 0
BBX 4 12 0 0
BITMAP
60
90
00
40
20
00
40
40
40
40
40
20
ENDCHAR
STARTCHAR 1F38
ENCODING 7992
SWIDTH 333 0
DWIDTH 4 0
BBX 4 8 -1 0
BITMAP
50
90
10
10
10
10
10
10
ENDCHAR
STARTCHAR 1F39
ENCODING 7993
SWIDTH 333 0
DWIDTH 4 0
BBX 3 8 0 0
BITMAP
A0
60
20
20
20
20
20
20
ENDCHAR
STARTCHAR 1F3A
ENCODING 7994
SWIDTH 500 0
DWIDTH 6 0
BBX 6 8 -1 0
BITMAP
54
8C
04
04
04
04
04
04
ENDCHAR
STARTCHAR 1F3B
ENCODING 7995
SWIDTH 500 0
DWIDTH 6 0
BBX 5 8 0 0
BITMAP
A8
58
08
08
08
08
08
08
ENDCHAR
STARTCHAR 1F3C
ENCODING 7996
SWIDTH 500 0
DWIDTH 6 0
BBX 6 8 -1 0
BITMAP
4C
94
04
04
04
04
04
04
ENDCHAR
STARTCHAR 1F3D
ENCODING 7997
SWIDTH 500 0
DWIDTH 6 0
BBX 5 8 0 0
BITMAP
88
58
08
08
08
08
08
08
ENDCHAR
STARTCHAR 1F3E
ENCODING 7998
SWIDTH 416 0
DWIDTH 5 0
BBX 5 11 -1 0
BITMAP
60
90
00
28
48
08
08
08
08
08
08
ENDCHAR
STARTCHAR 1F3F
ENCODING 7999
SWIDTH 416 0
DWIDTH 5 0
BBX 4 11 0 0
BITMAP
60
90
00
50
30
10
10
10
10
10
10
ENDCHAR
STARTCHAR 1F40
ENCODING 8000
SWIDTH 583 0
DWIDTH 7 0
BBX 5 9 1 0
BITMAP
10
20
00
70
88
88
88
88
70
ENDCHAR
STARTCHAR 1F41
ENCODING 8001
SWIDTH 583 0
DWIDTH 7 0
BBX 5 9 1 0
BITMAP
40
20
00
70
88
88
88
88
70
ENDCHAR
STARTCHAR 1F42
ENCODING 8002
SWIDTH 583 0
DWIDTH 7 0
BBX 5 9 1 0
BITMAP
50
88
00
70
88
88
88
88
70
ENDCHAR
STARTCHAR 1F43
ENCODING 8003
SWIDTH 583 0
DWIDTH 7 0
BBX 5 9 1 0
BITMAP
A0
50
00
70
88
88
88
88
70
ENDCHAR
STARTCHAR 1F44
ENCODING 8004
SWIDTH 583 0
DWIDTH 7 0
BBX 5 9 1 0
BITMAP
48
90
00
70
88
88
88
88
70
ENDCHAR
STARTCHAR 1F45
ENCODING 8005
SWIDTH 583 0
DWIDTH 7 0
BBX 5 9 1 0
BITMAP
88
50
00
70
88
88
88
88
70
ENDCHAR
STARTCHAR 1F48
ENCODING 8008
SWIDTH 750 0
DWIDTH 9 0
BBX 9 8 -1 0
BITMAP
4E00
9100
2080
2080
2080
2080
1100
0E00
ENDCHAR
STARTCHAR 1F49
ENCODING 8009
SWIDTH 833 0
DWIDTH 10 0
BBX 9 8 0 0
BITMAP
8E00
5100
2080
2080
2080
2080
1100
0E00
ENDCHAR
STARTCHAR 1F4A
ENCODING 8010
SWIDTH 1000 0
DWIDTH 12 0
BBX 12 8 -1 0
BITMAP
51C0
8A20
0410
0410
0410
0410
0220
01C0
ENDCHAR
STARTCHAR 1F4B
ENCODING 8011
SWIDTH 1000 0
DWIDTH 12 0
BBX 11 8 0 0
BITMAP
A380
5440
0820
0820
0820
0820
0440
0380
ENDCHAR
STARTCHAR 1F4C
ENCODING 8012
SWIDTH 916 0
DWIDTH 11 0
BBX 11 8 -1 0
BITMAP
4B80
9440
0820
0820
0820
0820
0440
0380
ENDCHAR
STARTCHAR 1F4D
ENCODING 8013
SWIDTH 1000 0
DWIDTH 12 0
BBX 10 8 0 0
BITMAP
8F00
5880
1040
1040
1040
1040
0880
0700
ENDCHAR
STARTCHAR 1F50
ENCODING 8016
SWIDTH 583 0
DWIDTH 7 0
BBX 5 9 1 0
BITMAP
10
20
00
88
88
88
88
88
70
ENDCHAR
STARTCHAR 1F51
ENCODING 8017
SWIDTH 583 0
DWIDTH 7 0
BBX 5 9 1 0
BITMAP
40
20
00
88
88
88
88
88
70
ENDCHAR
STARTCHAR 1F52
ENCODING 8018
SWIDTH 583 0
DWIDTH 7 0
BBX 5 9 1 0
BITMAP
50
88
00
88
88
88
88
88
70
ENDCHAR
STARTCHAR 1F53
ENCODING 8019
SWIDTH 583 0
DWIDTH 7 0
BBX 5 9 1 0
BITMAP
A0
50
00
88
88
88
88
88
70
ENDCHAR
STARTCHAR 1F54
ENCODING 8020
SWIDTH 583 0
DWIDTH 7 0
BBX 5 9 1 0
BITMAP
48
90
00
88
88
88
88
88
70
ENDCHAR
STARTCHAR 1F55
ENCODING 8021
SWIDTH 583 0
DWIDTH 7 0
BBX 5 9 1 0
BITMAP
88
50
00
88
88
88
88
88
70
ENDCHAR
STARTCHAR 1F56
ENCODING 8022
SWIDTH 583 0
DWIDTH 7 0
BBX 5 12 1 0
BITMAP
30
48
00
10
20
00
88
88
88
88
88
70
ENDCHAR
STARTCHAR 1F57
ENCODING 8023
SWIDTH 583 0
DWIDTH 7 0
BBX 5 12 1 0
BITMAP
60
90
00
40
20
00
88
88
88
88
88
70
ENDCHAR
STARTCHAR 1F59
ENCODING 8025
SWIDTH 666 0
DWIDTH 8 0
BBX 8 8 0 0
BITMAP
C1
62
22
14
08
08
08
08
ENDCHAR
STARTCHAR 1F5B
ENCODING 8027
SWIDTH 833 0
DWIDTH 10 0
BBX 10 8 0 0
BITMAP
B040
5880
0880
0500
0200
0200
0200
0200
ENDCHAR
STARTCHAR 1F5D
ENCODING 8029
SWIDTH 916 0
DWIDTH 11 0
BBX 11 8 0 0
BITMAP
8820
5440
0440
0280
0100
0100
0100
0100
ENDCHAR
STARTCHAR 1F5F
ENCODING 8031
SWIDTH 833 0
DWIDTH 10 0
BBX 10 11 0 0
BITMAP
6000
9000
0000
5040
2880
0880
0500
0200
0200
0200
0200
ENDCHAR
STARTCHAR 1F60
ENCODING 8032
SWIDTH 916 0
DWIDTH 11 0
BBX 9 9 1 0
BITMAP
0400
0800
0000
4100
8880
8880
8880
8880
7700
ENDCHAR
STARTCHAR 1F61
ENCODING 8033
SWIDTH 916 0
DWIDTH 11 0
BBX 9 9 1 0
BITMAP
1000
0800
0000
4100
8880
8880
8880
8880
7700
ENDCHAR
STARTCHAR 1F62
ENCODING 8034
SWIDTH 916 0
DWIDTH 11 0
BBX 9 9 1 0
BITMAP
1400
2200
0000
4100
8880
8880
8880
8880
7700
ENDCHAR
STARTCHAR 1F63
ENCODING 8035
SWIDTH 916 0
DWIDTH 11 0
BBX 9 9 1 0
BITMAP
2800
1400
0000
4100
8880
8880
8880
8880
7700
ENDCHAR
STARTCHAR 1F64
ENCODING 8036
SWIDTH 916 0
DWIDTH 11 0
BBX 9 9 1 0
BITMAP
1200
2400
0000
4100
8880
8880
8880
8880
7700
ENDCHAR
STARTCHAR 1F65
ENCODING 8037
SWIDTH 916 0
DWIDTH 11 0
BBX 9 9 1 0
BITMAP
2200
1400
0000
4100
8880
8880
8880
8880
7700
ENDCHAR
STARTCHAR 1F66
ENCODING 8038
SWIDTH 916 0
DWIDTH 11 0
BBX 9 12 1 0
BITMAP
0C00
1200
0000
0400
0800
0000
4100
8880
8880
8880
8880
7700
ENDCHAR
STARTCHAR 1F67
ENCODING 8039
SWIDTH 916 0
DWIDTH 11 0
BBX 9 12 1 0
BITMAP
1800
2400
0000
1000
0800
0000
4100
8880
8880
8880
8880
7700
ENDCHAR
STARTCHAR 1F68
ENCODING 8040
SWIDTH 750 0
DWIDTH 9 0
BBX 9 8 -1 0
BITMAP
4E00
9100
2080
2080
2080
2080
1100
3B80
ENDCHAR
STARTCHAR 1F69
ENCODING 8041
SWIDTH 833 0
DWIDTH 10 0
BBX 9 8 0 0
BITMAP
8E00
5100
2080
2080
2080
2080
1100
3B80
ENDCHAR
STARTCHAR 1F6A
ENCODING 8042
SWIDTH 1000 0
DWIDTH 12 0
BBX 12 8 -1 0
BITMAP
51C0
8A20
0410
0410
0410
0410
0220
0770
ENDCHAR
STARTCHAR 1F6B
ENCODING 8043
SWIDTH 1000 0
DWIDTH 12 0
BBX 11 8 0 0
BITMAP
A380
5440
0820
0820
0820
0820
0440
0EE0
ENDCHAR
STARTCHAR 1F6C
ENCODING 8044
SWIDTH 916 0
DWIDTH 11 0
BBX 11 8 -1 0
BITMAP
4B80
9440
0820
0820
0820
0820
0440
0EE0
ENDCHAR
STARTCHAR 1F6D
ENCODING 8045
SWIDTH 1000 0
DWIDTH 12 0
BBX 10 8 0 0
BITMAP
8F00
5880
1040
1040
1040
1040
0880
1DC0
ENDCHAR
STARTCHAR 1F6E
ENCODING 8046
SWIDTH 833 0
DWIDTH 10 0
BBX 10 11 -1 0
BITMAP
6000
9000
0000
2700
4880
1040
1040
1040
1040
0880
1DC0
ENDCHAR
STARTCHAR 1F6F
ENCODING 8047
SWIDTH 916 0
DWIDTH 11 0
BBX 9 11 0 0
BITMAP
6000
9000
0000
4E00
3100
2080
2080
2080
2080
1100
3B80
ENDCHAR
STARTCHAR 1F70
ENCODING 8048
SWIDTH 583 0
DWIDTH 7 0
BBX 6 9 1 0
BITMAP
60
30
00
78
88
88
88
88
74
ENDCHAR
STARTCHAR 1F71
ENCODING 8049
SWIDTH 583 0
DWIDTH 7 0
BBX 6 9 1 0
BITMAP
18
30
00
78
88
88
88
88
74
ENDCHAR
STARTCHAR 1F72
ENCODING 8050
SWIDTH 500 0
DWIDTH 6 0
BBX 5 9 1 0
BITMAP
60
30
00
78
80
60
80
80
78
ENDCHAR
STARTCHAR 1F73
ENCODING 8051
SWIDTH 500 0
DWIDTH 6 0
BBX 5 9 1 0
BITMAP
30
60
00
78
80
60
80
80
78
ENDCHAR
STARTCHAR 1F74
ENCODING 8052
SWIDTH 583 0
DWIDTH 7 0
BBX 5 11 1 -2
BITMAP
60
30
00
F0
88
88
88
88
88
08
08
ENDCHAR
STARTCHAR 1F75
ENCODING 8053
SWIDTH 583 0
DWIDTH 7 0
BBX 5 11 1 -2
BITMAP
30
60
00
F0
88
88
88
88
88
08
08
ENDCHAR
STARTCHAR 1F76
ENCODING 8054
SWIDTH 333 0
DWIDTH 4 0
BBX 3 9 0 0
BITMAP
C0
60
00
40
40
40
40
40
20
ENDCHAR
STARTCHAR 1F77
ENCODING 8055
SWIDTH 333 0
DWIDTH 4 0
BBX 3 9 0 0
BITMAP
60
C0
00
40
40
40
40
40
20
ENDCHAR
STARTCHAR 1F78
ENCODING 8056
SWIDTH 583 0
DWIDTH 7 0
BBX 5 9 1 0
BITMAP
60
10
00
70
88
88
88
88
70
ENDCHAR
STARTCHAR 1F79
ENCODING 8057
SWIDTH 583 0
DWIDTH 7 0
BBX 5 9 1 0
BITMAP
30
40
00
70
88
88
88
88
70
ENDCHAR
STARTCHAR 1F7A
ENCODING 8058
SWIDTH 583 0
DWIDTH 7 0
BBX 5 9 1 0
BITMAP
60
30
00
88
88
88
88
88
70
ENDCHAR
STARTCHAR 1F7B
ENCODING 8059
SWIDTH 583 0
DWIDTH 7 0
BBX 5 9 1 0
BITMAP
30
60
00
88
88
88
88
88
70
ENDCHAR
STARTCHAR 1F7C
ENCODING 8060
SWIDTH 916 0
DWIDTH 11 0
BBX 9 9 1 0
BITMAP
1800
0C00
0000
4100
8880
8880
8880
8880
7700
ENDCHAR
STARTCHAR 1F7D
ENCODING 8061
SWIDTH 916 0
DWIDTH 11 0
BBX 9 9 1 0
BITMAP
0C00
1800
0000
4100
8880
8880
8880
8880
7700
ENDCHAR
STARTCHAR 1F80
ENCODING 8064
SWIDTH 583 0
DWIDTH 7 0
BBX 6 12 1 -3
BITMAP
10
20
00
78
88
88
88
88
74
00
20
10
ENDCHAR
STARTCHAR 1F81
ENCODING 8065
SWIDTH 583 0
DWIDTH 7 0
BBX 6 12 1 -3
BITMAP
20
10
00
78
88
88
88
88
74
00
20
10
ENDCHAR
STARTCHAR 1F82
ENCODING 8066
SWIDTH 583 0
DWIDTH 7 0
BBX 7 15 0 -6
BITMAP
50
88
00
3C
44
44
44
44
3A
00
00
10
10
08
08
ENDCHAR
STARTCHAR 1F83
ENCODING 8067
SWIDTH 583 0
DWIDTH 7 0
BBX 6 12 1 -3
BITMAP
50
28
00
78
88
88
88
88
74
00
20
10
ENDCHAR
STARTCHAR 1F84
ENCODING 8068
SWIDTH 583 0
DWIDTH 7 0
BBX 6 12 1 -3
BITMAP
48
90
00
78
88
88
88
88
74
00
20
10
ENDCHAR
STARTCHAR 1F85
ENCODING 8069
SWIDTH 583 0
DWIDTH 7 0
BBX 6 12 1 -3
BITMAP
88
50
00
78
88
88
88
88
74
00
20
10
ENDCHAR
STARTCHAR 1F86
ENCODING 8070
SWIDTH 583 0
DWIDTH 7 0
BBX 6 15 1 -3
BITMAP
30
48
00
10
20
00
78
88
88
88
88
74
00
20
10
ENDCHAR
STARTCHAR 1F87
ENCODING 8071
SWIDTH 583 0
DWIDTH 7 0
BBX 6 15 1 -3
BITMAP
30
48
00
20
10
00
78
88
88
88
88
74
00
20
10
ENDCHAR
STARTCHAR 1F88
ENCODING 8072
SWIDTH 916 0
DWIDTH 11 0
BBX 11 8 0 0
BITMAP
5000
A800
2840
2840
4440
7C40
4440
8220
ENDCHAR
STARTCHAR 1F89
ENCODING 8073
SWIDTH 916 0
DWIDTH 11 0
BBX 11 8 0 0
BITMAP
5000
2800
2840
2840
4440
7C40
4440
8220
ENDCHAR
STARTCHAR 1F8A
ENCODING 8074
SWIDTH 1083 0
DWIDTH 13 0
BBX 14 8 -1 0
BITMAP
5400
8A00
0A18
0A18
1118
1F18
111C
208C
ENDCHAR
STARTCHAR 1F8B
ENCODING 8075
SWIDTH 1083 0
DWIDTH 13 0
BBX 12 8 0 0
BITMAP
A800
5400
1420
1420
2220
3E20
2220
4110
ENDCHAR
STARTCHAR 1F8C
ENCODING 8076
SWIDTH 1000 0
DWIDTH 12 0
BBX 13 8 -1 0
BITMAP
4C00
9A00
0A10
0A10
1110
1F10
1110
2088
ENDCHAR
STARTCHAR 1F8D
ENCODING 8077
SWIDTH 1000 0
DWIDTH 12 0
BBX 12 8 0 0
BITMAP
8800
5400
1420
1420
2220
3E20
2220
4110
ENDCHAR
STARTCHAR 1F8E
ENCODING 8078
SWIDTH 916 0
DWIDTH 11 0
BBX 12 11 -1 0
BITMAP
6000
9000
0000
2800
5400
1420
1420
2220
3E20
2220
4110
ENDCHAR
STARTCHAR 1F8F
ENCODING 8079
SWIDTH 916 0
DWIDTH 11 0
BBX 11 11 0 0
BITMAP
6000
9000
0000
5000
2800
2840
2840
4440
7C40
4440
8220
ENDCHAR
STARTCHAR 1F90
ENCODING 8080
SWIDTH 583 0
DWIDTH 7 0
BBX 5 12 1 -3
BITMAP
10
20
00
F0
88
88
88
88
88
08
88
40
ENDCHAR
STARTCHAR 1F91
ENCODING 8081
SWIDTH 583 0
DWIDTH 7 0
BBX 5 12 1 -3
BITMAP
40
20
00
F0
88
88
88
88
88
08
88
40
ENDCHAR
STARTCHAR 1F92
ENCODING 8082
SWIDTH 583 0
DWIDTH 7 0
BBX 5 15 1 -6
BITMAP
50
88
00
F0
88
88
88
88
88
08
08
80
80
40
40
ENDCHAR
STARTCHAR 1F93
ENCODING 8083
SWIDTH 583 0
DWIDTH 7 0
BBX 5 12 1 -3
BITMAP
50
28
00
F0
88
88
88
88
88
08
88
40
ENDCHAR
STARTCHAR 1F94
ENCODING 8084
SWIDTH 583 0
DWIDTH 7 0
BBX 5 12 1 -3
BITMAP
48
90
00
F0
88
88
88
88
88
08
88
40
ENDCHAR
STARTCHAR 1F95
ENCODING 8085
SWIDTH 583 0
DWIDTH 7 0
BBX 5 12 1 -3
BITMAP
88
50
00
F0
88
88
88
88
88
08
88
40
ENDCHAR
STARTCHAR 1F96
ENCODING 8086
SWIDTH 583 0
DWIDTH 7 0
BBX 5 15 1 -3
BITMAP
30
48
00
10
20
00
F0
88
88
88
88
88
08
88
40
ENDCHAR
STARTCHAR 1F97
ENCODING 8087
SWIDTH 583 0
DWIDTH 7 0
BBX 5 15 1 -3
BITMAP
60
90
00
40
20
00
F0
88
88
88
88
88
08
88
40
ENDCHAR
STARTCHAR 1F98
ENCODING 8088
SWIDTH 1083 0
DWIDTH 13 0
BBX 13 8 -1 0
BITMAP
5080
9080
1090
1F90
1090
1090
1090
1088
ENDCHAR
STARTCHAR 1F99
ENCODING 8089
SWIDTH 1083 0
DWIDTH 13 0
BBX 12 8 0 0
BITMAP
A100
6100
2120
3F20
2120
2120
2120
2110
ENDCHAR
STARTCHAR 1F9A
ENCODING 8090
SWIDTH 1250 0
DWIDTH 15 0
BBX 17 8 -1 0
BITMAP
542000
8C2000
042300
07E300
042300
042300
042380
042180
ENDCHAR
STARTCHAR 1F9B
ENCODING 8091
SWIDTH 1250 0
DWIDTH 15 0
BBX 14 8 0 0
BITMAP
A840
5840
0848
0FC8
0848
0848
0848
0844
ENDCHAR
STARTCHAR 1F9C
ENCODING 8092
SWIDTH 1250 0
DWIDTH 15 0
BBX 15 8 -1 0
BITMAP
4C20
9420
0424
07E4
0424
0424
0424
0422
ENDCHAR
STARTCHAR 1F9D
ENCODING 8093
SWIDTH 1250 0
DWIDTH 15 0
BBX 15 8 0 0
BITMAP
8840
5840
0844
0FC4
0844
0844
0844
0842
ENDCHAR
STARTCHAR 1F9E
ENCODING 8094
SWIDTH 1166 0
DWIDTH 14 0
BBX 15 11 -1 0
BITMAP
6000
9000
0000
2840
4840
0844
0FC4
0844
0844
0844
0842
ENDCHAR
STARTCHAR 1F9F
ENCODING 8095
SWIDTH 1166 0
DWIDTH 14 0
BBX 14 11 0 0
BITMAP
6000
9000
0000
5080
3080
1088
1F88
1088
1088
1088
1084
ENDCHAR
STARTCHAR 1FA0
ENCODING 8096
SWIDTH 916 0
DWIDTH 11 0
BBX 9 12 1 -3
BITMAP
0400
0800
0000
4100
8880
8880
8880
8880
7700
0000
0800
0400
ENDCHAR
STARTCHAR 1FA1
ENCODING 8097
SWIDTH 916 0
DWIDTH 11 0
BBX 9 12 1 -3
BITMAP
1000
0800
0000
4100
8880
8880
8880
8880
7700
0000
0800
0400
ENDCHAR
STARTCHAR 1FA2
ENCODING 8098
SWIDTH 916 0
DWIDTH 11 0
BBX 9 15 1 -6
BITMAP
1400
2200
0000
4100
8880
8880
8880
8880
7700
0000
0000
0800
0800
0400
0400
ENDCHAR
STARTCHAR 1FA3
ENCODING 8099
SWIDTH 916 0
DWIDTH 11 0
BBX 9 12 1 -3
BITMAP
2800
1400
0000
4100
8880
8880
8880
8880
7700
0000
0800
0400
ENDCHAR
STARTCHAR 1FA4
ENCODING 8100
SWIDTH 916 0
DWIDTH 11 0
BBX 9 12 1 -3
BITMAP
1200
2400
0000
4100
8880
8880
8880
8880
7700
0000
0800
0400
ENDCHAR
STARTCHAR 1FA5
ENCODING 8101
SWIDTH 916 0
DWIDTH 11 0
BBX 9 12 1 -3
BITMAP
2200
1400
0000
4100
8880
8880
8880
8880
7700
0000
0800
0400
ENDCHAR
STARTCHAR 1FA6
ENCODING 8102
SWIDTH 916 0
DWIDTH 11 0
BBX 9 15 1 -3
BITMAP
0C00
1200
0000
0400
0800
0000
4100
8880
8880
8880
8880
7700
0000
0800
0400
ENDCHAR
STARTCHAR 1FA7
ENCODING 8103
SWIDTH 916 0
DWIDTH 11 0
BBX 9 15 1 -3
BITMAP
1800
2400
0000
1000
0800
0000
4100
8880
8880
8880
8880
7700
0000
0800
0400
ENDCHAR
STARTCHAR 1FA8
ENCODING 8104
SWIDTH 1083 0
DWIDTH 13 0
BBX 14 8 -1 0
BITMAP
4E00
9100
2088
2088
2088
2088
1108
3B84
ENDCHAR
STARTCHAR 1FA9
ENCODING 8105
SWIDTH 1083 0
DWIDTH 13 0
BBX 13 8 0 0
BITMAP
8E00
5100
2090
2090
2090
2090
1110
3B88
ENDCHAR
STARTCHAR 1FAA
ENCODING 8106
SWIDTH 1333 0
DWIDTH 16 0
BBX 17 8 -1 0
BITMAP
51C000
8A2000
041300
041300
041300
041300
022380
077180
ENDCHAR
STARTCHAR 1FAB
ENCODING 8107
SWIDTH 1250 0
DWIDTH 15 0
BBX 15 8 0 0
BITMAP
A380
5440
0824
0824
0824
0824
0444
0EE2
ENDCHAR
STARTCHAR 1FAC
ENCODING 8108
SWIDTH 1250 0
DWIDTH 15 0
BBX 15 8 -1 0
BITMAP
4B80
9440
0824
0824
0824
0824
0444
0EE2
ENDCHAR
STARTCHAR 1FAD
ENCODING 8109
SWIDTH 1250 0
DWIDTH 15 0
BBX 15 8 0 0
BITMAP
8F00
5880
1044
1044
1044
1044
0884
1DC2
ENDCHAR
STARTCHAR 1FAE
ENCODING 8110
SWIDTH 1166 0
DWIDTH 14 0
BBX 14 11 -1 0
BITMAP
6000
9000
0000
2700
4880
1048
1048
1048
1048
0888
1DC4
ENDCHAR
STARTCHAR 1FAF
ENCODING 8111
SWIDTH 1166 0
DWIDTH 14 0
BBX 14 11 0 0
BITMAP
6000
9000
0000
4E00
3100
2088
2088
2088
2088
1108
3B84
ENDCHAR
STARTCHAR 1FB0
ENCODING 8112
SWIDTH 583 0
DWIDTH 7 0
BBX 6 9 1 0
BITMAP
48
30
00
78
88
88
88
88
74
ENDCHAR
STARTCHAR 1FB1
ENCODING 8113
SWIDTH 583 0
DWIDTH 7 0
BBX 6 9 1 0
BITMAP
70
00
00
78
88
88
88
88
74
ENDCHAR
STARTCHAR 1FB2
ENCODING 8114
SWIDTH 583 0
DWIDTH 7 0
BBX 6 12 1 -3
BITMAP
60
30
00
78
88
88
88
88
74
00
20
10
ENDCHAR
STARTCHAR 1FB3
ENCODING 8115
SWIDTH 583 0
DWIDTH 7 0
BBX 6 9 1 -3
BITMAP
78
88
88
88
88
74
00
20
10
ENDCHAR
STARTCHAR 1FB4
ENCODING 8116
SWIDTH 583 0
DWIDTH 7 0
BBX 6 12 1 -3
BITMAP
10
20
00
78
88
88
88
88
74
00
20
10
ENDCHAR
STARTCHAR 1FB6
ENCODING 8118
SWIDTH 583 0
DWIDTH 7 0
BBX 6 9 1 0
BITMAP
30
48
00
78
88
88
88
88
74
ENDCHAR
STARTCHAR 1FB7
ENCODING 8119
SWIDTH 583 0
DWIDTH 7 0
BBX 6 12 1 -3
BITMAP
30
48
00
78
88
88
88
88
74
00
20
10
ENDCHAR
STARTCHAR 1FB8
ENCODING 8120
SWIDTH 583 0
DWIDTH 7 0
BBX 7 11 0 0
BITMAP
12
0C
00
10
28
28
28
44
7C
44
82
ENDCHAR
STARTCHAR 1FB9
ENCODING 8121
SWIDTH 583 0
DWIDTH 7 0
BBX 7 11 0 0
BITMAP
1C
00
00
10
28
28
28
44
7C
44
82
ENDCHAR
STARTCHAR 1FBA
ENCODING 8122
SWIDTH 583 0
DWIDTH 7 0
BBX 7 8 0 0
BITMAP
90
68
28
28
44
7C
44
82
ENDCHAR
STARTCHAR 1FBB
ENCODING 8123
SWIDTH 583 0
DWIDTH 7 0
BBX 7 8 0 0
BITMAP
30
68
28
28
44
7C
44
82
ENDCHAR
STARTCHAR 1FBC
ENCODING 8124
SWIDTH 916 0
DWIDTH 11 0
BBX 11 8 0 0
BITMAP
1000
2800
2840
2840
4440
7C40
4440
8220
ENDCHAR
STARTCHAR 1FBD
ENCODING 8125
SWIDTH 416 0
DWIDTH 5 0
BBX 2 2 1 7
BITMAP
40
80
ENDCHAR
STARTCHAR 1FBE
ENCODING 8126
SWIDTH 250 0
DWIDTH 3 0
BBX 2 2 1 -3
BITMAP
80
40
ENDCHAR
STARTCHAR 1FBF
ENCODING 8127
SWIDTH 416 0
DWIDTH 5 0
BBX 2 2 1 7
BITMAP
40
80
ENDCHAR
STARTCHAR 1FC0
ENCODING 8128
SWIDTH 416 0
DWIDTH 5 0
BBX 4 2 1 7
BITMAP
60
90
ENDCHAR
STARTCHAR 1FC1
ENCODING 8129
SWIDTH 416 0
DWIDTH 5 0
BBX 4 4 1 7
BITMAP
60
90
00
A0
ENDCHAR
STARTCHAR 1FC2
ENCODING 8130
SWIDTH 583 0
DWIDTH 7 0
BBX 5 12 1 -3
BITMAP
60
30
00
F0
88
88
88
88
88
08
88
40
ENDCHAR
STARTCHAR 1FC3
ENCODING 8131
SWIDTH 583 0
DWIDTH 7 0
BBX 5 9 1 -3
BITMAP
F0
88
88
88
88
88
08
88
40
ENDCHAR
STARTCHAR 1FC4
ENCODING 8132
SWIDTH 583 0
DWIDTH 7 0
BBX 5 12 1 -3
BITMAP
30
60
00
F0
88
88
88
88
88
08
88
40
ENDCHAR
STARTCHAR 1FC6
ENCODING 8134
SWIDTH 583 0
DWIDTH 7 0
BBX 5 11 1 -2
BITMAP
60
90
00
F0
88
88
88
88
88
08
08
ENDCHAR
STARTCHAR 1FC7
ENCODING 8135
SWIDTH 583 0
DWIDTH 7 0
BBX 5 12 1 -3
BITMAP
60
90
00
F0
88
88
88
88
88
08
88
40
ENDCHAR
STARTCHAR 1FC8
ENCODING 8136
SWIDTH 666 0
DWIDTH 8 0
BBX 7 8 0 0
BITMAP
BE
60
20
3C
20
20
20
3E
ENDCHAR
STARTCHAR 1FC9
ENCODING 8137
SWIDTH 666 0
DWIDTH 8 0
BBX 7 8 0 0
BITMAP
7E
A0
20
3C
20
20
20
3E
ENDCHAR
STARTCHAR 1FCA
ENCODING 8138
SWIDTH 833 0
DWIDTH 10 0
BBX 8 8 0 0
BITMAP
A1
61
21
3F
21
21
21
21
ENDCHAR
STARTCHAR 1FCB
ENCODING 8139
SWIDTH 833 0
DWIDTH 10 0
BBX 8 8 0 0
BITMAP
61
A1
21
3F
21
21
21
21
ENDCHAR
STARTCHAR 1FCC
ENCODING 8140
SWIDTH 1000 0
DWIDTH 12 0
BBX 11 8 1 0
BITMAP
8400
8400
8440
FC40
8440
8440
8440
8420
ENDCHAR
STARTCHAR 1FCD
ENCODING 8141
SWIDTH 416 0
DWIDTH 5 0
BBX 5 2 0 7
BITMAP
50
88
ENDCHAR
STARTCHAR 1FCE
ENCODING 8142
SWIDTH 416 0
DWIDTH 5 0
BBX 5 2 0 7
BITMAP
48
90
ENDCHAR
STARTCHAR 1FCF
ENCODING 8143
SWIDTH 416 0
DWIDTH 5 0
BBX 4 5 0 7
BITMAP
60
90
00
20
40
ENDCHAR
STARTCHAR 1FD0
ENCODING 8144
SWIDTH 333 0
DWIDTH 4 0
BBX 4 9 0 0
BITMAP
90
60
00
40
40
40
40
40
20
ENDCHAR
STARTCHAR 1FD1
ENCODING 8145
SWIDTH 333 0
DWIDTH 4 0
BBX 3 9 0 0
BITMAP
E0
00
00
40
40
40
40
40
20
ENDCHAR
STARTCHAR 1FD2
ENCODING 8146
SWIDTH 333 0
DWIDTH 4 0
BBX 6 11 -1 0
BITMAP
20
20
94
94
00
20
20
20
20
20
10
ENDCHAR
STARTCHAR 1FD3
ENCODING 8147
SWIDTH 333 0
DWIDTH 4 0
BBX 6 11 -1 0
BITMAP
10
10
A4
A4
00
20
20
20
20
20
10
ENDCHAR
STARTCHAR 1FD6
ENCODING 8150
SWIDTH 333 0
DWIDTH 4 0
BBX 4 9 0 0
BITMAP
60
90
00
40
40
40
40
40
20
ENDCHAR
STARTCHAR 1FD7
ENCODING 8151
SWIDTH 333 0
DWIDTH 4 0
BBX 4 12 0 0
BITMAP
60
90
00
A0
A0
00
40
40
40
40
40
20
ENDCHAR
STARTCHAR 1FD8
ENCODING 8152
SWIDTH 250 0
DWIDTH 3 0
BBX 4 11 0 0
BITMAP
90
60
00
40
40
40
40
40
40
40
40
ENDCHAR
STARTCHAR 1FD9
ENCODING 8153
SWIDTH 250 0
DWIDTH 3 0
BBX 3 10 0 0
BITMAP
E0
00
40
40
40
40
40
40
40
40
ENDCHAR
STARTCHAR 1FDA
ENCODING 8154
SWIDTH 416 0
DWIDTH 5 0
BBX 3 8 0 0
BITMAP
A0
60
20
20
20
20
20
20
ENDCHAR
STARTCHAR 1FDB
ENCODING 8155
SWIDTH 416 0
DWIDTH 5 0
BBX 3 8 0 0
BITMAP
60
A0
20
20
20
20
20
20
ENDCHAR
STARTCHAR 1FDD
ENCODING 8157
SWIDTH 416 0
DWIDTH 5 0
BBX 4 2 1 7
BITMAP
A0
50
ENDCHAR
STARTCHAR 1FDE
ENCODING 8158
SWIDTH 416 0
DWIDTH 5 0
BBX 5 2 1 7
BITMAP
88
50
ENDCHAR
STARTCHAR 1FDF
ENCODING 8159
SWIDTH 416 0
DWIDTH 5 0
BBX 4 5 1 7
BITMAP
60
90
00
40
20
ENDCHAR
STARTCHAR 1FE0
ENCODING 8160
SWIDTH 583 0
DWIDTH 7 0
BBX 5 9 1 0
BITMAP
90
60
00
88
88
88
88
88
70
ENDCHAR
STARTCHAR 1FE1
ENCODING 8161
SWIDTH 583 0
DWIDTH 7 0
BBX 5 9 1 0
BITMAP
70
00
00
88
88
88
88
88
70
ENDCHAR
STARTCHAR 1FE2
ENCODING 8162
SWIDTH 583 0
DWIDTH 7 0
BBX 6 11 1 0
BITMAP
20
20
94
94
00
88
88
88
88
88
70
ENDCHAR
STARTCHAR 1FE3
ENCODING 8163
SWIDTH 583 0
DWIDTH 7 0
BBX 6 11 0 0
BITMAP
10
10
A4
A4
00
44
44
44
44
44
38
ENDCHAR
STARTCHAR 1FE4
ENCODING 8164
SWIDTH 583 0
DWIDTH 7 0
BBX 5 11 1 -2
BITMAP
20
40
00
70
88
88
88
88
F0
80
80
ENDCHAR
STARTCHAR 1FE5
ENCODING 8165
SWIDTH 583 0
DWIDTH 7 0
BBX 5 11 1 -2
BITMAP
40
20
00
70
88
88
88
88
F0
80
80
ENDCHAR
STARTCHAR 1FE6
ENCODING 8166
SWIDTH 583 0
DWIDTH 7 0
BBX 5 9 1 0
BITMAP
60
90
00
88
88
88
88
88
70
ENDCHAR
STARTCHAR 1FE7
ENCODING 8167
SWIDTH 583 0
DWIDTH 7 0
BBX 5 12 1 0
BITMAP
30
48
00
50
50
00
88
88
88
88
88
70
ENDCHAR
STARTCHAR 1FE8
ENCODING 8168
SWIDTH 583 0
DWIDTH 7 0
BBX 7 11 0 0
BITMAP
48
30
00
82
44
44
28
10
10
10
10
ENDCHAR
STARTCHAR 1FE9
ENCODING 8169
SWIDTH 583 0
DWIDTH 7 0
BBX 7 11 0 0
BITMAP
38
00
00
82
44
44
28
10
10
10
10
ENDCHAR
STARTCHAR 1FEA
ENCODING 8170
SWIDTH 750 0
DWIDTH 9 0
BBX 9 8 0 0
BITMAP
A080
5100
1100
0A00
0400
0400
0400
0400
ENDCHAR
STARTCHAR 1FEB
ENCODING 8171
SWIDTH 750 0
DWIDTH 9 0
BBX 9 8 0 0
BITMAP
6080
9100
1100
0A00
0400
0400
0400
0400
ENDCHAR
STARTCHAR 1FEC
ENCODING 8172
SWIDTH 666 0
DWIDTH 8 0
BBX 8 8 0 0
BITMAP
BE
61
21
21
3E
20
20
20
ENDCHAR
STARTCHAR 1FED
ENCODING 8173
SWIDTH 416 0
DWIDTH 5 0
BBX 6 3 -1 6
BITMAP
20
A4
10
ENDCHAR
STARTCHAR 1FEE
ENCODING 8174
SWIDTH 416 0
DWIDTH 5 0
BBX 6 3 0 6
BITMAP
10
A4
20
ENDCHAR
STARTCHAR 1FEF
ENCODING 8175
SWIDTH 416 0
DWIDTH 5 0
BBX 3 2 1 7
BITMAP
C0
20
ENDCHAR
STARTCHAR 1FF2
ENCODING 8178
SWIDTH 916 0
DWIDTH 11 0
BBX 9 12 1 -3
BITMAP
1800
0C00
0000
4100
8880
8880
8880
8880
7700
0000
0800
0400
ENDCHAR
STARTCHAR 1FF3
ENCODING 8179
SWIDTH 916 0
DWIDTH 11 0
BBX 9 9 1 -3
BITMAP
4100
8880
8880
8880
8880
7700
0000
0800
0400
ENDCHAR
STARTCHAR 1FF4
ENCODING 8180
SWIDTH 916 0
DWIDTH 11 0
BBX 9 12 1 -3
BITMAP
0C00
1800
0000
4100
8880
8880
8880
8880
7700
0000
0800
0400
ENDCHAR
STARTCHAR 1FF6
ENCODING 8182
SWIDTH 916 0
DWIDTH 11 0
BBX 9 9 1 0
BITMAP
1800
2400
0000
4100
8880
8880
8880
8880
7700
ENDCHAR
STARTCHAR 1FF7
ENCODING 8183
SWIDTH 916 0
DWIDTH 11 0
BBX 9 12 1 -3
BITMAP
1800
2400
0000
4100
8880
8880
8880
8880
7700
0000
0800
0400
ENDCHAR
STARTCHAR 1FF8
ENCODING 8184
SWIDTH 916 0
DWIDTH 11 0
BBX 9 8 0 0
BITMAP
8E00
5100
2080
2080
2080
2080
1100
0E00
ENDCHAR
STARTCHAR 1FF9
ENCODING 8185
SWIDTH 833 0
DWIDTH 10 0
BBX 9 8 0 0
BITMAP
4E00
9100
2080
2080
2080
2080
1100
0E00
ENDCHAR
STARTCHAR 1FFA
ENCODING 8186
SWIDTH 916 0
DWIDTH 11 0
BBX 9 8 0 0
BITMAP
8E00
5100
2080
2080
2080
2080
1100
3B80
ENDCHAR
STARTCHAR 1FFB
ENCODING 8187
SWIDTH 833 0
DWIDTH 10 0
BBX 9 8 0 0
BITMAP
4E00
9100
2080
2080
2080
2080
1100
3B80
ENDCHAR
STARTCHAR 1FFC
ENCODING 8188
SWIDTH 1083 0
DWIDTH 13 0
BBX 11 8 1 0
BITMAP
3800
4400
8240
8240
8240
8240
4440
EE20
ENDCHAR
STARTCHAR 1FFD
ENCODING 8189
SWIDTH 416 0
DWIDTH 5 0
BBX 3 2 1 7
BITMAP
60
80
ENDCHAR
STARTCHAR 1FFE
ENCODING 8190
SWIDTH 416 0
DWIDTH 5 0
BBX 2 2 2 7
BITMAP
80
40
ENDCHAR
STARTCHAR 2013
ENCODING 8211
SWIDTH 500 0
DWIDTH 6 0
BBX 6 1 0 3
BITMAP
FC
ENDCHAR
STARTCHAR 2014
ENCODING 8212
SWIDTH 1000 0
DWIDTH 12 0
BBX 12 1 0 3
BITMAP
FFF0
ENDCHAR
STARTCHAR 2015
ENCODING 8213
SWIDTH 1000 0
DWIDTH 12 0
BBX 12 1 0 3
BITMAP
FFF0
ENDCHAR
STARTCHAR 2018
ENCODING 8216
SWIDTH 250 0
DWIDTH 3 0
BBX 2 4 1 6
BITMAP
40
80
80
80
ENDCHAR
STARTCHAR 2019
ENCODING 8217
SWIDTH 250 0
DWIDTH 3 0
BBX 2 4 0 6
BITMAP
40
40
40
80
ENDCHAR
STARTCHAR 201A
ENCODING 8218
SWIDTH 250 0
DWIDTH 3 0
BBX 2 4 0 -2
BITMAP
40
40
40
80
ENDCHAR
STARTCHAR 201C
ENCODING 8220
SWIDTH 416 0
DWIDTH 5 0
BBX 4 5 1 5
BITMAP
40
90
A0
A0
20
ENDCHAR
STARTCHAR 201D
ENCODING 8221
SWIDTH 416 0
DWIDTH 5 0
BBX 4 4 0 6
BITMAP
50
50
50
A0
ENDCHAR
STARTCHAR 201E
ENCODING 8222
SWIDTH 416 0
DWIDTH 5 0
BBX 4 4 0 -2
BITMAP
50
50
50
A0
ENDCHAR
STARTCHAR 2020
ENCODING 8224
SWIDTH 500 0
DWIDTH 6 0
BBX 7 11 0 -2
BITMAP
20
20
20
FE
20
20
20
20
20
20
20
ENDCHAR
STARTCHAR 2021
ENCODING 8225
SWIDTH 500 0
DWIDTH 6 0
BBX 7 11 0 -2
BITMAP
20
20
20
FE
20
20
FE
20
20
20
20
ENDCHAR
STARTCHAR 2022
ENCODING 8226
SWIDTH 333 0
DWIDTH 4 0
BBX 3 3 0 3
BITMAP
E0
E0
E0
ENDCHAR
STARTCHAR 2026
ENCODING 8230
SWIDTH 1000 0
DWIDTH 12 0
BBX 9 2 2 0
BITMAP
8880
8880
ENDCHAR
STARTCHAR 2030
ENCODING 8240
SWIDTH 1250 0
DWIDTH 15 0
BBX 13 8 1 0
BITMAP
6200
9400
9800
6800
1630
1948
2948
4630
ENDCHAR
STARTCHAR 2039
ENCODING 8249
SWIDTH 250 0
DWIDTH 3 0
BBX 3 5 0 1
BITMAP
20
40
80
40
20
ENDCHAR
STARTCHAR 203A
ENCODING 8250
SWIDTH 250 0
DWIDTH 3 0
BBX 3 5 -1 1
BITMAP
80
40
20
40
80
ENDCHAR
STARTCHAR 2044
ENCODING 8260
SWIDTH 166 0
DWIDTH 2 0
BBX 6 8 -2 0
BITMAP
04
08
10
10
20
20
40
80
ENDCHAR
STARTCHAR 2070
ENCODING 8304
SWIDTH 333 0
DWIDTH 4 0
BBX 4 5 0 3
BITMAP
60
90
90
90
60
ENDCHAR
STARTCHAR 2074
ENCODING 8308
SWIDTH 333 0
DWIDTH 4 0
BBX 4 5 0 3
BITMAP
20
60
A0
F0
20
ENDCHAR
STARTCHAR 2075
ENCODING 8309
SWIDTH 333 0
DWIDTH 4 0
BBX 4 5 -1 3
BITMAP
F0
80
E0
10
E0
ENDCHAR
STARTCHAR 2076
ENCODING 8310
SWIDTH 333 0
DWIDTH 4 0
BBX 4 5 0 3
BITMAP
70
80
E0
90
60
ENDCHAR
STARTCHAR 2077
ENCODING 8311
SWIDTH 333 0
DWIDTH 4 0
BBX 4 5 0 3
BITMAP
F0
20
20
40
40
ENDCHAR
STARTCHAR 2078
ENCODING 8312
SWIDTH 333 0
DWIDTH 4 0
BBX 4 5 0 3
BITMAP
60
90
60
90
E0
ENDCHAR
STARTCHAR 2079
ENCODING 8313
SWIDTH 333 0
DWIDTH 4 0
BBX 4 5 0 3
BITMAP
60
90
70
10
E0
ENDCHAR
STARTCHAR 2080
ENCODING 8320
SWIDTH 333 0
DWIDTH 4 0
BBX 4 5 0 -1
BITMAP
60
90
90
90
60
ENDCHAR
STARTCHAR 2081
ENCODING 8321
SWIDTH 333 0
DWIDTH 4 0
BBX 2 5 1 -1
BITMAP
40
C0
40
40
40
ENDCHAR
STARTCHAR 2082
ENCODING 8322
SWIDTH 333 0
DWIDTH 4 0
BBX 3 5 0 -1
BITMAP
C0
20
40
80
E0
ENDCHAR
STARTCHAR 2083
ENCODING 8323
SWIDTH 333 0
DWIDTH 4 0
BBX 3 5 0 -1
BITMAP
C0
20
40
20
C0
ENDCHAR
STARTCHAR 2084
ENCODING 8324
SWIDTH 333 0
DWIDTH 4 0
BBX 4 5 0 -1
BITMAP
20
60
A0
F0
20
ENDCHAR
STARTCHAR 2085
ENCODING 8325
SWIDTH 333 0
DWIDTH 4 0
BBX 4 5 -1 -1
BITMAP
F0
80
E0
10
E0
ENDCHAR
STARTCHAR 2086
ENCODING 8326
SWIDTH 333 0
DWIDTH 4 0
BBX 4 5 0 -1
BITMAP
70
80
E0
90
60
ENDCHAR
STARTCHAR 2087
ENCODING 8327
SWIDTH 333 0
DWIDTH 4 0
BBX 4 5 0 -1
BITMAP
F0
20
20
40
40
ENDCHAR
STARTCHAR 2088
ENCODING 8328
SWIDTH 333 0
DWIDTH 4 0
BBX 4 5 0 -1
BITMAP
60
90
60
90
E0
ENDCHAR
STARTCHAR 2089
ENCODING 8329
SWIDTH 333 0
DWIDTH 4 0
BBX 4 5 0 -1
BITMAP
60
90
70
10
E0
ENDCHAR
STARTCHAR 20AC
ENCODING 8364
SWIDTH 583 0
DWIDTH 7 0
BBX 6 8 1 0
BITMAP
3C
40
F8
40
F8
40
60
3C
ENDCHAR
STARTCHAR 20AE
ENCODING 8366
SWIDTH 416 0
DWIDTH 5 0
BBX 5 8 0 0
BITMAP
F8
20
28
30
E8
30
E0
20
ENDCHAR
STARTCHAR 20B4
ENCODING 8372
SWIDTH 583 0
DWIDTH 7 0
BBX 5 8 1 0
BITMAP
E0
10
F8
20
F8
40
40
38
ENDCHAR
STARTCHAR 20B9
ENCODING 8377
SWIDTH 583 0
DWIDTH 7 0
BBX 6 8 1 0
BITMAP
FC
08
FC
08
F0
40
20
10
ENDCHAR
STARTCHAR 2113
ENCODING 8467
SWIDTH 416 0
DWIDTH 5 0
BBX 5 9 0 0
BITMAP
30
48
48
48
50
60
C0
40
38
ENDCHAR
STARTCHAR 2116
ENCODING 8470
SWIDTH 1166 0
DWIDTH 14 0
BBX 12 8 1 0
BITMAP
84E0
C510
A510
A510
94E0
9400
8DF0
8400
ENDCHAR
STARTCHAR 2122
ENCODING 8482
SWIDTH 750 0
DWIDTH 9 0
BBX 8 4 0 4
BITMAP
F1
5B
57
51
ENDCHAR
STARTCHAR 2126
ENCODING 8486
SWIDTH 750 0
DWIDTH 9 0
BBX 7 8 1 0
BITMAP
38
44
82
82
82
82
44
EE
ENDCHAR
STARTCHAR 212E
ENCODING 8494
SWIDTH 916 0
DWIDTH 11 0
BBX 9 9 1 0
BITMAP
3C00
6300
C100
C180
FF80
C000
C000
6100
3E00
ENDCHAR
STARTCHAR 2153
ENCODING 8531
SWIDTH 833 0
DWIDTH 10 0
BBX 8 8 1 0
BITMAP
42
C4
48
4E
51
12
21
46
ENDCHAR
STARTCHAR 2154
ENCODING 8532
SWIDTH 833 0
DWIDTH 10 0
BBX 9 8 0 0
BITMAP
C100
2200
4400
8700
E880
0900
1080
2300
ENDCHAR
STARTCHAR 2155
ENCODING 8533
SWIDTH 833 0
DWIDTH 10 0
BBX 8 8 1 0
BITMAP
42
C4
48
4F
58
1E
21
4E
ENDCHAR
STARTCHAR 2156
ENCODING 8534
SWIDTH 833 0
DWIDTH 10 0
BBX 9 8 0 0
BITMAP
C080
2100
4200
8780
E400
0700
0880
1700
ENDCHAR
STARTCHAR 2157
ENCODING 8535
SWIDTH 833 0
DWIDTH 10 0
BBX 9 8 0 0
BITMAP
C100
2200
4400
2780
CA00
0B00
1080
2300
ENDCHAR
STARTCHAR 2158
ENCODING 8536
SWIDTH 833 0
DWIDTH 10 0
BBX 9 8 0 0
BITMAP
2100
6200
A400
F780
2C00
0F00
1080
2700
ENDCHAR
STARTCHAR 2159
ENCODING 8537
SWIDTH 833 0
DWIDTH 10 0
BBX 9 8 1 0
BITMAP
4200
C400
4800
4B80
5400
1700
2480
4300
ENDCHAR
STARTCHAR 215A
ENCODING 8538
SWIDTH 833 0
DWIDTH 10 0
BBX 11 8 -1 0
BITMAP
F080
8100
E200
12E0
E500
05C0
0920
10C0
ENDCHAR
STARTCHAR 215B
ENCODING 8539
SWIDTH 833 0
DWIDTH 10 0
BBX 9 8 1 0
BITMAP
4200
C400
4800
4B00
5480
1300
2480
4700
ENDCHAR
STARTCHAR 215C
ENCODING 8540
SWIDTH 833 0
DWIDTH 10 0
BBX 10 8 0 0
BITMAP
C100
2200
4400
25C0
C940
0880
1140
21C0
ENDCHAR
STARTCHAR 215D
ENCODING 8541
SWIDTH 833 0
DWIDTH 10 0
BBX 11 8 -1 0
BITMAP
F080
8100
E200
12E0
E4A0
0440
08A0
10E0
ENDCHAR
STARTCHAR 215E
ENCODING 8542
SWIDTH 833 0
DWIDTH 10 0
BBX 10 8 0 0
BITMAP
F100
2200
2400
4580
4A40
0980
1240
2380
ENDCHAR
STARTCHAR 2202
ENCODING 8706
SWIDTH 583 0
DWIDTH 7 0
BBX 5 9 1 0
BITMAP
70
08
08
38
48
88
88
90
60
ENDCHAR
STARTCHAR 2206
ENCODING 8710
SWIDTH 666 0
DWIDTH 8 0
BBX 7 8 0 0
BITMAP
10
30
28
28
44
44
44
FE
ENDCHAR
STARTCHAR 220F
ENCODING 8719
SWIDTH 666 0
DWIDTH 8 0
BBX 6 10 1 -2
BITMAP
FC
84
84
84
84
84
84
84
84
84
ENDCHAR
STARTCHAR 2211
ENCODING 8721
SWIDTH 500 0
DWIDTH 6 0
BBX 6 9 0 -1
BITMAP
FC
40
40
20
10
20
40
80
FC
ENDCHAR
STARTCHAR 2212
ENCODING 8722
SWIDTH 583 0
DWIDTH 7 0
BBX 5 1 1 3
BITMAP
F8
ENDCHAR
STARTCHAR 2215
ENCODING 8725
SWIDTH 166 0
DWIDTH 2 0
BBX 6 8 -2 0
BITMAP
04
08
10
10
20
20
40
80
ENDCHAR
STARTCHAR 2219
ENCODING 8729
SWIDTH 250 0
DWIDTH 3 0
BBX 1 2 1 3
BITMAP
80
80
ENDCHAR
STARTCHAR 221A
ENCODING 8730
SWIDTH 583 0
DWIDTH 7 0
BBX 7 9 0 -1
BITMAP
02
02
04
04
04
48
A8
28
10
ENDCHAR
STARTCHAR 221E
ENCODING 8734
SWIDTH 583 0
DWIDTH 7 0
BBX 7 3 0 2
BITMAP
6C
92
6C
ENDCHAR
STARTCHAR 222B
ENCODING 8747
SWIDTH 333 0
DWIDTH 4 0
BBX 4 11 0 -2
BITMAP
10
20
20
20
20
20
20
20
20
20
C0
ENDCHAR
STARTCHAR 2248
ENCODING 8776
SWIDTH 583 0
DWIDTH 7 0
BBX 6 4 1 2
BITMAP
64
98
64
98
ENDCHAR
STARTCHAR 2260
ENCODING 8800
SWIDTH 583 0
DWIDTH 7 0
BBX 5 8 1 -1
BITMAP
10
10
F8
20
20
F8
40
40
ENDCHAR
STARTCHAR 2264
ENCODING 8804
SWIDTH 583 0
DWIDTH 7 0
BBX 5 7 1 0
BITMAP
08
70
80
70
08
00
F8
ENDCHAR
STARTCHAR 2265
ENCODING 8805
SWIDTH 583 0
DWIDTH 7 0
BBX 5 7 1 0
BITMAP
80
70
08
70
80
00
F8
ENDCHAR
STARTCHAR 25CA
ENCODING 9674
SWIDTH 583 0
DWIDTH 7 0
BBX 7 9 0 0
BITMAP
10
28
48
44
82
44
48
28
10
ENDCHAR
STARTCHAR E0FF
ENCODING 57599
SWIDTH 750 0
DWIDTH 9 0
BBX 9 8 0 0
BITMAP
1E00
7D00
7380
DD80
DF80
7180
7F00
1E00
ENDCHAR
STARTCHAR EFFD
ENCODING 61437
SWIDTH 1666 0
DWIDTH 20 0
BBX 20 5 0 -1
BITMAP
60E660
90A990
944990
94A990
60E660
ENDCHAR
STARTCHAR F000
ENCODING 61440
SWIDTH 916 0
DWIDTH 11 0
BBX 6 8 4 0
BITMAP
18
84
84
84
18
A0
A0
18
ENDCHAR
STARTCHAR F001
ENCODING 61441
SWIDTH 666 0
DWIDTH 8 0
BBX 6 9 1 0
BITMAP
74
84
80
F4
84
84
84
84
84
ENDCHAR
STARTCHAR F002
ENCODING 61442
SWIDTH 750 0
DWIDTH 9 0
BBX 8 9 1 0
BITMAP
74
84
84
F4
84
84
84
84
83
ENDCHAR
STARTCHAR F0FF
ENCODING 61695
SWIDTH 416 0
DWIDTH 5 0
BBX 5 5 0 4
BITMAP
70
C8
B8
C8
70
ENDCHAR
STARTCHAR F200
ENCODING 61952
SWIDTH 3500 0
DWIDTH 42 0
BBX 42 9 0 0
BITMAP
010000000380
0100001006C0
0100001005C0
89E44F1D1640
891448911380
891448911000
891448911000
893448911000
79E3C88EF000
ENDCHAR
STARTCHAR F506
ENCODING 62726
SWIDTH 833 0
DWIDTH 10 0
BBX 9 8 1 0
BITMAP
4200
C400
4800
4F80
5100
1100
2200
4200
ENDCHAR
STARTCHAR F507
ENCODING 62727
SWIDTH 833 0
DWIDTH 10 0
BBX 10 8 0 0
BITMAP
C100
2200
4400
87C0
E880
0880
1100
2100
ENDCHAR
STARTCHAR F508
ENCODING 62728
SWIDTH 833 0
DWIDTH 10 0
BBX 11 8 0 0
BITMAP
C100
2200
4400
27E0
C840
0880
1080
2100
ENDCHAR
STARTCHAR F509
ENCODING 62729
SWIDTH 833 0
DWIDTH 10 0
BBX 10 8 0 0
BITMAP
2100
6200
A400
F7C0
2880
0880
1100
2100
ENDCHAR
STARTCHAR F50A
ENCODING 62730
SWIDTH 833 0
DWIDTH 10 0
BBX 12 8 -1 0
BITMAP
F080
8100
E200
13F0
E420
0440
0840
1080
ENDCHAR
STARTCHAR F50B
ENCODING 62731
SWIDTH 833 0
DWIDTH 10 0
BBX 10 8 0 0
BITMAP
7100
8200
E400
97C0
6880
0880
1100
2100
ENDCHAR
STARTCHAR F50C
ENCODING 62732
SWIDTH 833 0
DWIDTH 10 0
BBX 9 8 1 0
BITMAP
4200
C400
4800
4B00
5480
1380
2080
4700
ENDCHAR
STARTCHAR F50D
ENCODING 62733
SWIDTH 833 0
DWIDTH 10 0
BBX 10 8 0 0
BITMAP
C100
2200
4400
8580
EA40
09C0
1040
2380
ENDCHAR
STARTCHAR F50E
ENCODING 62734
SWIDTH 833 0
DWIDTH 10 0
BBX 10 8 0 0
BITMAP
2100
6200
A400
F580
2A40
09C0
1040
2380
ENDCHAR
STARTCHAR F50F
ENCODING 62735
SWIDTH 833 0
DWIDTH 10 0
BBX 12 8 -1 0
BITMAP
F080
8100
E200
1260
E490
0470
0810
1060
ENDCHAR
STARTCHAR F510
ENCODING 62736
SWIDTH 833 0
DWIDTH 10 0
BBX 10 8 0 0
BITMAP
F100
2200
2400
4580
4A40
09C0
1040
2380
ENDCHAR
STARTCHAR F511
ENCODING 62737
SWIDTH 833 0
DWIDTH 10 0
BBX 10 8 0 0
BITMAP
6100
9200
6400
9580
EA40
09C0
1040
2380
ENDCHAR
STARTCHAR F800
ENCODING 63488
SWIDTH 583 0
DWIDTH 7 0
BBX 5 8 1 0
BITMAP
70
88
88
88
88
88
88
70
ENDCHAR
STARTCHAR F801
ENCODING 63489
SWIDTH 333 0
DWIDTH 4 0
BBX 3 8 0 0
BITMAP
20
60
A0
20
20
20
20
20
ENDCHAR
STARTCHAR F802
ENCODING 63490
SWIDTH 500 0
DWIDTH 6 0
BBX 5 8 1 0
BITMAP
70
88
08
10
20
40
80
F8
ENDCHAR
STARTCHAR F803
ENCODING 63491
SWIDTH 500 0
DWIDTH 6 0
BBX 5 8 1 0
BITMAP
F0
08
08
70
18
08
08
F0
ENDCHAR
STARTCHAR F804
ENCODING 63492
SWIDTH 500 0
DWIDTH 6 0
BBX 5 8 1 0
BITMAP
10
30
50
50
90
F8
10
10
ENDCHAR
STARTCHAR F805
ENCODING 63493
SWIDTH 500 0
DWIDTH 6 0
BBX 5 8 1 0
BITMAP
78
40
40
70
08
08
08
F0
ENDCHAR
STARTCHAR F806
ENCODING 63494
SWIDTH 583 0
DWIDTH 7 0
BBX 5 8 1 0
BITMAP
30
40
80
F0
88
88
88
70
ENDCHAR
STARTCHAR F807
ENCODING 63495
SWIDTH 500 0
DWIDTH 6 0
BBX 5 8 0 0
BITMAP
F8
08
10
20
20
40
40
40
ENDCHAR
STARTCHAR F808
ENCODING 63496
SWIDTH 583 0
DWIDTH 7 0
BBX 5 8 1 0
BITMAP
70
88
88
70
88
88
88
70
ENDCHAR
STARTCHAR F809
ENCODING 63497
SWIDTH 583 0
DWIDTH 7 0
BBX 5 8 1 0
BITMAP
70
88
88
88
78
08
10
60
ENDCHAR
STARTCHAR F80A
ENCODING 63498
SWIDTH 333 0
DWIDTH 4 0
BBX 4 5 0 4
BITMAP
60
90
90
90
60
ENDCHAR
STARTCHAR F80B
ENCODING 63499
SWIDTH 333 0
DWIDTH 4 0
BBX 2 5 1 4
BITMAP
40
C0
40
40
40
ENDCHAR
STARTCHAR F80C
ENCODING 63500
SWIDTH 333 0
DWIDTH 4 0
BBX 3 5 0 4
BITMAP
C0
20
40
80
E0
ENDCHAR
STARTCHAR F80D
ENCODING 63501
SWIDTH 333 0
DWIDTH 4 0
BBX 3 5 0 4
BITMAP
C0
20
40
20
C0
ENDCHAR
STARTCHAR F80E
ENCODING 63502
SWIDTH 333 0
DWIDTH 4 0
BBX 4 5 0 4
BITMAP
20
60
A0
F0
20
ENDCHAR
STARTCHAR F80F
ENCODING 63503
SWIDTH 333 0
DWIDTH 4 0
BBX 4 5 -1 4
BITMAP
F0
80
E0
10
E0
ENDCHAR
STARTCHAR F810
ENCODING 63504
SWIDTH 333 0
DWIDTH 4 0
BBX 4 5 0 4
BITMAP
70
80
E0
90
60
ENDCHAR
STARTCHAR F811
ENCODING 63505
SWIDTH 333 0
DWIDTH 4 0
BBX 4 5 0 4
BITMAP
F0
20
20
40
40
ENDCHAR
STARTCHAR F812
ENCODING 63506
SWIDTH 333 0
DWIDTH 4 0
BBX 4 5 0 4
BITMAP
60
90
60
90
E0
ENDCHAR
STARTCHAR F813
ENCODING 63507
SWIDTH 333 0
DWIDTH 4 0
BBX 4 5 0 4
BITMAP
60
90
70
10
E0
ENDCHAR
STARTCHAR F814
ENCODING 63508
SWIDTH 333 0
DWIDTH 4 0
BBX 4 5 0 -2
BITMAP
60
90
90
90
60
ENDCHAR
STARTCHAR F815
ENCODING 63509
SWIDTH 333 0
DWIDTH 4 0
BBX 2 5 1 -2
BITMAP
40
C0
40
40
40
ENDCHAR
STARTCHAR F816
ENCODING 63510
SWIDTH 333 0
DWIDTH 4 0
BBX 3 5 0 -2
BITMAP
C0
20
40
80
E0
ENDCHAR
STARTCHAR F817
ENCODING 63511
SWIDTH 333 0
DWIDTH 4 0
BBX 3 5 0 -2
BITMAP
C0
20
40
20
C0
ENDCHAR
STARTCHAR F818
ENCODING 63512
SWIDTH 333 0
DWIDTH 4 0
BBX 4 5 0 -2
BITMAP
20
60
A0
F0
20
ENDCHAR
STARTCHAR F819
ENCODING 63513
SWIDTH 333 0
DWIDTH 4 0
BBX 4 5 -1 -2
BITMAP
F0
80
E0
10
E0
ENDCHAR
STARTCHAR F81A
ENCODING 63514
SWIDTH 333 0
DWIDTH 4 0
BBX 4 5 0 -2
BITMAP
70
80
E0
90
60
ENDCHAR
STARTCHAR F81B
ENCODING 63515
SWIDTH 333 0
DWIDTH 4 0
BBX 4 5 0 -2
BITMAP
F0
20
20
40
40
ENDCHAR
STARTCHAR F81C
ENCODING 63516
SWIDTH 333 0
DWIDTH 4 0
BBX 4 5 0 -2
BITMAP
60
90
60
90
E0
ENDCHAR
STARTCHAR F81D
ENCODING 63517
SWIDTH 333 0
DWIDTH 4 0
BBX 4 5 0 -2
BITMAP
60
90
70
10
E0
ENDCHAR
STARTCHAR FB00
ENCODING 64256
SWIDTH 750 0
DWIDTH 9 0
BBX 9 9 1 1
BITMAP
7380
8400
8400
F780
8400
8400
8400
8400
8400
ENDCHAR
STARTCHAR FB01
ENCODING 64257
SWIDTH 666 0
DWIDTH 8 0
BBX 6 9 1 0
BITMAP
74
84
80
F4
84
84
84
84
84
ENDCHAR
STARTCHAR FB02
ENCODING 64258
SWIDTH 750 0
DWIDTH 9 0
BBX 8 9 1 0
BITMAP
74
84
84
F4
84
84
84
84
83
ENDCHAR
STARTCHAR FB03
ENCODING 64259
SWIDTH 1000 0
DWIDTH 12 0
BBX 11 9 1 1
BITMAP
73A0
8420
8400
F7A0
8420
8420
8420
8420
8420
ENDCHAR
STARTCHAR FB04
ENCODING 64260
SWIDTH 1083 0
DWIDTH 13 0
BBX 13 9 1 1
BITMAP
73A0
8420
8420
F7A0
8420
8420
8420
8420
8418
ENDCHAR
ENDFONT
